<?xml version="1.0" standalone="no"?><!DOCTYPE svg PUBLIC "-//W3C//DTD SVG 1.1//EN" "http://www.w3.org/Graphics/SVG/1.1/DTD/svg11.dtd"><svg t="1761180715556" class="icon" viewBox="0 0 1024 1024" version="1.1" xmlns="http://www.w3.org/2000/svg" p-id="3149" xmlns:xlink="http://www.w3.org/1999/xlink" width="200" height="200"><path d="M917.504 338.87232a526.6432 526.6432 0 0 1 3.57376 61.29664c0 287.6928-233.22624 520.91904-520.91904 520.91904a526.6432 526.6432 0 0 1-61.29664-3.57376c53.15584 22.72256 111.6672 35.30752 173.12768 35.30752 243.456 0 440.81152-197.35552 440.81152-440.81152 0-61.46048-12.58496-119.98208-35.30752-173.12768z" fill="#76CEFF" p-id="3150"></path><path d="M921.088 400.16896a526.6432 526.6432 0 0 0-3.57376-61.29664c-67.28704-157.3888-223.50848-267.68384-405.504-267.68384C268.55424 71.18848 71.19872 268.544 71.19872 512c0 181.99552 110.29504 338.2272 267.68384 405.504a526.6432 526.6432 0 0 0 61.29664 3.57376c287.6928 0 520.91904-233.22624 520.91904-520.91904z" fill="#CAEAFF" p-id="3151"></path><path d="M613.69344 215.12192c10.01472 0 19.93728 0.37888 29.76768 1.09568-40.17152-17.87904-84.65408-27.83232-131.46112-27.83232-178.72896 0-323.61472 144.88576-323.61472 323.61472 0 46.80704 9.95328 91.2896 27.83232 131.46112-0.72704-9.8304-1.09568-19.75296-1.09568-29.76768 0-220.12928 178.44224-398.57152 398.57152-398.57152z" fill="#FFD14F" p-id="3152"></path><path d="M512 835.61472c178.72896 0 323.61472-144.88576 323.61472-323.61472 0-131.92192-78.94016-245.39136-192.1536-295.7824-9.8304-0.72704-19.75296-1.09568-29.76768-1.09568-220.12928 0-398.57152 178.44224-398.57152 398.57152 0 10.01472 0.37888 19.93728 1.09568 29.76768C266.60864 756.67456 380.07808 835.61472 512 835.61472z" fill="#FF9640" p-id="3153"></path><path d="M235.38688 646.44096l-2.02752-0.49152c-2.41664 3.19488-4.62848 6.8608-6.63552 10.88512h289.93536c2.00704-4.02432 4.22912-7.69024 6.64576-10.88512l-5.71392 10.88512h279.68512c-2.01728-4.03456-4.23936-7.70048-6.656-10.9056l-3.34848 2.02752c9.82016-10.63936 17.18272-28.17024 20.14208-48.98816l-591.38048-4.36224c2.39616 21.74976 9.54368 40.2944 19.3536 51.82464z" fill="#FFCAB3" p-id="3154"></path><path d="M512.48128 666.58304c1.25952-3.45088 2.6624-6.69696 4.17792-9.74848H226.72384c-7.168 14.35648-11.5712 33.50528-11.5712 54.5792 0 5.28384 0.28672 10.45504 0.80896 15.45216l591.54432 4.36224c0.8704-6.33856 1.3312-12.97408 1.3312-19.8144 0-21.06368-4.39296-40.22272-11.5712-54.5792H517.5808l-5.12 9.74848zM258.77504 791.95136h216.50432c3.9936 0 7.85408-0.99328 11.53024-2.85696H247.26528c3.66592 1.8432 7.5264 2.85696 11.50976 2.85696zM548.72064 791.95136h216.50432c3.98336 0 7.84384-1.00352 11.50976-2.85696H536.87296c4.07552 1.8432 8.11008 2.85696 11.84768 2.85696z" fill="#FDEBDF" p-id="3155"></path><path d="M247.26528 789.0944H486.8096c8.99072-4.54656 16.81408-14.25408 22.48704-27.31008 6.64576 12.5952 17.23392 22.6304 27.56608 27.31008h239.86176c15.09376-7.60832 26.9312-29.78816 30.7712-57.86624l-591.54432-4.36224c3.1744 30.11584 15.43168 54.23104 31.30368 62.22848z" fill="#FFCAB3" p-id="3156"></path><path d="M808.84736 312.58624c0-44.48256-19.52768-80.5376-43.6224-80.5376H548.72064c-15.0528 0-28.33408 14.08-36.16768 35.51232v3.16416c-7.65952-23.18336-21.48352-38.66624-37.2736-38.66624H258.77504c-24.09472 0-43.6224 36.05504-43.6224 80.5376 0 5.79584 0.33792 11.43808 0.96256 16.88576l591.18592 4.36224c1.00352-6.76864 1.536-13.88544 1.536-21.248zM512.65536 400.22016c1.10592-2.99008 2.31424-5.8368 3.62496-8.51968H226.3552c-6.95296 14.26432-11.19232 33.1264-11.19232 53.83168 0 5.77536 0.33792 11.39712 0.96256 16.82432l591.19616 4.36224c0.99328-6.74816 1.52576-13.85472 1.52576-21.18656 0-20.70528-4.23936-39.56736-11.19232-53.83168H517.15072l-4.49536 8.51968z" fill="#FDEBDF" p-id="3157"></path><path d="M786.74944 382.62784c9.96352-10.45504 17.47968-27.93472 20.56192-48.7936l-591.18592-4.36224c2.49856 21.56544 9.66656 39.92576 19.456 51.3024l-2.32448-0.5632c-2.51904 3.35872-4.82304 7.22944-6.90176 11.48928h289.92512c2.07872-4.25984 4.39296-8.12032 6.912-11.48928l-6.05184 11.48928h280.50432c-2.07872-4.25984-4.38272-8.12032-6.90176-11.47904l-4.00384 2.41664zM235.95008 514.16064l-2.94912-0.67584c-2.4064 3.26656-4.61824 7.00416-6.62528 11.08992h289.93536c1.9968-4.096 4.21888-7.82336 6.63552-11.08992l-5.77536 11.08992h280.45312c-2.08896-4.28032-4.41344-8.16128-6.95296-11.53024l-3.60448 2.17088c9.80992-10.50624 17.2032-27.8528 20.24448-48.50688l-591.19616-4.36224c2.51904 21.87264 9.84064 40.45824 19.83488 51.80416z" fill="#FFCAB3" p-id="3158"></path><path d="M512.54272 533.4528c1.14688-3.1232 2.4064-6.08256 3.76832-8.87808H226.38592c-6.97344 14.27456-11.22304 33.15712-11.22304 53.89312 0 5.5296 0.3072 10.92608 0.88064 16.13824l591.38048 4.36224c0.93184-6.54336 1.4336-13.4144 1.4336-20.50048 0-20.736-4.2496-39.61856-11.22304-53.89312H517.18144l-4.61824 8.87808zM517.14048 391.70048h-0.86016c-1.31072 2.68288-2.51904 5.5296-3.62496 8.51968l4.49536-8.51968z" fill="#FDEBDF" p-id="3159"></path><path d="M523.19232 380.2112c-2.51904 3.36896-4.84352 7.2192-6.912 11.48928h0.86016l6.05184-11.48928zM522.94656 513.4848c-2.41664 3.26656-4.63872 6.99392-6.63552 11.08992h0.84992l5.77536-11.08992zM517.1712 524.58496h-0.84992a93.999104 93.999104 0 0 0-3.76832 8.87808l4.61824-8.87808zM517.59104 656.83456h-0.93184a90.294272 90.294272 0 0 0-4.17792 9.74848l5.12-9.74848zM523.30496 645.94944c-2.41664 3.20512-4.63872 6.8608-6.64576 10.88512h0.93184l5.71392-10.88512z" fill="#FDEBDF" p-id="3160"></path><path d="M447.76448 394.5472s-43.17184-9.74848-43.17184-81.73568 43.17184-80.77312 43.17184-80.77312l-108.60544-0.96256s44.00128 10.93632 44.00128 81.73568-44.00128 81.73568-44.00128 81.73568h33.37216c6.12352 12.00128 10.62912 28.50816 10.62912 51.1488 0 70.79936-44.00128 81.73568-44.00128 81.73568h34.41664c5.5808 11.79648 9.58464 27.68896 9.58464 49.01888 0 70.79936-44.00128 81.73568-44.00128 81.73568h33.61792c5.9904 11.96032 10.37312 28.32384 10.37312 50.65728 0 70.79936-44.00128 81.73568-44.00128 81.73568h108.60544s-43.17184-9.74848-43.17184-81.73568c0-22.51776 4.22912-38.84032 10.0352-50.65728h33.13664s-43.17184-9.74848-43.17184-81.73568c0-21.504 3.86048-37.34528 9.25696-49.01888h33.90464s-43.17184-9.74848-43.17184-81.73568c0-22.8352 4.352-39.30112 10.28096-51.1488h32.88064z" fill="#C48762" p-id="3161"></path><path d="M370.103296 253.773824l20.59264 5.82656-5.82656 20.593664-20.593664-5.82656zM760.832 438.132736l13.082624 16.937984-16.937984 13.0816-13.0816-16.93696zM461.991936 436.727808l13.0816 16.93696-16.937984 13.082624-13.0816-16.937984zM390.731776 473.001984l13.0816 16.937984-16.93696 13.0816-13.082624-16.93696zM615.419904 538.382336l13.0816 16.93696-16.937984 13.082624-13.082624-16.937984zM477.003776 578.956288l13.0816 16.937984-16.93696 13.0816-13.082624-16.93696zM638.5408 610.59072l13.082624 16.93696-16.937984 13.082624-13.082624-16.937984zM609.241088 663.979008l13.0816 16.937984-16.93696 13.0816-13.082624-16.93696zM477.353984 694.234112l-1.41824 21.354496-21.354496-1.41824 1.41824-21.35552z" fill="#E01E22" p-id="3162"></path><path d="M409.500672 356.503552l17.70496-20.07552 12.034048 10.61376-17.70496 20.07552zM701.228032 260.865024l24.425472 10.95168-6.565888 14.641152-24.424448-10.950656zM629.839872 480.574464l24.424448 10.95168-6.56384 14.641152-24.425472-10.950656zM452.299776 487.329792l24.424448 10.95168-6.564864 14.641152-24.425472-10.950656zM438.853632 617.1904l-16.183296 21.321728-12.781568-9.701376 16.183296-21.321728z" fill="#68E077" p-id="3163"></path><path d="M737.14688 394.5472s-43.17184-9.74848-43.17184-81.73568 43.17184-80.77312 43.17184-80.77312l-108.60544-0.96256s44.00128 10.93632 44.00128 81.73568-44.00128 81.73568-44.00128 81.73568h33.37216c6.12352 12.00128 10.62912 28.50816 10.62912 51.1488 0 70.79936-44.00128 81.73568-44.00128 81.73568h34.41664c5.5808 11.79648 9.58464 27.68896 9.58464 49.01888 0 70.79936-44.00128 81.73568-44.00128 81.73568h33.61792c5.9904 11.96032 10.37312 28.32384 10.37312 50.65728 0 70.79936-44.00128 81.73568-44.00128 81.73568h108.60544s-43.17184-9.74848-43.17184-81.73568c0-22.51776 4.22912-38.84032 10.0352-50.65728h33.13664s-43.17184-9.74848-43.17184-81.73568c0-21.504 3.86048-37.34528 9.25696-49.01888h33.90464s-43.17184-9.74848-43.17184-81.73568c0-22.8352 4.352-39.30112 10.28096-51.1488h32.88064z" fill="#C48762" p-id="3164"></path><path d="M663.340032 342.667264l13.0816 16.939008-16.93696 13.0816-13.082624-16.937984z" fill="#E01E22" p-id="3165"></path><path d="M706.655232 601.112576l-16.183296 21.320704-12.781568-9.701376 16.183296-21.31968zM655.675392 746.094592l21.320704 16.18432-9.701376 12.780544-21.320704-16.183296z" fill="#68E077" p-id="3166"></path><path d="M291.77856 336.896l-19.69152 1.5872-17.82784 17.82784-21.80096 7.40352s2.24256 10.43456 10.04544 17.43872 23.25504 10.86464 37.91872-9.56416 11.3664-34.70336 11.3664-34.70336z" fill="#FFAD47" p-id="3167"></path><path d="M265.78944 329.23648a12.11392 10.7008 0 1 0 24.22784 0 12.11392 10.7008 0 1 0-24.22784 0Z" fill="#FFD14F" p-id="3168"></path><path d="M239.88224 250.96192l10.78272 11.35616s12.05248-1.71008 21.15584 4.67968c8.43776 5.91872 14.04928 19.61984 12.10368 28.11904-4.0448 17.664-11.97056 22.23104-11.97056 22.23104s7.39328 0.39936 12.34944 2.10944 8.96 5.6832 8.96 5.6832 3.6864-14.6944 1.14688-30.39232c-3.9424-24.35072-16.35328-53.82144-30.45376-55.3984-23.18336-2.60096-24.07424 11.61216-24.07424 11.61216z" fill="#68E077" p-id="3169"></path><path d="M226.7648 282.19392c17.83808 5.15072 20.13184-6.73792 20.13184-6.73792s-0.45056-5.41696 1.26976-9.1136 0-6.64576 0-6.64576l-11.33568-10.52672s-8.87808 16.78336-9.54368 22.33344-0.53248 10.7008-0.53248 10.7008z" fill="#FFD14F" p-id="3170"></path><path d="M228.352 351.36512a13.47584 9.7792 0 1 0 26.95168 0 13.47584 9.7792 0 1 0-26.95168 0Z" fill="#FFD14F" p-id="3171"></path><path d="M257.97632 385.51552v-27.84256l29.16352 2.67264s-5.55008 10.50624-11.88864 16.32256-17.27488 8.8576-17.27488 8.8576zM266.22976 330.15808c0.3072-4.49536 0-11.10016 0-11.10016s0.8704-24.08448-7.23968-30.75072c2.07872 8.32512-0.5632 15.2576-13.58848 17.52064-7.8336 1.36192-17.4592-1.59744-22.75328-3.59424-0.14336 1.87392-0.26624 3.91168-0.37888 6.12352-1.05472 22.58944 5.28384 38.97344 5.28384 38.97344l12.68736-11.93984 4.80256-2.53952 13.73184 16.19968 13.89568-10.15808s-6.7584-4.23936-6.4512-8.73472z" fill="#68E077" p-id="3172"></path><path d="M245.4016 305.82784c13.02528-2.2528 15.6672-9.19552 13.58848-17.52064-0.07168-0.06144-0.13312-0.12288-0.21504-0.18432-10.47552-8.04864-32.02048-6.8608-32.02048-6.8608s-2.78528 3.66592-4.10624 20.96128c5.28384 1.9968 14.91968 4.94592 22.75328 3.59424z" fill="#FFAD47" p-id="3173"></path><path d="M238.76608 315.53536c14.53056 9.09312 33.88416 4.096 42.0864-11.29472 6.94272-13.02528 3.11296-29.47072-8.86784-38.0928-4.73088-3.39968-10.05568-5.21216-15.40096-5.57056-5.00736-0.33792-9.3184 3.52256-9.55392 8.52992-0.2048 4.27008-0.13312 8.93952-0.03072 12.22656 0.07168 2.38592 1.72032 4.4032 4.03456 4.99712 4.80256 1.23904 11.65312 4.7104 5.44768 14.27456-3.00032 4.61824-8.79616 6.37952-14.03904 5.5296-3.55328-0.57344-7.02464-2.05824-9.87136-3.59424-2.24256-1.20832-4.61824 1.3824-3.26656 3.54304 2.32448 3.71712 5.49888 6.97344 9.46176 9.45152z" fill="#F06661" p-id="3174"></path><path d="M291.77856 475.74016l-19.69152 1.5872-17.82784 17.82784-21.80096 7.40352s2.24256 10.43456 10.04544 17.43872 23.25504 10.86464 37.91872-9.56416 11.3664-34.70336 11.3664-34.70336z" fill="#FFAD47" p-id="3175"></path><path d="M265.78944 468.08064a12.11392 10.7008 0 1 0 24.22784 0 12.11392 10.7008 0 1 0-24.22784 0Z" fill="#FFD14F" p-id="3176"></path><path d="M250.66496 401.16224s12.05248-1.71008 21.15584 4.67968c8.43776 5.91872 14.04928 19.61984 12.10368 28.11904-4.0448 17.664-11.97056 22.23104-11.97056 22.23104s7.39328 0.39936 12.34944 2.10944 8.96 5.6832 8.96 5.6832 3.6864-14.6944 1.14688-30.39232c-1.95584-12.09344-6.01088-25.45664-11.3152-36.03456-5.376-10.71104-32.44032 3.60448-32.44032 3.60448z" fill="#68E077" p-id="3177"></path><path d="M226.7648 421.04832c17.83808 5.15072 20.13184-6.73792 20.13184-6.73792s-0.45056-5.41696 1.26976-9.1136 0-6.64576 0-6.64576l-11.33568-10.52672s-8.87808 16.78336-9.54368 22.33344-0.53248 10.7008-0.53248 10.7008z" fill="#FFD14F" p-id="3178"></path><path d="M228.352 490.20928a13.47584 9.7792 0 1 0 26.95168 0 13.47584 9.7792 0 1 0-26.95168 0Z" fill="#FFD14F" p-id="3179"></path><path d="M257.97632 524.36992v-27.84256l29.16352 2.67264s-5.55008 10.50624-11.88864 16.32256c-6.33856 5.81632-17.27488 8.8576-17.27488 8.8576zM266.22976 469.00224c0.3072-4.49536 0-11.10016 0-11.10016s0.8704-24.08448-7.23968-30.75072c2.07872 8.32512-0.5632 15.2576-13.58848 17.52064-7.8336 1.36192-17.4592-1.59744-22.75328-3.59424-0.14336 1.87392-0.26624 3.91168-0.37888 6.12352-1.05472 22.58944 5.28384 38.97344 5.28384 38.97344l12.68736-11.93984 4.80256-2.53952 13.73184 16.19968 13.89568-10.15808s-6.7584-4.23936-6.4512-8.73472z" fill="#68E077" p-id="3180"></path><path d="M245.4016 444.672c13.02528-2.2528 15.6672-9.19552 13.58848-17.52064-0.07168-0.06144-0.13312-0.12288-0.21504-0.18432-10.47552-8.04864-32.02048-6.8608-32.02048-6.8608s-2.78528 3.66592-4.10624 20.96128c5.28384 1.9968 14.91968 4.94592 22.75328 3.59424z" fill="#FFAD47" p-id="3181"></path><path d="M238.76608 454.38976c14.53056 9.09312 33.88416 4.096 42.0864-11.29472 6.94272-13.02528 3.11296-29.47072-8.86784-38.0928-4.73088-3.39968-10.05568-5.21216-15.40096-5.57056-5.00736-0.33792-9.3184 3.52256-9.55392 8.52992-0.2048 4.27008-0.13312 8.93952-0.03072 12.22656 0.07168 2.38592 1.72032 4.4032 4.03456 4.99712 4.80256 1.23904 11.65312 4.7104 5.44768 14.27456-3.00032 4.61824-8.79616 6.37952-14.03904 5.5296-3.55328-0.57344-7.02464-2.05824-9.87136-3.59424-2.24256-1.20832-4.61824 1.3824-3.26656 3.54304 2.32448 3.71712 5.49888 6.97344 9.46176 9.45152z" fill="#F06661" p-id="3182"></path><path d="M291.77856 610.69312l-19.69152 1.5872-17.82784 17.82784-21.80096 7.40352s2.24256 10.43456 10.04544 17.43872 23.25504 10.86464 37.91872-9.56416 11.3664-34.70336 11.3664-34.70336z" fill="#FFAD47" p-id="3183"></path><path d="M265.78944 603.0336a12.11392 10.7008 0 1 0 24.22784 0 12.11392 10.7008 0 1 0-24.22784 0Z" fill="#FFD14F" p-id="3184"></path><path d="M250.66496 536.1152s12.05248-1.71008 21.15584 4.67968c8.43776 5.91872 14.04928 19.61984 12.10368 28.11904-4.0448 17.664-11.97056 22.23104-11.97056 22.23104s7.39328 0.39936 12.34944 2.10944c4.95616 1.72032 8.96 5.6832 8.96 5.6832s3.6864-14.6944 1.14688-30.39232c-2.02752-12.51328-6.28736-26.368-11.85792-37.10976-5.28384-10.16832-31.88736 4.67968-31.88736 4.67968z" fill="#68E077" p-id="3185"></path><path d="M226.7648 555.99104c17.83808 5.15072 20.13184-6.73792 20.13184-6.73792s-0.45056-5.41696 1.26976-9.1136 0-6.64576 0-6.64576l-11.33568-10.52672s-8.87808 16.78336-9.54368 22.33344-0.53248 10.7008-0.53248 10.7008z" fill="#FFD14F" p-id="3186"></path><path d="M228.352 625.16224a13.47584 9.7792 0 1 0 26.95168 0 13.47584 9.7792 0 1 0-26.95168 0Z" fill="#FFD14F" p-id="3187"></path><path d="M257.97632 659.31264v-27.84256l29.16352 2.67264s-5.55008 10.50624-11.88864 16.32256c-6.33856 5.81632-17.27488 8.8576-17.27488 8.8576zM266.22976 603.9552c0.3072-4.49536 0-11.10016 0-11.10016s0.8704-24.08448-7.23968-30.75072c2.07872 8.32512-0.5632 15.2576-13.58848 17.52064-7.8336 1.36192-17.4592-1.59744-22.75328-3.59424-0.14336 1.87392-0.26624 3.91168-0.37888 6.12352-1.05472 22.58944 5.28384 38.97344 5.28384 38.97344l12.68736-11.93984 4.80256-2.53952 13.73184 16.19968 13.89568-10.15808s-6.7584-4.23936-6.4512-8.73472z" fill="#68E077" p-id="3188"></path><path d="M245.4016 579.62496c13.02528-2.2528 15.6672-9.19552 13.58848-17.52064-0.07168-0.06144-0.13312-0.12288-0.21504-0.18432-10.47552-8.04864-32.02048-6.8608-32.02048-6.8608s-2.78528 3.66592-4.10624 20.96128c5.28384 1.9968 14.91968 4.94592 22.75328 3.59424z" fill="#FFAD47" p-id="3189"></path><path d="M238.76608 589.33248c14.53056 9.09312 33.88416 4.096 42.0864-11.29472 6.94272-13.02528 3.11296-29.47072-8.86784-38.0928-4.73088-3.39968-10.05568-5.21216-15.40096-5.57056-5.00736-0.33792-9.3184 3.52256-9.55392 8.52992-0.2048 4.27008-0.13312 8.93952-0.03072 12.22656 0.07168 2.38592 1.72032 4.4032 4.03456 4.99712 4.80256 1.23904 11.65312 4.7104 5.44768 14.27456-3.00032 4.61824-8.79616 6.37952-14.03904 5.5296-3.55328-0.57344-7.02464-2.05824-9.87136-3.59424-2.24256-1.20832-4.61824 1.3824-3.26656 3.54304 2.32448 3.71712 5.49888 6.97344 9.46176 9.45152z" fill="#F06661" p-id="3190"></path><path d="M291.77856 740.31104l-19.69152 1.5872-17.82784 17.82784-21.80096 7.40352s2.24256 10.43456 10.04544 17.43872 23.25504 10.86464 37.91872-9.56416 11.3664-34.70336 11.3664-34.70336z" fill="#FFAD47" p-id="3191"></path><path d="M265.78944 732.65152a12.11392 10.7008 0 1 0 24.22784 0 12.11392 10.7008 0 1 0-24.22784 0Z" fill="#FFD14F" p-id="3192"></path><path d="M250.66496 665.73312s12.05248-1.71008 21.15584 4.67968c8.43776 5.91872 14.04928 19.61984 12.10368 28.11904-4.0448 17.664-11.97056 22.23104-11.97056 22.23104s7.39328 0.39936 12.34944 2.10944c4.95616 1.72032 8.96 5.6832 8.96 5.6832s3.6864-14.6944 1.14688-30.39232c-1.80224-11.1616-5.39648-23.3984-10.10688-33.52576-5.57056-11.9808-33.64864 1.09568-33.64864 1.09568z" fill="#68E077" p-id="3193"></path><path d="M226.7648 685.60896c17.83808 5.15072 20.13184-6.73792 20.13184-6.73792s-0.45056-5.41696 1.26976-9.1136 0-6.64576 0-6.64576l-11.33568-10.52672s-8.87808 16.78336-9.54368 22.33344-0.53248 10.7008-0.53248 10.7008z" fill="#FFD14F" p-id="3194"></path><path d="M228.352 754.78016a13.47584 9.7792 0 1 0 26.95168 0 13.47584 9.7792 0 1 0-26.95168 0Z" fill="#FFD14F" p-id="3195"></path><path d="M257.97632 788.9408v-27.84256l29.16352 2.67264s-5.55008 10.50624-11.88864 16.32256c-6.33856 5.81632-17.27488 8.8576-17.27488 8.8576zM266.22976 733.57312c0.3072-4.49536 0-11.10016 0-11.10016s0.8704-24.08448-7.23968-30.75072c2.07872 8.32512-0.5632 15.2576-13.58848 17.52064-7.8336 1.36192-17.4592-1.59744-22.75328-3.59424-0.14336 1.87392-0.26624 3.91168-0.37888 6.12352-1.05472 22.58944 5.28384 38.97344 5.28384 38.97344l12.68736-11.93984 4.80256-2.53952 13.73184 16.19968 13.89568-10.15808s-6.7584-4.23936-6.4512-8.73472z" fill="#68E077" p-id="3196"></path><path d="M245.4016 709.24288c13.02528-2.2528 15.6672-9.19552 13.58848-17.52064-0.07168-0.06144-0.13312-0.12288-0.21504-0.18432-10.47552-8.04864-32.02048-6.8608-32.02048-6.8608s-2.78528 3.66592-4.10624 20.96128c5.28384 1.9968 14.91968 4.94592 22.75328 3.59424z" fill="#FFAD47" p-id="3197"></path><path d="M238.76608 718.96064c14.53056 9.09312 33.88416 4.096 42.0864-11.29472 6.94272-13.02528 3.11296-29.47072-8.86784-38.0928-4.73088-3.39968-10.05568-5.21216-15.40096-5.57056-5.00736-0.33792-9.3184 3.52256-9.55392 8.52992-0.2048 4.27008-0.13312 8.93952-0.03072 12.22656 0.07168 2.38592 1.72032 4.4032 4.03456 4.99712 4.80256 1.23904 11.65312 4.7104 5.44768 14.27456-3.00032 4.61824-8.79616 6.37952-14.03904 5.5296-3.55328-0.57344-7.02464-2.05824-9.87136-3.59424-2.24256-1.20832-4.61824 1.3824-3.26656 3.54304 2.32448 3.71712 5.49888 6.97344 9.46176 9.45152z" fill="#F06661" p-id="3198"></path><path d="M583.61856 336.896l-19.69152 1.5872-17.82784 17.82784-21.80096 7.40352s2.24256 10.43456 10.04544 17.43872 23.25504 10.86464 37.91872-9.56416 11.3664-34.70336 11.3664-34.70336z" fill="#FFAD47" p-id="3199"></path><path d="M557.62944 329.23648a12.11392 10.7008 0 1 0 24.22784 0 12.11392 10.7008 0 1 0-24.22784 0Z" fill="#FFD14F" p-id="3200"></path><path d="M531.73248 250.96192l10.78272 11.35616s12.05248-1.71008 21.15584 4.67968c8.43776 5.91872 14.04928 19.61984 12.10368 28.11904-4.0448 17.664-11.97056 22.23104-11.97056 22.23104s7.39328 0.39936 12.34944 2.10944 8.96 5.6832 8.96 5.6832 3.6864-14.6944 1.14688-30.39232c-3.9424-24.35072-16.35328-53.82144-30.45376-55.3984-23.18336-2.60096-24.07424 11.61216-24.07424 11.61216z" fill="#68E077" p-id="3201"></path><path d="M518.61504 282.19392c17.83808 5.15072 20.13184-6.73792 20.13184-6.73792s-0.45056-5.41696 1.26976-9.1136 0-6.64576 0-6.64576l-11.33568-10.52672s-8.87808 16.78336-9.54368 22.33344-0.53248 10.7008-0.53248 10.7008z" fill="#FFD14F" p-id="3202"></path><path d="M520.20224 351.36512a13.47584 9.7792 0 1 0 26.95168 0 13.47584 9.7792 0 1 0-26.95168 0Z" fill="#FFD14F" p-id="3203"></path><path d="M549.82656 385.51552v-27.84256l29.16352 2.67264s-5.55008 10.50624-11.88864 16.32256-17.27488 8.8576-17.27488 8.8576zM558.06976 330.15808c0.3072-4.49536 0-11.10016 0-11.10016s0.8704-24.08448-7.23968-30.75072c2.07872 8.32512-0.5632 15.2576-13.58848 17.52064-7.8336 1.36192-17.4592-1.59744-22.75328-3.59424-0.14336 1.87392-0.26624 3.91168-0.37888 6.12352-1.05472 22.58944 5.28384 38.97344 5.28384 38.97344l12.68736-11.93984 4.80256-2.53952 13.73184 16.19968 13.89568-10.15808s-6.7584-4.23936-6.4512-8.73472z" fill="#68E077" p-id="3204"></path><path d="M537.2416 305.82784c13.02528-2.2528 15.6672-9.19552 13.58848-17.52064-0.07168-0.06144-0.13312-0.12288-0.21504-0.18432-10.47552-8.04864-32.02048-6.8608-32.02048-6.8608s-2.78528 3.66592-4.10624 20.96128c5.28384 1.9968 14.91968 4.94592 22.75328 3.59424z" fill="#FFAD47" p-id="3205"></path><path d="M530.61632 315.53536c14.53056 9.09312 33.88416 4.096 42.0864-11.29472 6.94272-13.02528 3.11296-29.47072-8.86784-38.0928-4.73088-3.39968-10.05568-5.21216-15.40096-5.57056-5.00736-0.33792-9.3184 3.52256-9.55392 8.52992-0.2048 4.27008-0.13312 8.93952-0.03072 12.22656 0.07168 2.38592 1.72032 4.4032 4.03456 4.99712 4.80256 1.23904 11.65312 4.7104 5.44768 14.27456-3.00032 4.61824-8.79616 6.37952-14.03904 5.5296-3.55328-0.57344-7.02464-2.05824-9.87136-3.59424-2.24256-1.20832-4.61824 1.3824-3.26656 3.54304 2.32448 3.71712 5.49888 6.97344 9.46176 9.45152z" fill="#F06661" p-id="3206"></path><path d="M583.61856 475.74016l-19.69152 1.5872-17.82784 17.82784-21.80096 7.40352s2.24256 10.43456 10.04544 17.43872 23.25504 10.86464 37.91872-9.56416 11.3664-34.70336 11.3664-34.70336z" fill="#FFAD47" p-id="3207"></path><path d="M557.62944 468.08064a12.11392 10.7008 0 1 0 24.22784 0 12.11392 10.7008 0 1 0-24.22784 0Z" fill="#FFD14F" p-id="3208"></path><path d="M542.5152 401.16224s12.05248-1.71008 21.15584 4.67968c8.43776 5.91872 14.04928 19.61984 12.10368 28.11904-4.0448 17.664-11.97056 22.23104-11.97056 22.23104s7.39328 0.39936 12.34944 2.10944 8.96 5.6832 8.96 5.6832 3.6864-14.6944 1.14688-30.39232c-1.95584-12.09344-6.01088-25.45664-11.3152-36.03456-5.376-10.71104-32.44032 3.60448-32.44032 3.60448z" fill="#68E077" p-id="3209"></path><path d="M518.61504 421.04832c17.83808 5.15072 20.13184-6.73792 20.13184-6.73792s-0.45056-5.41696 1.26976-9.1136 0-6.64576 0-6.64576l-11.33568-10.52672s-8.87808 16.78336-9.54368 22.33344-0.53248 10.7008-0.53248 10.7008z" fill="#FFD14F" p-id="3210"></path><path d="M520.20224 490.20928a13.47584 9.7792 0 1 0 26.95168 0 13.47584 9.7792 0 1 0-26.95168 0Z" fill="#FFD14F" p-id="3211"></path><path d="M549.82656 524.36992v-27.84256l29.16352 2.67264s-5.55008 10.50624-11.88864 16.32256c-6.33856 5.81632-17.27488 8.8576-17.27488 8.8576zM558.06976 469.00224c0.3072-4.49536 0-11.10016 0-11.10016s0.8704-24.08448-7.23968-30.75072c2.07872 8.32512-0.5632 15.2576-13.58848 17.52064-7.8336 1.36192-17.4592-1.59744-22.75328-3.59424-0.14336 1.87392-0.26624 3.91168-0.37888 6.12352-1.05472 22.58944 5.28384 38.97344 5.28384 38.97344l12.68736-11.93984 4.80256-2.53952 13.73184 16.19968 13.89568-10.15808s-6.7584-4.23936-6.4512-8.73472z" fill="#68E077" p-id="3212"></path><path d="M537.2416 444.672c13.02528-2.2528 15.6672-9.19552 13.58848-17.52064-0.07168-0.06144-0.13312-0.12288-0.21504-0.18432-10.47552-8.04864-32.02048-6.8608-32.02048-6.8608s-2.78528 3.66592-4.10624 20.96128c5.28384 1.9968 14.91968 4.94592 22.75328 3.59424z" fill="#FFAD47" p-id="3213"></path><path d="M530.61632 454.38976c14.53056 9.09312 33.88416 4.096 42.0864-11.29472 6.94272-13.02528 3.11296-29.47072-8.86784-38.0928-4.73088-3.39968-10.05568-5.21216-15.40096-5.57056-5.00736-0.33792-9.3184 3.52256-9.55392 8.52992-0.2048 4.27008-0.13312 8.93952-0.03072 12.22656 0.07168 2.38592 1.72032 4.4032 4.03456 4.99712 4.80256 1.23904 11.65312 4.7104 5.44768 14.27456-3.00032 4.61824-8.79616 6.37952-14.03904 5.5296-3.55328-0.57344-7.02464-2.05824-9.87136-3.59424-2.24256-1.20832-4.61824 1.3824-3.26656 3.54304 2.32448 3.71712 5.49888 6.97344 9.46176 9.45152z" fill="#F06661" p-id="3214"></path><path d="M583.61856 610.69312l-19.69152 1.5872-17.82784 17.82784-21.80096 7.40352s2.24256 10.43456 10.04544 17.43872 23.25504 10.86464 37.91872-9.56416 11.3664-34.70336 11.3664-34.70336z" fill="#FFAD47" p-id="3215"></path><path d="M557.62944 603.0336a12.11392 10.7008 0 1 0 24.22784 0 12.11392 10.7008 0 1 0-24.22784 0Z" fill="#FFD14F" p-id="3216"></path><path d="M542.5152 536.1152s12.05248-1.71008 21.15584 4.67968c8.43776 5.91872 14.04928 19.61984 12.10368 28.11904-4.0448 17.664-11.97056 22.23104-11.97056 22.23104s7.39328 0.39936 12.34944 2.10944c4.95616 1.72032 8.96 5.6832 8.96 5.6832s3.6864-14.6944 1.14688-30.39232c-2.02752-12.51328-6.28736-26.368-11.85792-37.10976-5.28384-10.16832-31.88736 4.67968-31.88736 4.67968z" fill="#68E077" p-id="3217"></path><path d="M518.61504 555.99104c17.83808 5.15072 20.13184-6.73792 20.13184-6.73792s-0.45056-5.41696 1.26976-9.1136 0-6.64576 0-6.64576l-11.33568-10.52672s-8.87808 16.78336-9.54368 22.33344-0.53248 10.7008-0.53248 10.7008z" fill="#FFD14F" p-id="3218"></path><path d="M520.20224 625.16224a13.47584 9.7792 0 1 0 26.95168 0 13.47584 9.7792 0 1 0-26.95168 0Z" fill="#FFD14F" p-id="3219"></path><path d="M549.82656 659.31264v-27.84256l29.16352 2.67264s-5.55008 10.50624-11.88864 16.32256c-6.33856 5.81632-17.27488 8.8576-17.27488 8.8576zM558.06976 603.9552c0.3072-4.49536 0-11.10016 0-11.10016s0.8704-24.08448-7.23968-30.75072c2.07872 8.32512-0.5632 15.2576-13.58848 17.52064-7.8336 1.36192-17.4592-1.59744-22.75328-3.59424-0.14336 1.87392-0.26624 3.91168-0.37888 6.12352-1.05472 22.58944 5.28384 38.97344 5.28384 38.97344l12.68736-11.93984 4.80256-2.53952 13.73184 16.19968 13.89568-10.15808s-6.7584-4.23936-6.4512-8.73472z" fill="#68E077" p-id="3220"></path><path d="M537.2416 579.62496c13.02528-2.2528 15.6672-9.19552 13.58848-17.52064-0.07168-0.06144-0.13312-0.12288-0.21504-0.18432-10.47552-8.04864-32.02048-6.8608-32.02048-6.8608s-2.78528 3.66592-4.10624 20.96128c5.28384 1.9968 14.91968 4.94592 22.75328 3.59424z" fill="#FFAD47" p-id="3221"></path><path d="M530.61632 589.33248c14.53056 9.09312 33.88416 4.096 42.0864-11.29472 6.94272-13.02528 3.11296-29.47072-8.86784-38.0928-4.73088-3.39968-10.05568-5.21216-15.40096-5.57056-5.00736-0.33792-9.3184 3.52256-9.55392 8.52992-0.2048 4.27008-0.13312 8.93952-0.03072 12.22656 0.07168 2.38592 1.72032 4.4032 4.03456 4.99712 4.80256 1.23904 11.65312 4.7104 5.44768 14.27456-3.00032 4.61824-8.79616 6.37952-14.03904 5.5296-3.55328-0.57344-7.02464-2.05824-9.87136-3.59424-2.24256-1.20832-4.61824 1.3824-3.26656 3.54304 2.32448 3.71712 5.49888 6.97344 9.46176 9.45152z" fill="#F06661" p-id="3222"></path><path d="M583.61856 740.31104l-19.69152 1.5872-17.82784 17.82784-21.80096 7.40352s2.24256 10.43456 10.04544 17.43872 23.25504 10.86464 37.91872-9.56416 11.3664-34.70336 11.3664-34.70336z" fill="#FFAD47" p-id="3223"></path><path d="M557.62944 732.65152a12.11392 10.7008 0 1 0 24.22784 0 12.11392 10.7008 0 1 0-24.22784 0Z" fill="#FFD14F" p-id="3224"></path><path d="M542.5152 665.73312s12.05248-1.71008 21.15584 4.67968c8.43776 5.91872 14.04928 19.61984 12.10368 28.11904-4.0448 17.664-11.97056 22.23104-11.97056 22.23104s7.39328 0.39936 12.34944 2.10944c4.95616 1.72032 8.96 5.6832 8.96 5.6832s3.6864-14.6944 1.14688-30.39232c-1.80224-11.1616-5.39648-23.3984-10.10688-33.52576-5.57056-11.9808-33.64864 1.09568-33.64864 1.09568z" fill="#68E077" p-id="3225"></path><path d="M518.61504 685.60896c17.83808 5.15072 20.13184-6.73792 20.13184-6.73792s-0.45056-5.41696 1.26976-9.1136 0-6.64576 0-6.64576l-11.33568-10.52672s-8.87808 16.78336-9.54368 22.33344-0.53248 10.7008-0.53248 10.7008z" fill="#FFD14F" p-id="3226"></path><path d="M520.20224 754.78016a13.47584 9.7792 0 1 0 26.95168 0 13.47584 9.7792 0 1 0-26.95168 0Z" fill="#FFD14F" p-id="3227"></path><path d="M549.82656 788.9408v-27.84256l29.16352 2.67264s-5.55008 10.50624-11.88864 16.32256c-6.33856 5.81632-17.27488 8.8576-17.27488 8.8576zM558.06976 733.57312c0.3072-4.49536 0-11.10016 0-11.10016s0.8704-24.08448-7.23968-30.75072c2.07872 8.32512-0.5632 15.2576-13.58848 17.52064-7.8336 1.36192-17.4592-1.59744-22.75328-3.59424-0.14336 1.87392-0.26624 3.91168-0.37888 6.12352-1.05472 22.58944 5.28384 38.97344 5.28384 38.97344l12.68736-11.93984 4.80256-2.53952 13.73184 16.19968 13.89568-10.15808s-6.7584-4.23936-6.4512-8.73472z" fill="#68E077" p-id="3228"></path><path d="M537.2416 709.24288c13.02528-2.2528 15.6672-9.19552 13.58848-17.52064-0.07168-0.06144-0.13312-0.12288-0.21504-0.18432-10.47552-8.04864-32.02048-6.8608-32.02048-6.8608s-2.78528 3.66592-4.10624 20.96128c5.28384 1.9968 14.91968 4.94592 22.75328 3.59424z" fill="#FFAD47" p-id="3229"></path><path d="M530.61632 718.96064c14.53056 9.09312 33.88416 4.096 42.0864-11.29472 6.94272-13.02528 3.11296-29.47072-8.86784-38.0928-4.73088-3.39968-10.05568-5.21216-15.40096-5.57056-5.00736-0.33792-9.3184 3.52256-9.55392 8.52992-0.2048 4.27008-0.13312 8.93952-0.03072 12.22656 0.07168 2.38592 1.72032 4.4032 4.03456 4.99712 4.80256 1.23904 11.65312 4.7104 5.44768 14.27456-3.00032 4.61824-8.79616 6.37952-14.03904 5.5296-3.55328-0.57344-7.02464-2.05824-9.87136-3.59424-2.24256-1.20832-4.61824 1.3824-3.26656 3.54304 2.32448 3.71712 5.49888 6.97344 9.46176 9.45152z" fill="#F06661" p-id="3230"></path><path d="M764.49792 346.6752c-67.77856-25.36448-144.68096 0-144.68096 0s42.84416-17.83808 28.70272-19.94752-19.97824-17.3056-19.97824-17.3056 49.11104 7.92576 39.59808-3.24608c-8.00768-9.40032-6.69696-13.40416-6.69696-13.40416s50.33984 13.07648 97.51552-8.72448c0 0-38.81984 28.93824-52.16256 32.1024-7.28064 1.73056 15.0528 4.27008 32.768 12.02176 14.76608 6.46144 24.94464 18.49344 24.94464 18.49344zM475.11552 346.6752c-67.77856-25.36448-144.68096 0-144.68096 0s42.84416-17.83808 28.70272-19.94752-19.97824-17.3056-19.97824-17.3056 49.11104 7.92576 39.59808-3.24608c-8.00768-9.40032-6.69696-13.40416-6.69696-13.40416s50.33984 13.07648 97.51552-8.72448c0 0-38.81984 28.93824-52.16256 32.1024-7.28064 1.73056 15.0528 4.27008 32.768 12.02176 14.76608 6.46144 24.94464 18.49344 24.94464 18.49344zM764.49792 480.38912c-67.77856-25.36448-144.68096 0-144.68096 0s42.84416-17.83808 28.70272-19.94752-19.97824-17.3056-19.97824-17.3056 49.11104 7.92576 39.59808-3.24608c-8.00768-9.40032-6.69696-13.40416-6.69696-13.40416s50.33984 13.07648 97.51552-8.72448c0 0-38.81984 28.93824-52.16256 32.1024-7.28064 1.73056 15.0528 4.27008 32.768 12.02176 14.76608 6.46144 24.94464 18.49344 24.94464 18.49344zM475.11552 480.38912c-67.77856-25.36448-144.68096 0-144.68096 0s42.84416-17.83808 28.70272-19.94752-19.97824-17.3056-19.97824-17.3056 49.11104 7.92576 39.59808-3.24608c-8.00768-9.40032-6.69696-13.40416-6.69696-13.40416s50.33984 13.07648 97.51552-8.72448c0 0-38.81984 28.93824-52.16256 32.1024-7.28064 1.73056 15.0528 4.27008 32.768 12.02176 14.76608 6.46144 24.94464 18.49344 24.94464 18.49344zM764.49792 613.31456c-67.77856-25.36448-144.68096 0-144.68096 0s42.84416-17.83808 28.70272-19.94752c-14.14144-2.10944-19.97824-17.3056-19.97824-17.3056s49.11104 7.92576 39.59808-3.24608c-8.00768-9.40032-6.69696-13.40416-6.69696-13.40416s50.33984 13.07648 97.51552-8.72448c0 0-38.81984 28.93824-52.16256 32.1024-7.28064 1.73056 15.0528 4.27008 32.768 12.02176 14.76608 6.46144 24.94464 18.49344 24.94464 18.49344zM475.11552 613.31456c-67.77856-25.36448-144.68096 0-144.68096 0s42.84416-17.83808 28.70272-19.94752c-14.14144-2.10944-19.97824-17.3056-19.97824-17.3056s49.11104 7.92576 39.59808-3.24608c-8.00768-9.40032-6.69696-13.40416-6.69696-13.40416s50.33984 13.07648 97.51552-8.72448c0 0-38.81984 28.93824-52.16256 32.1024-7.28064 1.73056 15.0528 4.27008 32.768 12.02176 14.76608 6.46144 24.94464 18.49344 24.94464 18.49344zM764.49792 745.50272c-67.77856-25.36448-144.68096 0-144.68096 0s42.84416-17.83808 28.70272-19.94752c-14.14144-2.10944-19.97824-17.3056-19.97824-17.3056s49.11104 7.92576 39.59808-3.24608c-8.00768-9.40032-6.69696-13.40416-6.69696-13.40416s50.33984 13.07648 97.51552-8.72448c0 0-38.81984 28.93824-52.16256 32.1024-7.28064 1.73056 15.0528 4.27008 32.768 12.02176 14.76608 6.46144 24.94464 18.49344 24.94464 18.49344zM475.11552 745.50272c-67.77856-25.36448-144.68096 0-144.68096 0s42.84416-17.83808 28.70272-19.94752c-14.14144-2.10944-19.97824-17.3056-19.97824-17.3056s49.11104 7.92576 39.59808-3.24608c-8.00768-9.40032-6.69696-13.40416-6.69696-13.40416s50.33984 13.07648 97.51552-8.72448c0 0-38.81984 28.93824-52.16256 32.1024-7.28064 1.73056 15.0528 4.27008 32.768 12.02176 14.76608 6.46144 24.94464 18.49344 24.94464 18.49344z" fill="#B27350" p-id="3231"></path><path d="M512 963.05152c-60.88704 0-119.9616-11.9296-175.57504-35.45088-53.7088-22.72256-101.94944-55.2448-143.37024-96.6656-41.4208-41.4208-73.94304-89.66144-96.6656-143.37024-23.52128-55.61344-35.45088-114.688-35.45088-175.57504s11.9296-119.9616 35.45088-175.57504c22.72256-53.7088 55.2448-101.94944 96.6656-143.37024 41.4208-41.4208 89.66144-73.94304 143.37024-96.6656C392.0384 72.8576 451.11296 60.928 512 60.928s119.9616 11.9296 175.57504 35.45088c53.7088 22.72256 101.94944 55.23456 143.37024 96.6656 41.4208 41.4208 73.94304 89.66144 96.6656 143.37024 23.52128 55.61344 35.45088 114.688 35.45088 175.57504s-11.9296 119.9616-35.45088 175.57504c-22.72256 53.7088-55.2448 101.94944-96.6656 143.37024-41.4208 41.4208-89.66144 73.94304-143.37024 96.6656-55.61344 23.52128-114.688 35.45088-175.57504 35.45088z m0-881.63328c-237.42464 0-430.57152 193.15712-430.57152 430.57152S274.5856 942.56128 512 942.56128s430.57152-193.15712 430.57152-430.57152S749.42464 81.42848 512 81.42848z" p-id="3232"></path><path d="M672.77824 235.18208c-0.68608 0-1.39264-0.17408-2.03776-0.54272-48.08704-27.58656-102.97344-42.15808-158.74048-42.15808s-105.728 13.30176-152.1152 38.46144a4.096 4.096 0 0 1-5.55008-1.64864 4.096 4.096 0 0 1 1.64864-5.55008c47.58528-25.81504 101.53984-39.45472 156.02688-39.45472 57.1904 0 113.50016 14.9504 162.816 43.24352a4.091904 4.091904 0 0 1 1.51552 5.59104 4.094976 4.094976 0 0 1-3.55328 2.05824zM800.37888 663.10144c-0.62464 0-1.25952-0.14336-1.86368-0.45056-2.01728-1.024-2.816-3.50208-1.78176-5.50912 23.08096-45.19936 34.79552-94.03392 34.79552-145.14176s-11.66336-99.77856-34.67264-144.91648a4.096 4.096 0 0 1 1.792-5.50912c2.00704-1.03424 4.48512-0.22528 5.50912 1.792 23.6032 46.29504 35.57376 96.3072 35.57376 148.6336s-12.01152 102.51264-35.6864 148.86912a4.108288 4.108288 0 0 1-3.65568 2.23232zM512 839.71072c-56.53504 0-112.26112-14.63296-161.16736-42.30144a4.096 4.096 0 0 1 4.03456-7.12704c47.67744 26.9824 102.01088 41.24672 157.1328 41.24672s110.01856-14.40768 157.89056-41.66656a4.10624 4.10624 0 0 1 5.59104 1.536 4.10624 4.10624 0 0 1-1.536 5.59104C624.8448 824.95488 568.84224 839.7312 512 839.7312zM223.55968 662.97856c-1.49504 0-2.92864-0.8192-3.65568-2.23232-23.64416-46.32576-35.62496-96.37888-35.62496-148.74624s11.63264-100.9152 34.58048-146.688a4.099072 4.099072 0 0 1 5.49888-1.82272c2.01728 1.01376 2.83648 3.47136 1.82272 5.49888-22.3744 44.61568-33.71008 92.73344-33.71008 143.01184s11.68384 99.86048 34.73408 145.01888a4.10112 4.10112 0 0 1-3.64544 5.95968z" p-id="3233"></path><path d="M258.77504 403.36384c-15.58528 0-29.73696-10.28096-39.84384-28.94848-9.03168-16.68096-14.00832-38.63552-14.00832-61.82912s4.97664-45.13792 14.00832-61.82912c10.10688-18.66752 24.25856-28.94848 39.84384-28.94848s29.73696 10.28096 39.84384 28.94848c9.03168 16.68096 14.00832 38.63552 14.00832 61.82912s-4.97664 45.13792-14.00832 61.82912c-10.10688 18.66752-24.25856 28.94848-39.84384 28.94848z m0-161.0752c-15.79008 0-33.3824 28.86656-33.3824 70.2976s17.59232 70.2976 33.3824 70.2976 33.3824-28.86656 33.3824-70.2976-17.59232-70.2976-33.3824-70.2976z" p-id="3234"></path><path d="M475.27936 403.36384H258.77504c-5.65248 0-10.24-4.58752-10.24-10.24s4.58752-10.24 10.24-10.24h216.50432c15.79008 0 33.3824-28.86656 33.3824-70.2976s-17.59232-70.2976-33.3824-70.2976H258.77504c-5.65248 0-10.24-4.58752-10.24-10.24s4.58752-10.24 10.24-10.24h216.50432c15.58528 0 29.73696 10.28096 39.84384 28.94848 9.03168 16.68096 14.00832 38.63552 14.00832 61.82912s-4.97664 45.13792-14.00832 61.82912c-10.10688 18.66752-24.25856 28.94848-39.84384 28.94848z" p-id="3235"></path><path d="M258.77504 536.29952c-15.58528 0-29.73696-10.28096-39.84384-28.94848-9.03168-16.68096-14.00832-38.63552-14.00832-61.82912 0-28.33408 7.34208-54.3744 20.14208-71.45472 3.38944-4.52608 9.80992-5.44768 14.336-2.05824 4.52608 3.38944 5.44768 9.80992 2.05824 14.336-10.04544 13.4144-16.04608 35.5328-16.04608 59.17696 0 41.43104 17.59232 70.2976 33.3824 70.2976s33.3824-28.86656 33.3824-70.2976c0-17.152-3.18464-33.78176-8.97024-46.82752-2.29376-5.1712 0.04096-11.22304 5.21216-13.50656 5.1712-2.29376 11.22304 0.04096 13.50656 5.21216 7.0144 15.83104 10.73152 34.88768 10.73152 55.12192 0 23.18336-4.97664 45.13792-14.00832 61.82912-10.10688 18.66752-24.25856 28.94848-39.84384 28.94848z" p-id="3236"></path><path d="M475.27936 536.29952H258.77504c-5.65248 0-10.24-4.58752-10.24-10.24s4.58752-10.24 10.24-10.24h216.50432c15.79008 0 33.3824-28.86656 33.3824-70.2976 0-23.64416-6.00064-45.76256-16.04608-59.17696-3.38944-4.52608-2.46784-10.94656 2.05824-14.336 4.52608-3.38944 10.94656-2.46784 14.336 2.05824 12.8 17.08032 20.14208 43.12064 20.14208 71.45472 0 23.18336-4.97664 45.13792-14.00832 61.82912-10.10688 18.66752-24.25856 28.94848-39.84384 28.94848z" p-id="3237"></path><path d="M258.77504 669.24544c-15.58528 0-29.73696-10.28096-39.84384-28.94848-9.03168-16.68096-14.00832-38.63552-14.00832-61.82912 0-28.07808 7.23968-53.98528 19.84512-71.0656 3.35872-4.54656 9.76896-5.50912 14.31552-2.1504 4.54656 3.35872 5.50912 9.76896 2.1504 14.31552-9.92256 13.43488-15.84128 35.45088-15.84128 58.90048 0 41.43104 17.59232 70.2976 33.3824 70.2976s33.3824-28.86656 33.3824-70.2976c0-17.32608-3.24608-34.08896-9.13408-47.19616-2.31424-5.16096-0.02048-11.22304 5.14048-13.53728 5.16096-2.31424 11.22304-0.02048 13.53728 5.14048 7.15776 15.91296 10.93632 35.14368 10.93632 55.59296 0 23.18336-4.97664 45.13792-14.00832 61.82912-10.10688 18.66752-24.25856 28.94848-39.84384 28.94848z" p-id="3238"></path><path d="M475.27936 669.24544H258.77504c-5.65248 0-10.24-4.58752-10.24-10.24s4.58752-10.24 10.24-10.24h216.50432c15.79008 0 33.3824-28.86656 33.3824-70.2976 0-23.7056-6.02112-45.85472-16.11776-59.25888-3.39968-4.51584-2.49856-10.93632 2.01728-14.336 4.51584-3.39968 10.93632-2.49856 14.336 2.02752 12.86144 17.08032 20.23424 43.17184 20.23424 71.5776 0 23.18336-4.97664 45.13792-14.00832 61.82912-10.10688 18.66752-24.25856 28.94848-39.84384 28.94848z" p-id="3239"></path><path d="M258.77504 802.19136c-15.58528 0-29.73696-10.28096-39.84384-28.94848-9.03168-16.68096-14.00832-38.63552-14.00832-61.82912 0-28.44672 7.38304-54.54848 20.26496-71.6288 3.40992-4.51584 9.8304-5.41696 14.336-2.00704 4.51584 3.40992 5.41696 9.8304 2.00704 14.336-10.10688 13.40416-16.13824 35.56352-16.13824 59.29984 0 41.43104 17.59232 70.2976 33.3824 70.2976s33.3824-28.86656 33.3824-70.2976c0-17.28512-3.2256-34.00704-9.09312-47.104-2.31424-5.16096 0-11.22304 5.16096-13.52704 5.16096-2.31424 11.22304 0 13.52704 5.16096 7.1168 15.89248 10.87488 35.072 10.87488 55.47008 0 23.18336-4.97664 45.13792-14.00832 61.82912-10.10688 18.66752-24.25856 28.94848-39.84384 28.94848z" p-id="3240"></path><path d="M475.27936 802.19136H258.77504c-5.65248 0-10.24-4.58752-10.24-10.24s4.58752-10.24 10.24-10.24h216.50432c15.79008 0 33.3824-28.86656 33.3824-70.2976 0-23.74656-6.0416-45.91616-16.14848-59.31008-3.40992-4.51584-2.5088-10.93632 2.00704-14.34624s10.93632-2.5088 14.34624 2.00704c12.89216 17.08032 20.28544 43.19232 20.28544 71.64928 0 23.18336-4.97664 45.13792-14.00832 61.82912-10.10688 18.66752-24.25856 28.94848-39.84384 28.94848zM548.72064 403.36384c-19.05664 0-36.1984-15.86176-45.86496-42.4448-1.93536-5.31456 0.80896-11.19232 6.12352-13.12768 5.31456-1.93536 11.19232 0.80896 13.12768 6.12352 6.49216 17.85856 16.6912 28.95872 26.61376 28.95872 15.79008 0 33.3824-28.86656 33.3824-70.2976s-17.59232-70.2976-33.3824-70.2976c-9.8816 0-20.06016 11.02848-26.55232 28.78464-1.9456 5.31456-7.82336 8.0384-13.13792 6.0928-5.31456-1.9456-8.0384-7.82336-6.0928-13.13792 9.6768-26.43968 26.78784-42.22976 45.78304-42.22976 15.58528 0 29.73696 10.28096 39.84384 28.94848 9.03168 16.68096 14.00832 38.63552 14.00832 61.82912s-4.97664 45.13792-14.00832 61.82912c-10.10688 18.66752-24.25856 28.94848-39.84384 28.94848z" p-id="3241"></path><path d="M765.22496 403.36384H548.72064c-5.65248 0-10.24-4.58752-10.24-10.24s4.58752-10.24 10.24-10.24h216.50432c15.79008 0 33.3824-28.86656 33.3824-70.2976s-17.59232-70.2976-33.3824-70.2976H548.72064c-5.65248 0-10.24-4.58752-10.24-10.24s4.58752-10.24 10.24-10.24h216.50432c15.58528 0 29.73696 10.28096 39.84384 28.94848 9.03168 16.68096 14.00832 38.63552 14.00832 61.82912s-4.97664 45.13792-14.00832 61.82912c-10.10688 18.66752-24.25856 28.94848-39.84384 28.94848z" p-id="3242"></path><path d="M548.72064 536.29952c-19.05664 0-36.1984-15.86176-45.86496-42.4448-1.93536-5.31456 0.80896-11.19232 6.12352-13.12768 5.31456-1.93536 11.19232 0.80896 13.12768 6.12352 6.49216 17.85856 16.6912 28.95872 26.61376 28.95872 15.79008 0 33.3824-28.86656 33.3824-70.2976 0-17.152-3.18464-33.78176-8.97024-46.82752-2.29376-5.1712 0.04096-11.22304 5.21216-13.50656 5.1712-2.29376 11.22304 0.04096 13.50656 5.21216 7.0144 15.83104 10.73152 34.88768 10.73152 55.12192 0 23.18336-4.97664 45.13792-14.00832 61.82912-10.10688 18.66752-24.25856 28.94848-39.84384 28.94848zM512.65536 410.46016c-1.1776 0-2.37568-0.2048-3.54304-0.63488-5.30432-1.95584-8.01792-7.84384-6.06208-13.14816 3.21536-8.69376 7.22944-16.30208 11.95008-22.59968 3.38944-4.52608 9.80992-5.44768 14.336-2.05824 4.52608 3.38944 5.44768 9.80992 2.05824 14.336-3.5328 4.72064-6.6048 10.57792-9.13408 17.41824a10.236928 10.236928 0 0 1-9.60512 6.69696z" p-id="3243"></path><path d="M765.22496 536.29952H548.72064c-5.65248 0-10.24-4.58752-10.24-10.24s4.58752-10.24 10.24-10.24h216.50432c15.79008 0 33.3824-28.86656 33.3824-70.2976 0-23.64416-6.00064-45.76256-16.04608-59.17696-3.38944-4.52608-2.46784-10.94656 2.05824-14.336 4.52608-3.38944 10.94656-2.46784 14.336 2.05824 12.8 17.08032 20.14208 43.12064 20.14208 71.45472 0 23.18336-4.97664 45.13792-14.00832 61.82912-10.10688 18.66752-24.25856 28.94848-39.84384 28.94848z" p-id="3244"></path><path d="M548.72064 669.24544c-19.05664 0-36.1984-15.86176-45.86496-42.4448-1.93536-5.31456 0.80896-11.19232 6.12352-13.12768 5.31456-1.93536 11.19232 0.80896 13.12768 6.12352 6.49216 17.8688 16.6912 28.95872 26.61376 28.95872 15.79008 0 33.3824-28.86656 33.3824-70.2976 0-17.32608-3.24608-34.08896-9.13408-47.19616-2.31424-5.16096-0.02048-11.22304 5.14048-13.53728 5.16096-2.31424 11.22304-0.02048 13.53728 5.14048 7.15776 15.91296 10.93632 35.14368 10.93632 55.59296 0 23.18336-4.97664 45.13792-14.00832 61.82912-10.10688 18.66752-24.25856 28.94848-39.84384 28.94848zM512.54272 543.70304c-1.16736 0-2.3552-0.2048-3.51232-0.62464-5.31456-1.9456-8.0384-7.82336-6.10304-13.13792 3.16416-8.64256 7.12704-16.2304 11.78624-22.528 3.35872-4.54656 9.76896-5.50912 14.31552-2.1504 4.54656 3.35872 5.51936 9.76896 2.16064 14.31552-3.49184 4.73088-6.53312 10.58816-9.02144 17.408a10.244096 10.244096 0 0 1-9.61536 6.72768z" p-id="3245"></path><path d="M765.22496 669.24544H548.72064c-5.65248 0-10.24-4.58752-10.24-10.24s4.58752-10.24 10.24-10.24h216.50432c15.79008 0 33.3824-28.86656 33.3824-70.2976 0-23.7056-6.02112-45.85472-16.11776-59.25888-3.39968-4.51584-2.49856-10.93632 2.01728-14.336 4.51584-3.39968 10.93632-2.49856 14.336 2.02752 12.86144 17.08032 20.23424 43.17184 20.23424 71.5776 0 23.18336-4.97664 45.13792-14.00832 61.82912-10.10688 18.66752-24.25856 28.94848-39.84384 28.94848z" p-id="3246"></path><path d="M548.72064 802.19136c-19.05664 0-36.1984-15.872-45.86496-42.4448-1.93536-5.31456 0.80896-11.19232 6.12352-13.12768 5.31456-1.93536 11.19232 0.80896 13.12768 6.12352 6.49216 17.8688 16.6912 28.95872 26.61376 28.95872 15.79008 0 33.3824-28.86656 33.3824-70.2976 0-17.28512-3.2256-34.00704-9.09312-47.104-2.31424-5.16096 0-11.22304 5.16096-13.52704 5.16096-2.31424 11.22304 0 13.52704 5.16096 7.1168 15.89248 10.87488 35.072 10.87488 55.47008 0 23.18336-4.97664 45.13792-14.00832 61.82912-10.10688 18.66752-24.25856 28.94848-39.84384 28.94848zM512.47104 676.83328c-1.15712 0-2.34496-0.19456-3.50208-0.6144-5.31456-1.93536-8.05888-7.80288-6.12352-13.11744 3.26656-9.00096 7.40352-16.83456 12.27776-23.30624 3.40992-4.51584 9.8304-5.41696 14.336-2.00704 4.51584 3.40992 5.41696 9.8304 2.00704 14.336-3.64544 4.83328-6.8096 10.88512-9.37984 17.9712a10.252288 10.252288 0 0 1-9.6256 6.74816z" p-id="3247"></path><path d="M765.22496 802.19136H548.72064c-5.65248 0-10.24-4.58752-10.24-10.24s4.58752-10.24 10.24-10.24h216.50432c15.79008 0 33.3824-28.86656 33.3824-70.2976 0-23.74656-6.0416-45.91616-16.14848-59.31008-3.40992-4.51584-2.5088-10.93632 2.00704-14.34624s10.93632-2.5088 14.34624 2.00704c12.89216 17.08032 20.28544 43.19232 20.28544 71.64928 0 23.18336-4.97664 45.13792-14.00832 61.82912-10.10688 18.66752-24.25856 28.94848-39.84384 28.94848zM697.69216 300.82048c-21.11488 0-36.13696-3.7888-37.2736-4.08576a4.10624 4.10624 0 0 1-2.93888-4.99712 4.100096 4.100096 0 0 1 4.98688-2.93888c0.49152 0.12288 49.54112 12.43136 94.76096-8.46848 2.05824-0.95232 4.48512-0.0512 5.43744 1.9968 0.95232 2.05824 0.0512 4.48512-1.9968 5.43744-22.1696 10.25024-44.83072 13.056-62.98624 13.056zM764.49792 350.7712c-0.48128 0-0.96256-0.08192-1.4336-0.256-65.59744-24.54528-141.2096-0.19456-141.96736 0.0512-2.1504 0.70656-4.46464-0.4608-5.1712-2.6112-0.70656-2.1504 0.4608-4.46464 2.6112-5.1712 3.19488-1.05472 79.0528-25.52832 147.4048 0.0512 2.11968 0.78848 3.19488 3.15392 2.39616 5.2736-0.6144 1.64864-2.18112 2.6624-3.84 2.6624zM680.06912 320.24576h-0.04096c-40.7552-0.39936-52.38784-6.6048-53.57568-7.31136a4.092928 4.092928 0 0 1-1.4336-5.61152 4.093952 4.093952 0 0 1 5.56032-1.46432c0.32768 0.17408 11.47904 5.82656 49.54112 6.1952a4.096 4.096 0 0 1 4.05504 4.13696 4.092928 4.092928 0 0 1-4.096 4.05504zM408.29952 300.82048c-21.11488 0-36.13696-3.7888-37.2736-4.08576a4.10624 4.10624 0 0 1-2.93888-4.99712 4.096 4.096 0 0 1 4.98688-2.93888c0.49152 0.12288 49.54112 12.43136 94.76096-8.46848 2.048-0.95232 4.48512-0.0512 5.43744 1.9968 0.95232 2.05824 0.0512 4.48512-1.9968 5.43744-22.1696 10.25024-44.83072 13.056-62.98624 13.056zM475.11552 350.7712c-0.48128 0-0.96256-0.08192-1.4336-0.256-65.5872-24.54528-141.2096-0.19456-141.96736 0.0512-2.14016 0.70656-4.46464-0.4608-5.1712-2.6112-0.70656-2.1504 0.4608-4.46464 2.6112-5.1712 3.19488-1.05472 79.0528-25.52832 147.4048 0.0512 2.11968 0.78848 3.19488 3.15392 2.39616 5.2736-0.6144 1.64864-2.18112 2.6624-3.84 2.6624zM390.68672 320.24576h-0.04096c-40.7552-0.39936-52.38784-6.6048-53.57568-7.31136a4.092928 4.092928 0 0 1-1.4336-5.61152 4.093952 4.093952 0 0 1 5.56032-1.46432c0.31744 0.17408 11.4688 5.82656 49.54112 6.1952a4.096 4.096 0 0 1 4.05504 4.13696 4.092928 4.092928 0 0 1-4.096 4.05504zM697.69216 433.73568c-21.10464 0-36.13696-3.7888-37.2736-4.08576a4.10624 4.10624 0 0 1-2.93888-4.99712 4.110336 4.110336 0 0 1 4.99712-2.93888c0.63488 0.16384 49.6128 12.3904 94.76096-8.47872 2.05824-0.95232 4.48512-0.0512 5.43744 1.9968 0.95232 2.05824 0.0512 4.48512-1.9968 5.43744-22.1696 10.25024-44.83072 13.056-62.98624 13.056zM764.49792 483.69664c-0.48128 0-0.96256-0.08192-1.4336-0.256-65.59744-24.55552-141.2096-0.19456-141.96736 0.0512-2.1504 0.70656-4.46464-0.4608-5.1712-2.6112-0.70656-2.1504 0.4608-4.46464 2.6112-5.1712 3.19488-1.05472 79.0528-25.52832 147.4048 0.0512 2.11968 0.78848 3.19488 3.15392 2.39616 5.2736-0.6144 1.64864-2.18112 2.6624-3.84 2.6624zM680.06912 453.1712h-0.04096c-40.7552-0.39936-52.38784-6.6048-53.57568-7.31136a4.092928 4.092928 0 0 1-1.4336-5.61152 4.093952 4.093952 0 0 1 5.56032-1.46432c0.31744 0.17408 11.4688 5.82656 49.54112 6.1952a4.096 4.096 0 0 1 4.05504 4.13696 4.092928 4.092928 0 0 1-4.096 4.05504zM408.29952 433.73568c-21.10464 0-36.13696-3.7888-37.2736-4.08576-2.19136-0.57344-3.50208-2.80576-2.93888-4.99712s2.816-3.50208 4.99712-2.93888c0.63488 0.16384 49.6128 12.3904 94.76096-8.47872 2.048-0.95232 4.48512-0.0512 5.43744 1.9968 0.95232 2.05824 0.0512 4.48512-1.9968 5.43744-22.1696 10.25024-44.83072 13.056-62.98624 13.056zM475.11552 483.69664c-0.48128 0-0.96256-0.08192-1.4336-0.256-65.5872-24.54528-141.2096-0.19456-141.96736 0.0512-2.14016 0.70656-4.46464-0.4608-5.1712-2.6112-0.70656-2.1504 0.4608-4.46464 2.6112-5.1712 3.19488-1.05472 79.0528-25.52832 147.4048 0.0512 2.11968 0.78848 3.19488 3.15392 2.39616 5.2736-0.6144 1.64864-2.18112 2.6624-3.84 2.6624zM390.68672 453.1712h-0.04096c-40.7552-0.39936-52.38784-6.6048-53.57568-7.31136a4.092928 4.092928 0 0 1-1.4336-5.61152 4.093952 4.093952 0 0 1 5.56032-1.46432c0.32768 0.17408 11.47904 5.82656 49.54112 6.1952a4.096 4.096 0 0 1 4.05504 4.13696 4.092928 4.092928 0 0 1-4.096 4.05504z" p-id="3248"></path><path d="M697.69216 566.66112c-21.10464 0-36.13696-3.7888-37.2736-4.08576a4.10624 4.10624 0 0 1-2.93888-4.99712 4.110336 4.110336 0 0 1 4.99712-2.93888c0.63488 0.16384 49.6128 12.3904 94.76096-8.47872 2.05824-0.95232 4.48512-0.0512 5.43744 1.9968 0.95232 2.048 0.0512 4.48512-1.9968 5.43744-22.1696 10.25024-44.82048 13.056-62.98624 13.056zM764.49792 616.61184c-0.48128 0-0.96256-0.08192-1.4336-0.256-16.67072-6.23616-35.4304-9.87136-55.7568-10.78272a4.099072 4.099072 0 0 1-3.91168-4.28032c0.1024-2.26304 2.00704-4.01408 4.28032-3.91168 21.18656 0.95232 40.78592 4.75136 58.2656 11.29472 2.11968 0.78848 3.19488 3.15392 2.39616 5.2736-0.6144 1.64864-2.18112 2.6624-3.84 2.6624zM619.81696 616.61184a4.094976 4.094976 0 0 1-1.28-7.9872c1.16736-0.38912 29.05088-9.46176 66.36544-11.20256 2.26304-0.11264 4.17792 1.6384 4.28032 3.90144 0.1024 2.26304-1.6384 4.17792-3.90144 4.28032-36.13696 1.67936-63.90784 10.7008-64.18432 10.79296-0.43008 0.14336-0.86016 0.2048-1.28 0.2048zM680.06912 586.09664h-0.04096c-40.7552-0.39936-52.38784-6.6048-53.57568-7.31136a4.092928 4.092928 0 0 1-1.4336-5.61152 4.093952 4.093952 0 0 1 5.56032-1.46432c0.32768 0.17408 11.48928 5.82656 49.54112 6.1952a4.096 4.096 0 0 1 4.05504 4.13696 4.092928 4.092928 0 0 1-4.096 4.05504z" p-id="3249"></path><path d="M408.29952 566.66112c-21.10464 0-36.13696-3.7888-37.2736-4.08576-2.19136-0.57344-3.50208-2.80576-2.93888-4.99712s2.816-3.50208 4.99712-2.93888c0.63488 0.16384 49.6128 12.3904 94.76096-8.47872 2.048-0.95232 4.48512-0.0512 5.43744 1.9968 0.95232 2.048 0.0512 4.48512-1.9968 5.43744-22.1696 10.25024-44.82048 13.056-62.98624 13.056zM475.11552 616.61184c-0.48128 0-0.96256-0.08192-1.4336-0.256-65.5872-24.54528-141.2096-0.19456-141.96736 0.0512-2.14016 0.70656-4.46464-0.4608-5.1712-2.6112-0.70656-2.1504 0.4608-4.46464 2.6112-5.1712 3.19488-1.05472 79.0528-25.52832 147.4048 0.0512 2.11968 0.78848 3.19488 3.15392 2.39616 5.2736-0.6144 1.64864-2.18112 2.6624-3.84 2.6624zM390.68672 586.09664h-0.04096c-40.7552-0.39936-52.38784-6.6048-53.57568-7.31136a4.092928 4.092928 0 0 1-1.4336-5.61152 4.093952 4.093952 0 0 1 5.56032-1.46432c0.32768 0.17408 11.47904 5.82656 49.54112 6.1952a4.096 4.096 0 0 1 4.05504 4.13696 4.092928 4.092928 0 0 1-4.096 4.05504z" p-id="3250"></path><path d="M697.68192 699.58656c-21.11488 0-36.13696-3.7888-37.2736-4.08576-2.19136-0.57344-3.50208-2.80576-2.93888-4.99712s2.80576-3.50208 4.98688-2.93888c0.49152 0.12288 49.54112 12.43136 94.76096-8.47872 2.05824-0.95232 4.48512-0.0512 5.43744 1.9968 0.95232 2.048 0.0512 4.48512-1.9968 5.43744-22.1696 10.25024-44.83072 13.056-62.98624 13.056zM764.49792 749.53728c-0.48128 0-0.96256-0.08192-1.4336-0.256-65.59744-24.55552-141.2096-0.19456-141.96736 0.0512-2.1504 0.70656-4.46464-0.4608-5.1712-2.6112-0.70656-2.1504 0.4608-4.46464 2.6112-5.1712 3.19488-1.05472 79.0528-25.52832 147.4048 0.0512 2.11968 0.78848 3.19488 3.15392 2.39616 5.2736-0.6144 1.64864-2.18112 2.6624-3.84 2.6624zM680.06912 719.01184h-0.04096c-40.7552-0.39936-52.38784-6.6048-53.57568-7.31136a4.092928 4.092928 0 0 1-1.4336-5.61152 4.103168 4.103168 0 0 1 5.56032-1.46432c0.32768 0.17408 11.48928 5.82656 49.54112 6.1952a4.096 4.096 0 0 1 4.05504 4.13696 4.092928 4.092928 0 0 1-4.096 4.05504z" p-id="3251"></path><path d="M408.29952 699.58656c-21.11488 0-36.13696-3.7888-37.2736-4.08576a4.10624 4.10624 0 0 1-2.93888-4.99712 4.096 4.096 0 0 1 4.98688-2.93888c0.49152 0.12288 49.54112 12.43136 94.76096-8.47872 2.048-0.95232 4.48512-0.0512 5.43744 1.9968 0.95232 2.048 0.0512 4.48512-1.9968 5.43744-22.1696 10.25024-44.83072 13.056-62.98624 13.056zM475.11552 749.53728c-0.48128 0-0.96256-0.08192-1.4336-0.256-65.5872-24.55552-141.2096-0.19456-141.96736 0.0512-2.14016 0.70656-4.46464-0.4608-5.1712-2.6112-0.70656-2.1504 0.4608-4.46464 2.6112-5.1712 3.19488-1.05472 79.0528-25.52832 147.4048 0.0512 2.11968 0.78848 3.19488 3.15392 2.39616 5.2736-0.6144 1.64864-2.18112 2.6624-3.84 2.6624zM390.68672 719.01184h-0.04096c-40.7552-0.39936-52.38784-6.6048-53.57568-7.31136a4.092928 4.092928 0 0 1-1.4336-5.61152 4.103168 4.103168 0 0 1 5.56032-1.46432c0.32768 0.17408 11.47904 5.82656 49.54112 6.1952a4.096 4.096 0 0 1 4.05504 4.13696 4.092928 4.092928 0 0 1-4.096 4.05504z" p-id="3252"></path><path d="M254.58688 324.15744c-6.30784 0-12.57472-1.75104-17.99168-5.14048a33.5872 33.5872 0 0 1-10.77248-10.76224c-1.60768-2.58048-1.29024-5.80608 0.78848-8.01792 2.06848-2.2016 5.24288-2.72384 7.89504-1.29024 3.10272 1.66912 5.9904 2.73408 8.58112 3.15392 3.39968 0.55296 7.79264-0.37888 9.95328-3.71712 1.4848-2.29376 2.0992-4.22912 1.67936-5.30432-0.41984-1.08544-2.18112-2.11968-4.72064-2.77504-4.06528-1.04448-6.98368-4.67968-7.10656-8.84736-0.1024-3.26656-0.17408-8.09984 0.03072-12.544a12.92288 12.92288 0 0 1 4.36224-9.13408c2.64192-2.3552 6.0416-3.52256 9.56416-3.28704 6.28736 0.41984 12.34944 2.6112 17.52064 6.32832 13.68064 9.84064 18.0224 28.47744 10.09664 43.34592-4.48512 8.40704-12.00128 14.3872-21.16608 16.83456-2.85696 0.768-5.79584 1.13664-8.71424 1.13664z m-17.73568-15.24736c1.23904 1.1776 2.60096 2.23232 4.08576 3.15392 6.10304 3.81952 13.29152 4.89472 20.24448 3.03104 6.95296-1.85344 12.6464-6.38976 16.05632-12.77952 6.01088-11.264 2.72384-25.38496-7.64928-32.83968-3.93216-2.82624-8.51968-4.48512-13.28128-4.8128-1.31072-0.09216-2.57024 0.34816-3.56352 1.2288-0.98304 0.88064-1.56672 2.08896-1.62816 3.40992-0.19456 4.17792-0.12288 8.78592-0.03072 11.90912 0.02048 0.55296 0.39936 1.01376 0.96256 1.15712 5.30432 1.36192 8.86784 4.03456 10.31168 7.7312 1.45408 3.71712 0.62464 8.00768-2.44736 12.73856-3.66592 5.65248-10.77248 8.52992-18.13504 7.34208-1.59744-0.256-3.23584-0.68608-4.93568-1.25952z" p-id="3253"></path><path d="M257.97632 293.10976c-0.86016 0-1.73056-0.27648-2.47808-0.83968-1.81248-1.36192-2.14016-3.96288-0.78848-5.76512 0.5632-0.75776 5.95968-7.38304 18.93376-7.18848a4.096 4.096 0 0 1-0.0512 8.192h-0.41984c-8.57088 0-11.8272 3.82976-11.97056 3.9936a4.00896 4.00896 0 0 1-3.2256 1.60768zM266.22976 309.92384a4.10624 4.10624 0 0 1-2.85696-1.15712c-3.93216-3.82976-6.87104-4.05504-6.99392-4.06528h0.13312l-0.0512-8.192h0.02048c0.70656 0 6.25664 0.2048 12.60544 6.37952a4.094976 4.094976 0 0 1 0.07168 5.79584c-0.79872 0.82944-1.86368 1.23904-2.93888 1.23904zM277.90336 344.03328c-8.93952 0-16.20992-6.63552-16.20992-14.7968s7.2704-14.7968 16.20992-14.7968 16.20992 6.63552 16.20992 14.7968-7.2704 14.7968-16.20992 14.7968z m0-21.4016c-4.42368 0-8.01792 2.95936-8.01792 6.6048s3.59424 6.6048 8.01792 6.6048 8.01792-2.95936 8.01792-6.6048-3.59424-6.6048-8.01792-6.6048zM240.24064 339.49696c-1.024 0-2.05824-0.37888-2.84672-1.15712l-14.00832-13.568a4.098048 4.098048 0 0 1-0.50176-5.29408l6.33856-9.05216a4.091904 4.091904 0 0 1 5.70368-1.00352 4.091904 4.091904 0 0 1 1.00352 5.70368l-4.33152 6.18496 8.57088 8.30464 12.21632-12.4416a4.094976 4.094976 0 0 1 5.79584-0.0512c1.61792 1.5872 1.6384 4.17792 0.0512 5.79584l-15.06304 15.33952c-0.79872 0.8192-1.86368 1.2288-2.9184 1.2288zM250.66496 266.41408a4.06528 4.06528 0 0 1-2.9696-1.28l-9.10336-9.58464a4.083712 4.083712 0 0 1 0.1536-5.7856 4.096 4.096 0 0 1 5.79584 0.1536l9.10336 9.58464a4.083712 4.083712 0 0 1-0.1536 5.7856c-0.78848 0.74752-1.80224 1.1264-2.816 1.1264zM268.91264 267.13088c-1.8944 0-3.60448-1.3312-4.00384-3.25632l-4.22912-20.21376c-0.4608-2.21184 0.95232-4.38272 3.1744-4.84352s4.38272 0.95232 4.84352 3.1744l4.22912 20.21376c0.4608 2.21184-0.95232 4.38272-3.1744 4.84352-0.28672 0.06144-0.5632 0.09216-0.83968 0.09216zM234.91584 287.5904c-2.816 0-5.91872-0.48128-9.28768-1.45408a4.086784 4.086784 0 0 1-2.79552-5.0688 4.082688 4.082688 0 0 1 5.0688-2.79552c5.2736 1.52576 9.472 1.51552 12.1344-0.04096 2.304-1.35168 2.83648-3.52256 2.85696-3.61472 0.43008-2.22208 2.57024-3.6352 4.79232-3.20512 2.22208 0.43008 3.66592 2.6112 3.23584 4.83328-0.11264 0.57344-1.2288 5.67296-6.49216 8.89856-2.67264 1.6384-5.85728 2.4576-9.51296 2.4576z" p-id="3254"></path><path d="M258.77504 353.14688c-1.16736 0-2.31424-0.49152-3.1232-1.44384l-12.65664-14.92992a4.10112 4.10112 0 0 1 0.47104-5.77536 4.10112 4.10112 0 0 1 5.77536 0.47104l10.19904 12.02176 10.82368-7.91552c1.82272-1.3312 4.39296-0.94208 5.72416 0.89088 1.3312 1.82272 0.94208 4.39296-0.89088 5.72416l-13.89568 10.16832c-0.72704 0.53248-1.57696 0.78848-2.41664 0.78848zM294.42048 298.17856c-0.19456 0-0.39936-0.01024-0.59392-0.04096l-7.2704-1.05472a4.089856 4.089856 0 0 1-3.46112-4.63872c0.32768-2.24256 2.4064-3.7888 4.63872-3.46112l7.2704 1.05472c2.24256 0.32768 3.7888 2.4064 3.46112 4.63872-0.29696 2.03776-2.048 3.50208-4.0448 3.50208z" p-id="3255"></path><path d="M241.82784 365.24032c-9.85088 0-17.57184-6.0928-17.57184-13.8752s7.72096-13.8752 17.57184-13.8752 17.57184 6.0928 17.57184 13.8752-7.72096 13.8752-17.57184 13.8752z m0-19.5584c-5.5296 0-9.37984 2.99008-9.37984 5.6832s3.85024 5.6832 9.37984 5.6832 9.37984-2.99008 9.37984-5.6832-3.85024-5.6832-9.37984-5.6832z" p-id="3256"></path><path d="M257.97632 389.61152c-2.26304 0-4.096-1.83296-4.096-4.096v-27.84256a4.094976 4.094976 0 0 1 4.46464-4.07552l29.16352 2.67264c2.2528 0.2048 3.91168 2.2016 3.70688 4.4544-0.2048 2.2528-2.22208 3.91168-4.4544 3.70688l-24.69888-2.26304v23.35744c0 2.26304-1.83296 4.096-4.096 4.096z" p-id="3257"></path><path d="M255.3344 463.12448c-6.30784 0-12.56448-1.75104-17.99168-5.14048a33.5872 33.5872 0 0 1-10.77248-10.76224c-1.60768-2.58048-1.29024-5.80608 0.78848-8.01792 2.06848-2.2016 5.24288-2.72384 7.89504-1.29024 3.10272 1.66912 5.9904 2.73408 8.58112 3.15392 3.38944 0.55296 7.79264-0.37888 9.95328-3.71712 1.4848-2.29376 2.0992-4.22912 1.67936-5.30432-0.41984-1.08544-2.18112-2.11968-4.72064-2.77504-4.06528-1.04448-6.98368-4.67968-7.10656-8.84736-0.1024-3.26656-0.17408-8.09984 0.03072-12.544a12.92288 12.92288 0 0 1 4.36224-9.13408c2.64192-2.3552 6.03136-3.52256 9.56416-3.28704 6.28736 0.41984 12.34944 2.6112 17.52064 6.32832 13.68064 9.84064 18.0224 28.47744 10.09664 43.34592-4.48512 8.40704-12.00128 14.3872-21.16608 16.83456-2.85696 0.768-5.79584 1.13664-8.71424 1.13664z m-13.64992-12.09344c6.10304 3.80928 13.29152 4.89472 20.24448 3.03104 6.95296-1.85344 12.6464-6.4 16.05632-12.77952 6.01088-11.264 2.72384-25.38496-7.64928-32.83968a25.736192 25.736192 0 0 0-13.28128-4.8128 4.864 4.864 0 0 0-3.56352 1.2288c-0.98304 0.88064-1.56672 2.08896-1.62816 3.40992-0.19456 4.17792-0.12288 8.78592-0.03072 11.90912 0.02048 0.55296 0.39936 1.01376 0.96256 1.15712 5.30432 1.36192 8.86784 4.03456 10.31168 7.7312 1.45408 3.71712 0.62464 8.00768-2.44736 12.73856-3.66592 5.65248-10.78272 8.52992-18.13504 7.34208-1.59744-0.256-3.24608-0.68608-4.93568-1.25952 1.23904 1.1776 2.60096 2.23232 4.08576 3.15392z" p-id="3258"></path><path d="M258.72384 432.0768c-0.86016 0-1.73056-0.27648-2.47808-0.83968-1.81248-1.36192-2.14016-3.96288-0.78848-5.76512 0.5632-0.74752 5.7856-7.18848 18.45248-7.18848h0.48128a4.096 4.096 0 0 1-0.0512 8.192h-0.43008c-8.57088 0-11.8272 3.82976-11.97056 3.9936a4.00896 4.00896 0 0 1-3.2256 1.60768zM266.97728 448.89088a4.10624 4.10624 0 0 1-2.85696-1.15712c-3.93216-3.82976-6.87104-4.05504-6.99392-4.06528h0.13312l-0.0512-8.192c0.6144 0.01024 6.21568 0.14336 12.62592 6.37952a4.094976 4.094976 0 0 1 0.07168 5.79584c-0.79872 0.82944-1.86368 1.23904-2.93888 1.23904zM278.65088 483.00032c-8.93952 0-16.20992-6.63552-16.20992-14.7968s7.2704-14.7968 16.20992-14.7968 16.20992 6.63552 16.20992 14.7968-7.2704 14.7968-16.20992 14.7968z m0-21.4016c-4.42368 0-8.01792 2.95936-8.01792 6.6048s3.59424 6.6048 8.01792 6.6048 8.01792-2.95936 8.01792-6.6048-3.59424-6.6048-8.01792-6.6048zM240.98816 478.464c-1.024 0-2.05824-0.37888-2.84672-1.15712l-14.00832-13.568a4.098048 4.098048 0 0 1-0.50176-5.29408l6.33856-9.05216a4.089856 4.089856 0 0 1 5.70368-1.00352 4.091904 4.091904 0 0 1 1.00352 5.70368l-4.33152 6.18496 8.57088 8.30464 12.21632-12.4416a4.094976 4.094976 0 0 1 5.79584-0.0512c1.61792 1.5872 1.6384 4.17792 0.0512 5.79584l-15.06304 15.33952c-0.79872 0.8192-1.86368 1.2288-2.9184 1.2288zM251.41248 405.38112a4.06528 4.06528 0 0 1-2.9696-1.28l-9.10336-9.58464a4.083712 4.083712 0 0 1 0.1536-5.7856c1.6384-1.55648 4.22912-1.4848 5.79584 0.1536l9.10336 9.58464a4.083712 4.083712 0 0 1-0.1536 5.7856c-0.78848 0.74752-1.80224 1.1264-2.816 1.1264zM269.66016 406.09792c-1.8944 0-3.60448-1.3312-4.00384-3.25632l-1.85344-8.87808c-0.4608-2.21184 0.95232-4.38272 3.1744-4.84352a4.08576 4.08576 0 0 1 4.84352 3.1744l1.85344 8.87808c0.4608 2.21184-0.95232 4.38272-3.1744 4.84352-0.28672 0.06144-0.5632 0.09216-0.83968 0.09216zM235.66336 426.55744c-2.816 0-5.91872-0.48128-9.28768-1.45408a4.086784 4.086784 0 0 1-2.79552-5.0688 4.086784 4.086784 0 0 1 5.0688-2.79552c5.2736 1.52576 9.472 1.51552 12.1344-0.04096 2.304-1.35168 2.83648-3.52256 2.85696-3.61472 0.43008-2.22208 2.57024-3.6352 4.79232-3.20512 2.22208 0.43008 3.66592 2.6112 3.23584 4.83328-0.11264 0.57344-1.2288 5.67296-6.49216 8.89856-2.67264 1.6384-5.85728 2.4576-9.51296 2.4576z" p-id="3259"></path><path d="M259.52256 492.11392c-1.16736 0-2.31424-0.49152-3.1232-1.44384l-12.65664-14.92992a4.10112 4.10112 0 0 1 0.47104-5.77536 4.10112 4.10112 0 0 1 5.77536 0.47104l10.19904 12.02176 10.82368-7.91552c1.82272-1.3312 4.39296-0.94208 5.72416 0.89088 1.3312 1.82272 0.94208 4.39296-0.89088 5.72416l-13.89568 10.15808c-0.72704 0.53248-1.57696 0.78848-2.41664 0.78848zM295.168 437.15584c-0.19456 0-0.39936-0.01024-0.59392-0.04096l-7.2704-1.05472a4.089856 4.089856 0 0 1-3.46112-4.63872c0.32768-2.24256 2.4064-3.7888 4.63872-3.46112l7.2704 1.05472c2.24256 0.32768 3.7888 2.4064 3.46112 4.63872-0.29696 2.03776-2.048 3.50208-4.0448 3.50208z" p-id="3260"></path><path d="M242.57536 504.20736c-9.85088 0-17.57184-6.0928-17.57184-13.8752s7.72096-13.8752 17.57184-13.8752 17.57184 6.0928 17.57184 13.8752-7.72096 13.8752-17.57184 13.8752z m0-19.5584c-5.5296 0-9.37984 2.99008-9.37984 5.6832s3.85024 5.6832 9.37984 5.6832 9.37984-2.99008 9.37984-5.6832-3.85024-5.6832-9.37984-5.6832z" p-id="3261"></path><path d="M258.73408 528.5888c-2.26304 0-4.096-1.83296-4.096-4.096v-27.84256a4.094976 4.094976 0 0 1 4.46464-4.07552l29.16352 2.67264c2.2528 0.2048 3.91168 2.2016 3.70688 4.4544-0.2048 2.2528-2.22208 3.91168-4.4544 3.70688l-24.69888-2.26304v23.35744c0 2.26304-1.83296 4.096-4.096 4.096z" p-id="3262"></path><path d="M255.3344 598.0672c-6.30784 0-12.56448-1.75104-17.99168-5.14048a33.5872 33.5872 0 0 1-10.77248-10.76224c-1.60768-2.58048-1.29024-5.80608 0.78848-8.01792 2.06848-2.2016 5.24288-2.72384 7.89504-1.29024 3.10272 1.66912 6.00064 2.73408 8.58112 3.15392 3.40992 0.55296 7.79264-0.38912 9.95328-3.71712 1.4848-2.29376 2.0992-4.22912 1.67936-5.30432-0.41984-1.08544-2.18112-2.11968-4.72064-2.77504-4.06528-1.04448-6.98368-4.67968-7.10656-8.83712-0.1024-3.26656-0.17408-8.09984 0.03072-12.544a12.92288 12.92288 0 0 1 4.36224-9.13408c2.64192-2.3552 6.03136-3.52256 9.56416-3.28704 6.28736 0.43008 12.34944 2.6112 17.52064 6.33856 13.68064 9.84064 18.0224 28.47744 10.09664 43.34592-4.48512 8.40704-12.00128 14.3872-21.16608 16.83456-2.85696 0.768-5.79584 1.13664-8.71424 1.13664z m-13.64992-12.09344c6.10304 3.81952 13.29152 4.88448 20.24448 3.03104 6.95296-1.85344 12.65664-6.4 16.05632-12.77952 6.01088-11.264 2.72384-25.38496-7.64928-32.83968-3.93216-2.82624-8.51968-4.48512-13.28128-4.8128-1.31072-0.09216-2.57024 0.34816-3.56352 1.2288-0.98304 0.88064-1.56672 2.08896-1.62816 3.40992-0.19456 4.17792-0.12288 8.78592-0.03072 11.90912 0.02048 0.55296 0.39936 1.01376 0.96256 1.15712 5.30432 1.36192 8.86784 4.03456 10.31168 7.7312 1.45408 3.71712 0.62464 8.00768-2.44736 12.73856-3.66592 5.65248-10.79296 8.52992-18.13504 7.34208-1.5872-0.256-3.23584-0.68608-4.93568-1.25952 1.23904 1.1776 2.60096 2.23232 4.08576 3.15392z" p-id="3263"></path><path d="M258.72384 567.02976c-0.86016 0-1.73056-0.27648-2.47808-0.83968-1.81248-1.36192-2.14016-3.96288-0.78848-5.77536 0.5632-0.74752 5.7856-7.18848 18.45248-7.18848h0.48128a4.096 4.096 0 0 1-0.0512 8.192h-0.43008c-8.57088 0-11.8272 3.82976-11.97056 3.9936a4.00896 4.00896 0 0 1-3.2256 1.60768zM266.97728 583.84384a4.10624 4.10624 0 0 1-2.85696-1.15712c-3.93216-3.82976-6.87104-4.05504-6.99392-4.06528h0.13312l-0.0512-8.192c0.62464-0.01024 6.21568 0.14336 12.62592 6.38976a4.094976 4.094976 0 0 1 0.07168 5.79584c-0.79872 0.8192-1.86368 1.23904-2.93888 1.23904zM278.65088 617.94304c-8.93952 0-16.20992-6.63552-16.20992-14.7968s7.2704-14.7968 16.20992-14.7968 16.20992 6.63552 16.20992 14.7968-7.2704 14.7968-16.20992 14.7968z m0-21.4016c-4.42368 0-8.01792 2.95936-8.01792 6.6048s3.59424 6.6048 8.01792 6.6048 8.01792-2.95936 8.01792-6.6048-3.59424-6.6048-8.01792-6.6048zM240.98816 613.40672c-1.024 0-2.05824-0.38912-2.84672-1.15712l-14.00832-13.568a4.098048 4.098048 0 0 1-0.50176-5.29408l6.33856-9.05216a4.091904 4.091904 0 0 1 5.70368-1.00352 4.091904 4.091904 0 0 1 1.00352 5.70368l-4.33152 6.18496 8.57088 8.30464 12.21632-12.4416a4.104192 4.104192 0 0 1 5.79584-0.0512c1.61792 1.5872 1.6384 4.17792 0.0512 5.79584l-15.06304 15.33952c-0.79872 0.8192-1.86368 1.2288-2.9184 1.2288zM251.41248 540.32384a4.06528 4.06528 0 0 1-2.9696-1.28l-9.10336-9.58464a4.096 4.096 0 0 1 0.1536-5.79584c1.6384-1.55648 4.22912-1.4848 5.79584 0.1536l9.10336 9.58464a4.096 4.096 0 0 1-0.1536 5.79584c-0.78848 0.74752-1.80224 1.1264-2.816 1.1264zM269.66016 541.05088c-1.8944 0-3.60448-1.3312-4.00384-3.25632l-1.85344-8.87808c-0.4608-2.21184 0.95232-4.38272 3.1744-4.84352a4.08576 4.08576 0 0 1 4.84352 3.1744l1.85344 8.87808c0.4608 2.21184-0.95232 4.38272-3.1744 4.84352-0.28672 0.06144-0.5632 0.09216-0.83968 0.09216zM235.66336 561.50016c-2.816 0-5.91872-0.48128-9.28768-1.45408a4.086784 4.086784 0 0 1-2.79552-5.0688 4.086784 4.086784 0 0 1 5.0688-2.79552c5.2736 1.52576 9.472 1.50528 12.1344-0.04096 2.304-1.35168 2.83648-3.52256 2.85696-3.61472 0.43008-2.22208 2.57024-3.62496 4.79232-3.20512 2.22208 0.43008 3.66592 2.6112 3.23584 4.83328-0.11264 0.57344-1.2288 5.67296-6.49216 8.89856-2.67264 1.6384-5.85728 2.4576-9.51296 2.4576z" p-id="3264"></path><path d="M259.52256 627.06688c-1.16736 0-2.31424-0.49152-3.1232-1.44384l-12.65664-14.92992a4.102144 4.102144 0 0 1 0.47104-5.77536 4.10112 4.10112 0 0 1 5.77536 0.47104l10.19904 12.02176 10.82368-7.91552c1.82272-1.3312 4.39296-0.94208 5.72416 0.89088 1.3312 1.82272 0.94208 4.39296-0.89088 5.72416l-13.89568 10.15808c-0.72704 0.53248-1.57696 0.78848-2.41664 0.78848zM295.168 572.09856c-0.19456 0-0.39936-0.01024-0.59392-0.04096l-7.2704-1.05472a4.089856 4.089856 0 0 1-3.46112-4.63872c0.32768-2.24256 2.4064-3.7888 4.63872-3.46112l7.2704 1.05472c2.24256 0.32768 3.7888 2.4064 3.46112 4.63872-0.29696 2.03776-2.048 3.51232-4.0448 3.51232z" p-id="3265"></path><path d="M242.57536 639.15008c-9.85088 0-17.57184-6.0928-17.57184-13.8752s7.72096-13.8752 17.57184-13.8752 17.57184 6.0928 17.57184 13.8752-7.72096 13.8752-17.57184 13.8752z m0-19.5584c-5.5296 0-9.37984 2.99008-9.37984 5.6832s3.85024 5.6832 9.37984 5.6832 9.37984-2.99008 9.37984-5.6832-3.85024-5.6832-9.37984-5.6832z" p-id="3266"></path><path d="M258.73408 663.53152c-2.26304 0-4.096-1.83296-4.096-4.096v-27.84256c0-1.14688 0.48128-2.2528 1.3312-3.03104 0.84992-0.77824 1.98656-1.15712 3.13344-1.05472l29.16352 2.67264c2.2528 0.2048 3.91168 2.2016 3.70688 4.4544-0.2048 2.2528-2.22208 3.91168-4.4544 3.70688l-24.69888-2.26304v23.35744c0 2.26304-1.83296 4.096-4.096 4.096z" p-id="3267"></path><path d="M255.3344 727.69536c-6.30784 0-12.57472-1.75104-17.99168-5.14048a33.5872 33.5872 0 0 1-10.77248-10.76224c-1.60768-2.58048-1.29024-5.80608 0.78848-8.01792 2.06848-2.2016 5.24288-2.72384 7.89504-1.29024 3.10272 1.66912 6.00064 2.73408 8.58112 3.15392 3.39968 0.55296 7.79264-0.37888 9.95328-3.71712 1.4848-2.29376 2.0992-4.22912 1.67936-5.30432-0.41984-1.08544-2.18112-2.11968-4.72064-2.77504-4.06528-1.04448-6.98368-4.67968-7.10656-8.83712-0.1024-3.26656-0.17408-8.09984 0.03072-12.544a12.92288 12.92288 0 0 1 4.36224-9.13408c2.64192-2.3552 6.0416-3.52256 9.56416-3.28704 6.28736 0.41984 12.34944 2.6112 17.52064 6.32832 13.68064 9.84064 18.0224 28.47744 10.09664 43.34592-4.48512 8.40704-12.00128 14.3872-21.16608 16.83456-2.85696 0.768-5.79584 1.13664-8.71424 1.13664z m-17.73568-15.24736c1.23904 1.1776 2.60096 2.23232 4.08576 3.15392 6.10304 3.81952 13.29152 4.89472 20.24448 3.03104 6.95296-1.85344 12.6464-6.4 16.05632-12.77952 6.01088-11.264 2.72384-25.38496-7.64928-32.83968-3.93216-2.82624-8.51968-4.48512-13.28128-4.8128-1.32096-0.09216-2.57024 0.34816-3.56352 1.2288-0.98304 0.88064-1.56672 2.08896-1.62816 3.40992-0.19456 4.17792-0.12288 8.78592-0.03072 11.90912 0.02048 0.55296 0.39936 1.01376 0.96256 1.15712 5.30432 1.36192 8.86784 4.03456 10.31168 7.7312 1.45408 3.71712 0.62464 8.00768-2.44736 12.73856-3.66592 5.65248-10.77248 8.52992-18.13504 7.34208-1.59744-0.256-3.23584-0.68608-4.93568-1.25952z" p-id="3268"></path><path d="M258.72384 696.64768c-0.86016 0-1.73056-0.27648-2.47808-0.83968-1.81248-1.36192-2.14016-3.96288-0.78848-5.77536 0.5632-0.75776 5.95968-7.35232 18.944-7.18848a4.096 4.096 0 0 1-0.0512 8.192h-0.43008c-8.57088 0-11.8272 3.82976-11.97056 3.9936a4.00896 4.00896 0 0 1-3.2256 1.60768zM266.97728 713.46176a4.10624 4.10624 0 0 1-2.85696-1.15712c-3.93216-3.82976-6.87104-4.05504-6.99392-4.06528h0.13312l-0.0512-8.192c0.62464 0.03072 6.21568 0.14336 12.62592 6.38976a4.094976 4.094976 0 0 1 0.07168 5.79584c-0.79872 0.8192-1.86368 1.23904-2.93888 1.23904zM278.65088 747.5712c-8.93952 0-16.20992-6.63552-16.20992-14.7968s7.2704-14.7968 16.20992-14.7968 16.20992 6.63552 16.20992 14.7968-7.2704 14.7968-16.20992 14.7968z m0-21.4016c-4.42368 0-8.01792 2.95936-8.01792 6.6048s3.59424 6.6048 8.01792 6.6048 8.01792-2.95936 8.01792-6.6048-3.59424-6.6048-8.01792-6.6048zM240.98816 743.03488c-1.024 0-2.05824-0.38912-2.84672-1.15712l-14." p-id="3269"></path></svg>