<?xml version="1.0" standalone="no"?><!DOCTYPE svg PUBLIC "-//W3C//DTD SVG 1.1//EN" "http://www.w3.org/Graphics/SVG/1.1/DTD/svg11.dtd"><svg t="1761180797788" class="icon" viewBox="0 0 1372 1024" version="1.1" xmlns="http://www.w3.org/2000/svg" p-id="3417" xmlns:xlink="http://www.w3.org/1999/xlink" width="267.96875" height="200"><path d="M686.60204038 910.79934552h-92.23056136c-254.69685764 0-461.15280753-206.45595071-461.15280751-461.15280753v-46.11528067H1147.75484789v46.11528068c0 254.69685764-206.45595071 461.15280753-461.15280751 461.15280752z" fill="#FF882B" p-id="3418"></path><path d="M686.60204038 933.85698627h-92.23056136A484.21044827 484.21044827 0 0 1 110.16103076 449.64653799v-69.17292141h1060.65145788v69.17292141A484.21044827 484.21044827 0 0 1 686.60204038 933.85698627zM156.27631143 426.58889807v23.05763992c0 241.56481091 196.53035669 438.0951676 438.0951676 438.0951676H686.60204038c241.56481091 0 438.0951676-196.53035669 438.0951676-438.09516759v-23.05763993z" fill="#FF5D24" p-id="3419"></path><path d="M1032.46664581 409.09751562c0 285.39234091-200.31325049 516.99553034-449.62398715 524.09296089 3.87296329 0.12609613 7.63784335 0.66650977 11.52882036 0.66650977H686.60204038c254.69685764 0 461.15280753-234.93573907 461.15280751-524.75947065z" fill="#EF6A0F" p-id="3420"></path><path d="M271.56451352 409.09751562h-115.2882021c0 289.82373157 206.45595071 524.75947065 461.15280754 524.75947066h92.23056217c3.89097702 0 7.65585709-0.54041364 11.52881955-0.66650977-249.31073666-7.02537478-449.62398715-238.70061914-449.62398716-524.09296088z" fill="#FFB92C" p-id="3421"></path><path d="M686.60204038 933.85698627h-92.23056136A484.21044827 484.21044827 0 0 1 110.16103076 449.64653799v-69.17292141h1060.65145788v69.17292141A484.21044827 484.21044827 0 0 1 686.60204038 933.85698627zM156.27631143 426.58889807v23.05763992c0 241.56481091 196.53035669 438.0951676 438.0951676 438.0951676H686.60204038c241.56481091 0 438.0951676-196.53035669 438.0951676-438.09516759v-23.05763993z" fill="#FF5D24" p-id="3422"></path><path d="M988.67514327 440.38745457c7.56578842-31.72226934 12.48355069-45.03445422 22.37311643-54.97806117C1136.22602753 259.69121194 1146.31374597 250.10787967 1200.62529736 195.81434202c16.21240329-16.21240329 16.21240329-48.90741669 16.2124033-48.9074167a44.24184751 44.24184751 0 0 0-32.60494474-32.60494473s-32.62295847 0-48.90741669 16.30247278c-54.29353766 54.29353766-63.87686911 64.36324155-189.59505139 189.57703683-9.92559402 9.88956573-23.25579181 14.78931427-54.97806116 22.37311643-42.74670355 10.2318283-75.36966202 42.81875849-91.67213397 59.15725873-24.42668774 24.42668774-31.00171838 81.18811341-31.25391147 82.35900934-10.28586951 46.83583163 32.56891727 89.61856347 79.26063904 79.26063903 1.15288221-0.27020681 57.93232159-6.8272229 82.35900934-31.2719252 16.37452771-16.23041702 48.97947244-48.83536175 59.22931366-91.67213396z" fill="#FFE799" p-id="3423"></path><path d="M1012.11107324 446.85440198c1.96350183-8.12421579 3.94501822-16.21240329 6.37687875-24.21052212 0.88267538-2.90021924 1.80137823-5.74639645 2.86419095-8.61058824 0.25219309-0.73856469 1.94548809-4.79166614 0.59445484-1.69329501s1.13486846-2.19768118 1.45911648-2.79213601c0.95473032-1.80137823 2.5219292-3.60275647 3.33254965-5.51221711 1.17089593-2.73809482-3.29652218 3.18843896-1.02678608 1.3150058a33.39755063 33.39755063 0 0 0 2.52193004-2.75610855c6.64708557-7.00736106 13.65444663-13.6904741 20.46365579-20.53571072q31.70425562-31.81233802 63.42652496-63.57063566 35.77536997-35.79338369 71.62279486-71.47868499c10.80826858-10.80826858 21.616538-21.49044104 32.42480658-32.42480658 16.9509688-17.18514734 25.72367981-43.557324 25.05717087-67.65976373-0.50438617-18.60823636-15.72603168-37.48667954-30.62342917-47.07001099-10.17778628-6.55701608-21.31030372-10.66415872-33.41556436-9.54730399-14.73527307 1.35103326-28.82205011 4.3593349-42.17026245 10.97039301-10.80826858 5.40413471-18.93248437 14.10479077-27.32690699 22.49921255-59.22931367 59.33739607-117.97225571 119.21520657-177.86807913 177.88609287-0.70253723 0.66650977-6.41290622 5.63831323-3.33254965 3.29652219s-3.06234283 1.80137823-4.14316928 2.39583307c-1.40507528 0.77459299-7.70989829 3.42261832-2.37781933 1.35103326-3.38659085 1.33301953-6.80920917 2.5219292-10.28586951 3.60275647-16.91494053 5.26002402-34.06406123 8.41243633-50.43858811 15.43781113-27.0206727 11.60087531-50.43858811 30.20911166-71.4246438 50.70879491-19.95926963 19.54495295-31.19986944 43.6654064-38.00907944 70.57799589-4.46741812 17.63549231-9.36716665 38.94579602-7.43969146 56.995605a92.64487884 92.64487884 0 0 0 55.19422678 75.65788258c22.66133697 9.70942841 45.25061902 7.49373349 68.74059017 3.08035656 25.03915631-4.68358292 51.23119482-12.60964682 71.67683689-28.20958236 21.31030372-16.21240329 40.06264993-39.63031952 53.93326218-62.36371143a172.42791697 172.42791697 0 0 0 20.10337949-47.3402178 24.78696323 24.78696323 0 0 0-16.96898173-29.92089112c-12.48355069-3.44063205-26.69642386 4.1972113-29.92089112 16.98699628-6.55701608 26.02991409-21.25626251 47.37624527-38.58552053 66.23667472-3.60275647 3.83693582-7.20551294 7.60181589-10.80826859 11.31265476-1.62124009 1.63925381-3.22446726 3.31453592-4.91776227 4.86372106-0.99075778 0.91870285-2.01754385 1.80137823-3.08035656 2.66603907 1.80137823-1.49514395 1.80137823-1.18890967-0.16212442-0.09006868a169.32954666 169.32954666 0 0 1-15.43781031 8.30435312c4.34132117-1.90946063-3.60275647 1.33301953-4.57550052 1.65726838-3.0983703 1.11685474-6.23276807 2.12562625-9.38518038 3.06234284a244.78927734 244.78927734 0 0 1-28.28163731 6.57502981c-2.48590174 0.43233041-4.97180347 0.77459299-7.45770519 1.17089594-0.55842737 0.09006867-1.11685474 0.14410987-1.67528211 0.25219307-0.88267538 0.14410987-1.80137823 0.39630295-2.6300116 0.5223999 3.36857712-0.5223999-0.88267538 0-2.19768201 0a74.4149317 74.4149317 0 0 1-8.50250418-0.16212441c3.94501822 0.28822056-3.60275647-0.79260672-5.18796908-1.24295086-0.99075778-0.27020681-9.00689118-3.60275647-5.11591415-1.65726756a89.69061841 89.69061841 0 0 1-9.00689117-5.22399655c-3.26049473-2.10761252 2.34179187 2.10761252-0.61246857-0.4143175-1.17089593-1.00877152-2.3057644-2.03555759-3.42261832-3.09837029a59.44547928 59.44547928 0 0 1-5.40413471-5.96256126c2.25172238 2.86419095-1.98151556-3.27850845-2.73809481-4.61152881s-1.47713022-2.73809482-2.16165371-4.12515555c1.51315769 3.06234283-0.14410987-0.30623428-0.61246858-1.80137823a71.17245071 71.17245071 0 0 1-2.34179104-9.11497357c-0.5223999-2.84617722 0 0.09006867 0 0.55842737-0.12609613-1.60322634-0.21616562-3.20645352-0.23417936-4.80967988 0-0.90068912 0.77459299-9.85353827 0.1621236-5.87249258 0.18013816-1.11685474 0.45034415-2.34179187 0.64849604-3.49467407 1.08082727-6.39489248 2.03555759-12.78978497 3.42261914-19.14864917a217.51641238 217.51641238 0 0 1 9.45723532-32.0104899c1.38706155-3.60275647-1.47713022 3.11638403 0.16212359-0.37828922 0.6304823-1.35103326 1.24295087-2.70206736 1.90946064-4.01707397q1.94548809-3.94501822 4.21522503-7.67387082c0.79260672-1.27897834 4.53947305-6.53900235 1.63925464-2.88220468a80.6116723 80.6116723 0 0 1 6.32283673-6.80920917c18.62625009-18.64426382 33.88392307-31.93843496 57.64410104-43.35917294 21.90475854-10.53806259 52.60024182-11.47477917 74.95534534-26.33614838 12.60964682-8.43045007 22.89551633-20.48166953 33.59570251-31.14582825l32.87515156-32.76706832 48.20487945-48.16885199q30.35322153-30.37123609 60.59836066-60.77849881l15.29370044-15.32972873 7.69188538-7.69188456c1.60322634-1.60322634 3.17042524-3.26049473 4.86372107-4.77365158-0.90068912 0.79260672-3.42261832 1.90946063 0.48637161-0.21616562 1.63925381-0.90068912 3.26049473-1.80137823 4.93577599-2.70206735 3.38659085-1.80137823-3.20645352 1.04479898 0.39630378-0.16212442l3.17042523-0.88267456c2.72008108-0.84664793 5.40413471-1.54918515 8.25031191-2.12562625 2.23370865-0.4683587 8.70065689-1.2609646 2.73809483-0.64849686 2.08959878-0.21616562 4.17919758-0.45034415 6.26879636-0.57644027 7.31359534-0.43233041-1.00877152 0.86466165-1.47713022-0.82863419 0.41431668 1.49514395 8.10620205 4.23323877 9.51127652 5.58427203-1.80137823-1.65726755 2.34179187 4.07111436 2.95426043 5.15194163 3.47665952 6.26879636-0.23417935 1.80137823 1.17089512-1.51315769a8.03414631 8.03414631 0 0 0 0 2.08959878c-0.14410987 1.56719888-0.19815188 3.13439776-0.32424802 4.70159665-0.5223999 6.64708557 0.84664793-3.29652218-0.41431667 2.90021925a94.60838068 94.60838068 0 0 1-4.14317011 15.3837691c1.47713022-3.89097702-1.80137823 2.90021924-2.50391547 4.28727996-2.12562625 3.89097702-1.00877152 1.369047-0.19815107 0.46835871-1.00877152 1.13486846-2.08959878 2.17966746-3.17042605 3.26049472-10.15977255 10.30388324-20.46365579 20.44564207-30.62342835 30.62342834q-31.79432427 31.70425562-63.60666311 63.44453869-26.6063552 26.31813464-52.97853104 52.81640745l-35.84742572 36.02756306c-8.21428446 8.23229819-15.40178284 16.75281692-20.12139404 27.47101684-6.14269941 13.94266718-9.96162149 28.4978021-13.51033594 43.23307599-3.08035657 12.75375751 4.03508689 26.35416211 16.98699627 29.90287738 12.37546829 3.38659085 26.82252081-4.17919758 29.90287739-16.98699628z" fill="#FF8F15" p-id="3424"></path><path d="M157.23104174 403.54927106a483.25571796 230.57640417 0 1 0 966.51143592 0 483.25571796 230.57640417 0 1 0-966.51143592 0Z" fill="#FFFFFF" p-id="3425"></path><path d="M202.3915921 409.11552936a438.0951676 157.42243707 0 1 0 876.19033521-1e-8 438.0951676 157.42243707 0 1 0-876.19033521 0Z" fill="#FFD597" p-id="3426"></path><path d="M306.15097382 409.11552936a334.33578589 92.23056133 0 1 0 668.67157178-1e-8 334.33578589 92.23056133 0 1 0-668.67157178 0Z" fill="#FFBE69" p-id="3427"></path><path d="M554.24253869 368.67341111a34.5864603 46.11528067 60.45 1 0 80.23373081-45.48653614 34.5864603 46.11528067 60.45 1 0-80.23373081 45.48653614Z" fill="#FF7140" p-id="3428"></path><path d="M763.63848273 425.71387576a50.88893308 23.05764075 41.25 1 0 30.40591717-34.67130332 50.88893308 23.05764075 41.25 1 0-30.40591717 34.67130332Z" fill="#FF7140" p-id="3429"></path><path d="M456.04364993 473.10048169a10.80826858 10.80826858 0 0 1-1.3150058 0c-100.30073593-11.47477917-154.34208051-34.0100192-164.9521972-68.95675581-9.31312546-30.47931848 19.20269119-55.24826797 20.42762832-56.29306695a11.52882038 11.52882038 0 0 1 14.98746616 17.50939536c-0.18013816 0.16212442-18.30200208 16.12233462-13.33019861 32.13658602 3.49467324 11.24059983 24.64285337 38.87374027 145.46128628 52.61825639a11.52882038 11.52882038 0 0 1-1.27897915 22.98558499zM848.00552313 525.59264112a11.52882038 11.52882038 0 0 1-3.1524115-22.62530952c42.5665654-12.1232752 153.11714337-54.40162006 153.11714255-103.70534051 0-55.8427228-125.55605704-57.33786677-126.81702164-57.33786677a11.52882038 11.52882038 0 1 1 0-23.05763991c6.12468567 0 149.87466238 0.90068912 149.87466239 80.39550668 0 33.30748196-29.30842254 64.84961398-87.09663345 93.54556796a537.42315866 537.42315866 0 0 1-82.68325736 32.42480658 11.20457236 11.20457236 0 0 1-3.242481 0.36027549z" fill="#FFFFFF" p-id="3430"></path><path d="M577.25838662 492.96968264c-7.29558161 2.68405361-16.21240329-3.31453592-22.96757208-21.61653798s-8.70065689-41.84601443-1.38706073-44.54808179 21.11215183 16.55466503 27.83129233 34.80262591 3.83693582 28.65992651-3.47665952 31.36199386zM491.33264829 421.40092899c-7.02537478-3.33254965-9.00689118-13.92465344-0.63048231-31.50610455s23.86826037-35.46913568 30.89363516-32.1185723 2.91823297 26.66039639-5.40413387 44.22383377-17.81562964 22.80544766-24.85901898 19.40084308zM912.94520578 443.75603167c-6.16071313 4.77365241-16.48261011 1.80137823-28.40773343-13.65444661s-20.87797247-37.30654138-14.7352739-42.06218006 25.11121124 9.42120786 37.03633539 24.80497778 12.24937133 26.15601104 6.10667194 30.91164889zM820.98485043 378.42004608c-6.14269941 4.75563867-16.48261011 1.71130958-28.3897197-13.67246036s-20.8959862-37.28852765-14.73527307-42.06218005 25.11121124 9.42120786 37.03633457 24.85901898 12.26738508 26.10196985 6.0886582 30.87562143zM619.78892456 461.03124768c-8.46647754-6.28681009-8.26832566-20.8959862 7.47571975-42.06217923s41.07142227-40.80121545 49.60995393-34.53241992-3.13439776 36.24372866-18.87844318 57.40992251-29.75876752 25.56155622-38.2072305 19.18467664zM451.45013567 446.25994714c-7.90805017 7.00736106-22.15695163 3.83693582-39.63031868-15.90616901s-31.65021443-48.63720987-23.76017799-55.57251598 34.83865339 10.46600683 52.34804874 30.20911166 18.93248437 34.26221228 11.04244794 41.26957333zM732.39307303 511.46983661c-11.27662729 2.64802615-23.41791623-7.85400897-30.02897352-36.02756305s-5.24201028-63.46255243 6.05263074-66.11057858 28.19156782 28.29965103 34.82063965 56.50923257 0.45034415 42.9268417-10.84429687 45.62890907z" fill="#FFD597" p-id="3431"></path><path d="M640.48675971 657.16530142c-138.70611832 0-269.48617191-24.7149083-368.2377227-69.58723809-104.47993268-47.52035596-162.12403372-112.87435529-162.12403371-184.04680601s57.64410105-136.50843631 162.12403371-184.02879226C371.00058779 174.61212152 501.76262765 149.89721322 640.48675971 149.89721322c127.89784891 0 251.1661561 21.47242732 346.92741897 60.43623707a23.06484558 23.06484558 0 0 1-17.38329922 42.72868982C879.65573755 216.27799781 762.62019842 196.0124939 640.48675971 196.0124939c-132.27519754 0-256.26405652 23.25579181-349.14311391 65.48009628-85.83566885 38.99983722-135.10336184 90.7894594-135.10336184 142.03866714s49.2316647 103.03883076 135.10336184 142.05668171c92.87905737 42.22430364 216.86791635 65.46208254 349.1431139 65.46208172s256.28207026-23.23777807 349.16112762-65.46208172c85.81765512-39.01785096 135.10336184-90.7894594 135.10336185-142.05668171 0-20.03132538-7.20551294-40.06264993-21.616538-59.57157541a23.05764075 23.05764075 0 0 1 37.12640406-27.3449207c20.31954592 27.59711297 30.62342834 56.83348059 30.62342834 86.91649611 0 71.17245071-57.64410105 136.52645004-162.12403371 184.04680601-98.78757825 44.87232981-229.5496181 69.5872381-368.27375015 69.58723809z" fill="#FF5D24" p-id="3432"></path></svg>