<?xml version="1.0" standalone="no"?><!DOCTYPE svg PUBLIC "-//W3C//DTD SVG 1.1//EN" "http://www.w3.org/Graphics/SVG/1.1/DTD/svg11.dtd"><svg t="1760598949486" class="icon" viewBox="0 0 1024 1024" version="1.1" xmlns="http://www.w3.org/2000/svg" p-id="3105" xmlns:xlink="http://www.w3.org/1999/xlink" width="200" height="200"><path d="M364.6 425.1H210.1v-243h104.5c27.6 0 50 22.4 50 50v193z" fill="#FFFFFF" p-id="3106"></path><path d="M251 273.6h112.6v145.5H251z" fill="#F27777" p-id="3107"></path><path d="M374.6 435.1H200.1v-263h114.5c33.1 0 60 26.9 60 60v203z m-154.5-20h134.5v-183c0-22.1-17.9-40-40-40h-94.5v223z" fill="#ED3D3D" p-id="3108"></path><path d="M408.6 689.1h-246l3.6-244c0-16.5 13.5-30 30-30h185.9c16.5 0 30 13.5 30 30l-3.5 244z" fill="#FFFFFF" p-id="3109"></path><path d="M210.5 419.1h199.6v241.5H210.5z" fill="#F8B1B1" p-id="3110"></path><path d="M418.4 699.1H152.5l3.8-254c0-22 18-39.9 40-39.9h185.9c22.1 0 40 17.9 40 40v0.1l-3.8 253.8z m-245.6-20h225.9l3.5-234c0-11-9-19.9-20-19.9h-186c-11 0-20 9-20 20v0.1l-3.4 233.8z" fill="#ED3D3D" p-id="3111"></path><path d="M420.8 946.8h-263c-27.5 0-50-22.5-50-50V712c0-27.5 22.5-50 50-50h263c27.5 0 50 22.5 50 50v184.8c0 27.5-22.5 50-50 50z" fill="#FFFFFF" p-id="3112"></path><path d="M422.8 941.5H159.1V660.6h263.8c26.5 0 48 21.5 48 48v184.9c-0.1 26.5-21.6 48-48.1 48z" fill="#F27777" p-id="3113"></path><path d="M418 956.8H160.6c-35 0-63.4-26.9-63.4-60V712c0-33.1 28.5-60 63.4-60H418c35 0 63.4 26.9 63.4 60v184.8c0 33.1-28.5 60-63.4 60zM160.6 672c-23.3 0-42.3 17.9-42.3 40v184.8c0 22.1 19 40 42.3 40H418c23.3 0 42.3-17.9 42.3-40V712c0-22.1-19-40-42.3-40H160.6z" fill="#DF3E3D" p-id="3114"></path><path d="M221.283636 232.914565a98.2 71.5 64.85 1 0 129.443352-60.773502 98.2 71.5 64.85 1 0-129.443352 60.773502Z" fill="#FFFFFF" p-id="3115"></path><path d="M348.3 194.7c30.1 44.4 20.4 69.7-12.2 91.8s-60.6 12.5-95.5-18.8c-39.9-35.9-38.4-91.3-5.8-113.4s83.4-4.1 113.5 40.4z" fill="#F27777" p-id="3116"></path><path d="M309.2 306.3c-14.3 1-29.5-2.6-44.2-10.7-21.9-12-40.7-32.8-52.7-58.4s-16.1-53.3-11.3-77.9c5-25.7 18.9-45.2 39.1-54.7 20.3-9.5 44.1-7.8 67.1 4.8 21.9 12 40.7 32.8 52.7 58.4s16.1 53.3 11.3 77.9c-5 25.7-18.9 45.2-39.1 54.7-7.3 3.4-15 5.3-22.9 5.9z m-45-187.6c-5.5 0.4-10.7 1.7-15.7 4-14.3 6.7-24.3 21.1-28 40.4-3.9 20.5-0.5 43.8 9.8 65.6 10.3 21.8 26 39.4 44.2 49.4 17.2 9.5 34.6 11 48.9 4.2 14.3-6.7 24.3-21.1 28-40.4 3.9-20.5 0.5-43.8-9.8-65.6-10.3-21.8-26-39.4-44.2-49.4-11.2-6.2-22.6-9-33.2-8.2z" fill="#ED3D3D" p-id="3117"></path><path d="M846.1 946.8H605.6c-27.6 0-50-22.4-50-50V511.1h340.5v385.7c0 27.6-22.4 50-50 50z" fill="#FFFFFF" p-id="3118"></path><path d="M866.1 941.5h-258V580.3h278v341.2c0 11.1-9 20-20 20z" fill="#F27777" p-id="3119"></path><path d="M608.1 514.1h278v66.2h-278z" fill="#F8B1B1" p-id="3120"></path><path d="M846.1 956.8H605.6c-33.1 0-60-26.9-60-60V501.1h360.5v395.7c0 33.1-26.9 60-60 60zM565.6 521.1v375.7c0 22.1 17.9 40 40 40h240.5c22.1 0 40-17.9 40-40V521.1H565.6z" fill="#ED3D3D" p-id="3121"></path><path d="M553.6 580.3h348v20h-348z" fill="#ED3D3D" p-id="3122"></path></svg>