<?xml version="1.0" standalone="no"?><!DOCTYPE svg PUBLIC "-//W3C//DTD SVG 1.1//EN" "http://www.w3.org/Graphics/SVG/1.1/DTD/svg11.dtd"><svg t="1760599028392" class="icon" viewBox="0 0 1024 1024" version="1.1" xmlns="http://www.w3.org/2000/svg" p-id="3776" xmlns:xlink="http://www.w3.org/1999/xlink" width="200" height="200"><path d="M512 298.666667c223.850667 0 405.333333 124.16 405.333333 277.333333s-181.482667 277.333333-405.333333 277.333333S106.666667 729.173333 106.666667 576s181.482667-277.333333 405.333333-277.333333z m0 213.333333c-70.698667 0-128 28.650667-128 64s57.301333 64 128 64 128-28.650667 128-64-57.301333-64-128-64z" fill="#FF9E0F" p-id="3777"></path><path d="M512 490.666667c82.474667 0 149.333333 42.986667 149.333333 96S594.474667 682.666667 512 682.666667s-149.333333-42.986667-149.333333-96 66.858667-96 149.333333-96z m0 21.333333c-70.698667 0-128 28.650667-128 64s57.301333 64 128 64 128-28.650667 128-64-57.301333-64-128-64z" fill="#FF7325" p-id="3778"></path><path d="M917.333333 576c0 153.173333-181.482667 277.333333-405.333333 277.333333S106.666667 729.173333 106.666667 576c0-7.189333 0.405333-14.293333 1.173333-21.333333H416.64C396.373333 565.973333 384 580.906667 384 597.333333c0 35.349333 57.301333 64 128 64s128-28.650667 128-64c0-16.405333-12.330667-31.36-32.64-42.666666h308.8c0.768 7.04 1.173333 14.144 1.173333 21.333333z" fill="#FFB518" p-id="3779"></path><path d="M512 832c182.016 0 337.408-85.482667 398.72-205.824C876.181333 755.413333 710.826667 853.333333 512 853.333333c-198.826667 0-364.224-97.941333-398.72-227.178666C174.592 746.517333 329.984 832 512 832z" fill="#FF8E1A" p-id="3780"></path><path d="M502.421333 420.096c-28.16 0.128-63.232 11.754667-88.064 24.362667-24.810667 12.586667-52.309333 21.653333-56.277333 59.498666-3.989333 37.824 22.144 97.770667 76.650667 106.709334-102.741333-26.858667-140.032-95.808-121.152-157.866667 18.88-62.08 164.032-125.205333 264.768-104.661333 100.757333 20.544 171.776 97.664 145.578666 151.893333-17.472 36.138667-65.984 69.76-145.578666 100.821333 63.936-36.074667 91.946667-67.456 84.053333-94.165333-11.84-40.064-25.813333-37.12-35.136-53.888-9.322667-16.789333-33.088-2.944-50.453333-8.405333-17.365333-5.461333-46.208-24.426667-74.389334-24.298667z" fill="#FF7325" p-id="3781"></path><path d="M512 213.333333c51.733333 0 94.912 0.213333 140.373333 12.309334 44.010667 11.690667 95.786667 31.253333 130.773334 52.096 37.418667 22.272 68.949333 46.272 92.416 76.501333 30.08 38.741333 44.906667 90.474667 44.906666 137.386667 0 25.6 3.157333 43.733333-6.314666 67.285333-4.032 9.962667-36.672 10.965333-42.24 20.437333-10.794667 18.474667-15.978667 70.826667-32.064 87.104-20.736 20.928-51.52-5.653333-133.333334 28.032-81.834667 33.706667-64.64 67.264-135.509333 66.858667-70.890667-0.426667-66.88-35.690667-123.157333-33.194667-36.693333 1.621333-69.568 22.016-91.626667 17.024-55.893333-12.629333-48.362667-53.76-83.690667-66.496-60.8-21.909333-80.682667 5.802667-95.424-17.984-10.773333-17.365333-9.066667-56.32-18.986666-70.4-8.853333-12.586667-37.824 5.610667-43.861334-7.936-11.413333-25.6-8.618667-62.528-7.594666-91.690666 1.024-29.162667 7.253333-60.074667 20.629333-87.594667 11.370667-23.402667 25.962667-60.053333 45.525333-80.213333 23.04-23.786667 49.728-39.445333 82.112-57.301334 21.546667-11.882667 45.184-20.778667 70.016-29.482666 31.018667-10.88 66.858667-11.477333 101.866667-16.597334A588.672 588.672 0 0 1 512 213.333333z m0 170.666667c-29.290667 0-44.885333 8.725333-68.970667 16.021333-20.736 6.314667-52.138667 12.181333-66.581333 22.549334C353.664 438.890667 341.333333 457.642667 341.333333 480c0 21.226667 4.672 44.245333 25.408 60.16 15.573333 11.925333 46.08 12.266667 69.610667 19.114667 23.424 6.805333 37.888 13.802667 66.069333 13.802666 15.381333 0 40.64 0.64 55.765334-2.837333 22.144-5.12 43.029333-12.842667 59.861333-19.84 21.525333-8.917333 34.389333-13.76 46.506667-27.306667 11.584-12.949333 18.112-27.605333 18.112-43.093333 0-16.64-14.464-24.746667-27.712-38.4-9.898667-10.197333-16.085333-26.837333-31.637334-34.368-16.384-7.936-40.405333-3.946667-61.333333-7.957333C544.746667 395.989333 531.221333 384 512 384z" fill="#FF6097" p-id="3782"></path><path d="M512 234.666667c200.298667 0 362.666667 100.288 362.666667 224S712.298667 682.666667 512 682.666667 149.333333 582.378667 149.333333 458.666667 311.701333 234.666667 512 234.666667z m0 149.333333c-29.290667 0-44.885333 8.725333-68.970667 16.021333-20.736 6.314667-52.138667 12.181333-66.581333 22.549334C353.664 438.890667 341.333333 457.642667 341.333333 480c0 21.226667 4.672 44.245333 25.408 60.16 15.573333 11.925333 46.08 12.266667 69.610667 19.114667 23.424 6.805333 37.888 13.802667 66.069333 13.802666 15.381333 0 40.64 0.64 55.765334-2.837333 22.144-5.12 43.029333-12.842667 59.861333-19.84 21.525333-8.917333 34.389333-13.76 46.506667-27.306667 11.584-12.949333 18.112-27.605333 18.112-43.093333 0-16.64-14.464-24.746667-27.712-38.4-9.898667-10.197333-16.085333-26.837333-31.637334-34.368-16.384-7.936-40.405333-3.946667-61.333333-7.957333C544.746667 395.989333 531.221333 384 512 384z" fill="#FF81B1" p-id="3783"></path><path d="M506.944 312.256c68.16 0.042667 167.658667 29.781333 207.317333 69.482667 39.68 39.722667 62.378667 105.173333 12.629334 157.866666-49.770667 52.693333-191.957333 58.538667-210.602667 58.538667-18.645333 0-98.090667-2.794667-159.722667-32.981333-61.653333-30.186667-116.437333-92.672-74.090666-156.693334 42.325333-64.021333 156.309333-96.234667 224.469333-96.213333zM512 384c-29.290667 0-44.885333 8.725333-68.970667 16.021333-20.736 6.314667-52.138667 12.181333-66.581333 22.549334C353.664 438.890667 341.333333 457.642667 341.333333 480c0 21.226667 4.672 44.245333 25.408 60.16 15.573333 11.925333 46.08 12.266667 69.610667 19.114667 23.424 6.805333 37.888 13.802667 66.069333 13.802666 15.381333 0 40.64 0.64 55.765334-2.837333 22.144-5.12 43.029333-12.842667 59.861333-19.84 21.525333-8.917333 34.389333-13.76 46.506667-27.306667 11.584-12.949333 18.112-27.605333 18.112-43.093333 0-16.64-14.464-24.746667-27.712-38.4-9.898667-10.197333-16.085333-26.837333-31.637334-34.368-16.384-7.936-40.405333-3.946667-61.333333-7.957333C544.746667 395.989333 531.221333 384 512 384z" fill="#FF6776" p-id="3784"></path><path d="M920.746667 507.178667l0.021333 1.152c0.490667 17.557333 0.682667 32.469333-6.613333 50.56-4.032 9.984-36.672 10.986667-42.24 20.48-10.794667 18.453333-15.978667 70.826667-32.064 87.082666-20.736 20.928-51.52-5.653333-133.333334 28.032-81.834667 33.706667-64.64 67.264-135.509333 66.858667-70.890667-0.426667-66.88-35.690667-123.157333-33.194667-36.693333 1.621333-69.568 22.016-91.626667 17.024-55.893333-12.629333-48.362667-53.76-83.690667-66.496-60.8-21.909333-80.682667 5.802667-95.424-17.984-10.773333-17.365333-9.066667-56.32-18.986666-70.4-8.853333-12.586667-37.824 5.610667-43.861334-7.936-8.384-18.837333-9.109333-43.797333-8.490666-67.264 0.512 16.554667 2.624 32.746667 8.490666 45.930667 6.037333 13.546667 35.008-4.650667 43.882667 7.936 9.898667 14.08 8.192 53.034667 18.965333 70.4 14.741333 23.786667 34.624-3.925333 95.424 17.984 35.328 12.714667 27.818667 53.866667 83.690667 66.496 22.058667 4.992 54.933333-15.402667 91.626667-17.024 56.277333-2.496 52.266667 32.789333 123.157333 33.194667 70.890667 0.405333 53.674667-33.152 135.509333-66.858667 81.813333-33.706667 112.597333-7.104 133.333334-28.032 16.085333-16.277333 21.269333-68.629333 32.085333-87.104 5.546667-9.472 38.186667-10.474667 42.218667-20.437333 4.373333-10.88 6.058667-20.586667 6.613333-30.4zM512 362.666667c19.2 0 32.746667 11.989333 49.984 15.274666 20.906667 4.010667 44.949333 0 61.333333 7.957334 15.552 7.530667 21.738667 24.170667 31.637334 34.368 13.248 13.653333 27.712 21.76 27.712 38.4 0 4.309333-0.512 8.533333-1.493334 12.714666-3.946667-11.306667-15.488-18.709333-26.218666-29.781333-9.898667-10.197333-16.085333-26.837333-31.637334-34.368-16.384-7.936-40.405333-3.946667-61.333333-7.957333C544.746667 395.989333 531.221333 384 512 384c-29.290667 0-44.885333 8.725333-68.970667 16.021333-20.736 6.314667-52.138667 12.181333-66.581333 22.549334-19.797333 14.165333-31.701333 30.186667-34.474667 48.810666-0.448-4.266667-0.64-8.533333-0.64-12.714666 0-22.357333 12.330667-41.109333 35.114667-57.429334 14.442667-10.368 45.866667-16.234667 66.581333-22.549333C467.136 371.413333 482.709333 362.666667 512 362.666667z" fill="#E93512" p-id="3785"></path><path d="M601.216 604.885333a10.666667 10.666667 0 0 1 0 15.082667l-45.248 45.248a10.666667 10.666667 0 1 1-15.082667-15.082667l45.226667-45.248a10.666667 10.666667 0 0 1 15.104 0z m-334.570667-49.493333a10.666667 10.666667 0 0 1 11.370667 9.92l2.986667 42.56a10.666667 10.666667 0 1 1-21.290667 1.493333l-2.986667-42.56a10.666667 10.666667 0 0 1 9.92-11.392z m548.522667-190.144a10.666667 10.666667 0 0 1 7.765333 12.928l-10.325333 41.386667a10.666667 10.666667 0 0 1-20.693333-5.141334l10.325333-41.386666a10.666667 10.666667 0 0 1 12.928-7.786667z m-576.618667-37.696a10.666667 10.666667 0 0 1 0 15.082667l-45.248 45.248a10.666667 10.666667 0 1 1-15.082666-15.082667l45.226666-45.248a10.666667 10.666667 0 0 1 15.104 0z m243.392-85.098667l41.002667 11.754667a10.666667 10.666667 0 1 1-5.866667 20.522667l-41.024-11.776a10.666667 10.666667 0 1 1 5.888-20.48z" fill="#FFE2EF" p-id="3786"></path><path d="M769.962667 520.298667l26.837333 33.152a10.666667 10.666667 0 1 1-16.576 13.44l-26.837333-33.173334a10.666667 10.666667 0 1 1 16.576-13.44z m-640-42.666667l26.837333 33.152a10.666667 10.666667 0 0 1-16.576 13.44l-26.837333-33.173333a10.666667 10.666667 0 1 1 16.576-13.44z m155.456-22.485333a10.666667 10.666667 0 0 1 0.789333 15.061333l-14.293333 15.850667a10.666667 10.666667 0 1 1-15.829334-14.293334l14.272-15.829333a10.666667 10.666667 0 0 1 15.061334-0.789333z m100.544-148.181334l13.44 16.576a10.666667 10.666667 0 1 1-16.597334 13.418667l-13.44-16.576a10.666667 10.666667 0 1 1 16.597334-13.44z m256-64l26.837333 33.152a10.666667 10.666667 0 1 1-16.576 13.44l-26.837333-33.173333a10.666667 10.666667 0 1 1 16.576-13.44z" fill="#00B3FF" p-id="3787"></path><path d="M406.464 645.802667a10.666667 10.666667 0 0 1 3.136 14.762666l-23.232 35.776a10.666667 10.666667 0 0 1-17.898667-11.605333l23.253334-35.797333a10.666667 10.666667 0 0 1 14.741333-3.136z m299.306667-102.037334l4.416 20.864a10.666667 10.666667 0 1 1-20.864 4.437334l-4.437334-20.864a10.666667 10.666667 0 0 1 20.864-4.437334zM320.853333 519.146667l15.850667 14.272a10.666667 10.666667 0 1 1-14.293333 15.850666l-15.829334-14.293333a10.666667 10.666667 0 1 1 14.272-15.829333z m597.589334-44.010667a10.666667 10.666667 0 0 1 3.136 14.762667l-23.232 35.776a10.666667 10.666667 0 0 1-17.898667-11.605334l23.253333-35.797333a10.666667 10.666667 0 0 1 14.741334-3.136z m-192-149.333333a10.666667 10.666667 0 0 1 3.136 14.762666l-23.232 35.776a10.666667 10.666667 0 0 1-17.898667-11.605333l23.253333-35.797333a10.666667 10.666667 0 0 1 14.741334-3.136z m-224.938667 0a10.666667 10.666667 0 0 1 3.136 14.762666l-11.626667 17.898667a10.666667 10.666667 0 1 1-17.898666-11.626667l11.626666-17.898666a10.666667 10.666667 0 0 1 14.762667-3.136z m-159.061333-85.333334a10.666667 10.666667 0 0 1 3.136 14.762667l-23.232 35.776a10.666667 10.666667 0 0 1-17.898667-11.605333l23.253333-35.797334a10.666667 10.666667 0 0 1 14.741334-3.136z" fill="#FFC229" p-id="3788"></path></svg>