<?xml version="1.0" standalone="no"?><!DOCTYPE svg PUBLIC "-//W3C//DTD SVG 1.1//EN" "http://www.w3.org/Graphics/SVG/1.1/DTD/svg11.dtd"><svg t="1760599051501" class="icon" viewBox="0 0 1024 1024" version="1.1" xmlns="http://www.w3.org/2000/svg" p-id="4087" xmlns:xlink="http://www.w3.org/1999/xlink" width="200" height="200"><path d="M872 384.6v351.2c0 32.3-26.2 58.5-58.5 58.5h-603c-32.3 0-58.5-26.2-58.5-58.5V384.6c0-16.2 6.6-30.8 17.1-41.4 10.6-10.6 25.2-17.1 41.4-17.1v-29.3c0-16.2 13.1-29.3 29.3-29.3h29.3c16.2 0 29.3 13.1 29.3 29.3V326H351l50.4-100.9c5-9.9 15.1-16.2 26.2-16.2h168.7c11.1 0 21.2 6.3 26.2 16.2L673 326h140.5c32.3 0 58.5 26.2 58.5 58.6z" fill="#F4476B" p-id="4088"></path><path d="M872 621.3v114.5c0 32.3-26.2 58.5-58.5 58.5h-603c-32.3 0-58.5-26.2-58.5-58.5V621.3h720z" fill="#799FFC" p-id="4089"></path><path d="M152 443.1h720v234.1H152z" fill="#FFFFFF" p-id="4090"></path><path d="M687.6 560.2c0 96.8-78.5 175.6-175.6 175.6-97.2 0-175.6-78.8-175.6-175.6S414.9 384.6 512 384.6c97.2 0 175.6 78.8 175.6 175.6z" fill="#FBE66B" p-id="4091"></path><path d="M512 443.1c64.6 0 117.1 52.5 117.1 117.1s-52.5 117-117.1 117-117.1-52.5-117.1-117.1 52.5-117 117.1-117z" fill="#FFFFFF" p-id="4092"></path><path d="M555.9 252.8h-87.8c-8.1 0-14.6 6.6-14.6 14.6 0 8.1 6.6 14.6 14.6 14.6h87.8c8.1 0 14.6-6.6 14.6-14.6s-6.5-14.6-14.6-14.6z" fill="#92E7E6" p-id="4093"></path><path d="M512 691.9c72.6 0 131.7-59.1 131.7-131.7S584.6 428.5 512 428.5s-131.7 59.1-131.7 131.7S439.4 691.9 512 691.9z m0-234.2c56.5 0 102.4 46 102.4 102.4s-46 102.4-102.4 102.4-102.4-46-102.4-102.4S455.5 457.7 512 457.7z" fill="#E57434" p-id="4094"></path><path d="M784.2 399.2h29.3c8.1 0 14.6-6.6 14.6-14.6s-6.6-14.6-14.6-14.6h-29.3c-8.1 0-14.6 6.6-14.6 14.6s6.5 14.6 14.6 14.6z" fill="#92E7E6" p-id="4095"></path><path d="M262.2 399.2h-12.8c-8.1 0-14.7-6.6-14.7-14.7v-78.3c0-8.1 6.6-14.7 14.7-14.7h12.8c8.1 0 14.7 6.6 14.7 14.7v78.3c0 8.1-6.6 14.7-14.7 14.7z" fill="#FBE66B" p-id="4096"></path><path d="M246.1 239.9v-62.6c0-4.1 3.3-7.6 7.6-7.6h1.4c4.1 0 7.6 3.3 7.6 7.6v62.6c0 4.1-3.3 7.6-7.6 7.6h-1.4c-4.3-0.1-7.6-3.5-7.6-7.6zM300.1 235.4l31.3-51.8c2.1-3.6 6.7-4.9 10.3-2.8l1.3 0.7c3.6 2.1 4.9 6.7 2.8 10.3l-31.3 51.8c-2.1 3.6-6.7 4.9-10.3 2.8l-1.3-0.7c-3.7-2.1-4.9-6.7-2.8-10.3zM208.5 235.4l-31.3-51.8c-2.1-3.6-6.7-4.9-10.3-2.8l-1.3 0.7c-3.6 2.1-4.9 6.7-2.8 10.3l31.3 51.8c2.1 3.6 6.7 4.9 10.3 2.8l1.3-0.7c3.6-2.1 4.9-6.7 2.8-10.3z" fill="#92E7E6" p-id="4097"></path><path d="M813.5 319H677.3l-48.6-97.1c-6.2-12.4-18.7-20-32.4-20H427.6c-13.8 0-26.2 7.7-32.5 20.1l-48.5 97h-41.3v-22.2c0-20-16.3-36.3-36.3-36.3h-29.3c-20 0-36.3 16.3-36.3 36.3v22.7c-14.9 1.6-28.7 8.1-39.4 18.8-12.3 12.5-19.1 28.9-19.1 46.3v351.2c0 36.1 29.4 65.5 65.5 65.5h603c36.1 0 65.5-29.4 65.5-65.5V384.6c0.1-36.2-29.3-65.6-65.4-65.6zM159 621.3V450.1h207.4c-23.2 30.6-37 68.8-37 110.1s13.8 79.4 37 110H159v-48.9z m184.4-61.1c0-93 75.6-168.6 168.6-168.6s168.6 75.6 168.6 168.6S605 728.8 512 728.8s-168.6-75.6-168.6-168.6z m351.2 0c0-41.3-13.8-79.5-37-110.1H865v220.1H657.6c23.2-30.6 37-68.7 37-110zM174 348.1c9.7-9.7 22.6-15 36.5-15 1.9 0 3.6-0.7 4.9-2.1 1.3-1.3 2.1-3.1 2.1-4.9v-29.3c0-12.3 10-22.3 22.3-22.3h29.3c12.3 0 22.3 10 22.3 22.3V326c0 3.9 3.1 7 7 7H351c2.7 0 5.1-1.5 6.3-3.9l50.4-100.9c3.8-7.6 11.5-12.4 20-12.4h168.7c8.5 0 16.1 4.7 19.9 12.3L666.8 329c1.2 2.4 3.6 3.9 6.3 3.9h140.5c28.4 0 51.5 23.1 51.5 51.6V436H645.8c-33.4-36-81-58.5-133.8-58.5S411.6 400 378.2 436H159v-51.5c0-13.6 5.4-26.6 15-36.4z m639.5 439.2h-603c-28.4 0-51.5-23.1-51.5-51.5v-51.6h219.1c33.4 36 81.1 58.6 133.9 58.6 52.9 0 100.5-22.6 133.9-58.6H865v51.6c0 28.4-23.1 51.5-51.5 51.5z" fill="#002DEA" p-id="4098"></path><path d="M512 669.5c60.3 0 109.4-49.1 109.4-109.4S572.3 450.7 512 450.7s-109.4 49.1-109.4 109.4S451.7 669.5 512 669.5z m0-204.8c52.6 0 95.4 42.8 95.4 95.4s-42.8 95.4-95.4 95.4-95.4-42.8-95.4-95.4 42.8-95.4 95.4-95.4z" fill="#002DEA" p-id="4099"></path><path d="M512 698.9c76.5 0 138.7-62.2 138.7-138.7S588.5 421.5 512 421.5s-138.7 62.2-138.7 138.7S435.5 698.9 512 698.9z m0-263.4c68.8 0 124.7 55.9 124.7 124.7S580.8 684.9 512 684.9 387.3 629 387.3 560.2 443.2 435.5 512 435.5z" fill="#002DEA" p-id="4100"></path></svg>