<?xml version="1.0" standalone="no"?><!DOCTYPE svg PUBLIC "-//W3C//DTD SVG 1.1//EN" "http://www.w3.org/Graphics/SVG/1.1/DTD/svg11.dtd"><svg t="1760599016293" class="icon" viewBox="0 0 1024 1024" version="1.1" xmlns="http://www.w3.org/2000/svg" p-id="3619" xmlns:xlink="http://www.w3.org/1999/xlink" width="200" height="200"><path d="M490.4 339.6h35.64v253.86H490.4z" fill="#A0D468" p-id="3620"></path><path d="M773.88 255.93c-10.36 66.32-82.21 159.44-148.56 149.11-66.35-10.33-102.04-120.2-91.71-186.55s62.8-64.03 129.15-53.69c66.34 10.33 121.45 24.78 111.12 91.13z" fill="#DA4453" p-id="3621"></path><path d="M563.22 209.99c1.8 1.04 24.71 14.06 64.39 26.64 21.37 24.66 31.26 50.72 29.38 77.44-3.03 43.05-35.27 77.43-45.42 87.27 4.43 1.7 9 2.97 13.75 3.71 10.83 1.69 21.81 0.6 32.67-2.66 15.26-20.32 31.96-50.12 34.52-85.5 1.67-23.09-2.79-45.5-13.31-66.97 27.29 5.53 58.81 9.63 93.9 10.44 0.29-1.49 0.55-2.95 0.78-4.41 1.85-12.03 1.57-22.33-0.52-31.2-116.49-2.9-191.58-45.16-192.34-45.6l-17.8 30.84z" opacity=".1" p-id="3622"></path><path d="M481.85 214.94c11.64 66.11-26.3 177.44-92.41 189.1-66.14 11.64-135.41-80.8-147.04-146.94-11.66-66.11 38.72-80.88 104.86-92.51 66.1-11.66 122.92-15.79 134.59 50.35z" fill="#DA4453" p-id="3623"></path><path d="M458.89 187.44c-85.73 28.54-171.31 24.58-210.23 20.53-5.63 9.34-8.48 20.79-7.85 35.07 14.87 1.72 37.07 3.57 64.02 3.57 10.99 0 22.75-0.32 35.15-1.07 26.59 16.23 43.41 37.13 50.04 62.17 11.04 41.72-8.35 84.69-14.79 97.24 4.75 0.18 9.47-0.08 14.22-0.91 10.8-1.9 20.82-6.49 30.03-13.07 7.88-24.16 14.06-57.76 5.06-92.07-5.82-22.23-17.17-41.88-33.87-58.7 25.52-3.91 52.39-9.94 79.47-18.94l-11.25-33.82z" opacity=".1" p-id="3624"></path><path d="M650.42 172c0 78.71-66.43 199.51-145.14 199.51S365.41 250.71 365.41 172s61.16-85.5 139.87-85.5 145.14 6.78 145.14 85.5z" fill="#ED5564" p-id="3625"></path><path d="M650.39 174.32c0-0.78 0.03-1.57 0.03-2.32 0-12.81-1.77-23.69-5.06-32.98-92.86 10.38-162.62 5.06-204.99-1.33-31.13-4.7-52.34-10.62-63.06-14.04-5.77 8.98-9.6 20.12-11.14 33.89 17.69 5.71 57.43 16.41 118.35 20.95 28.39 27.79 43.41 57.92 44.61 89.67 2.17 56.17-39.32 100.63-39.74 101.07l0.81 0.78c4.96 0.96 9.97 1.49 15.08 1.49 10.7 0 21.18-2.24 31.31-6.32 14.06-22.78 29.61-57.42 28.18-97.99-1.1-30.66-11.61-59.67-31.33-86.67 3.13 0.05 6.29 0.08 9.52 0.08 31.85 0.01 67.69-1.79 107.43-6.28z" opacity=".1" p-id="3626"></path><path d="M507.91 941.43c-53.43 0-231.58-569.76-231.58-569.76s109.42 17.79 227.43 17.79c118.03 0 235.73-17.79 235.73-17.79S561.34 941.43 507.91 941.43z" fill="#EC87C0" p-id="3627"></path><path d="M643.01 382.73c-36.03 37.7-159.91 160.35-293.15 210.91 19.98 57.53 42.08 118.66 63.58 173.34 119.02-57.01 225.81-171.7 269.35-222.39 32.85-96.69 56.7-172.93 56.7-172.93s-39.89 6.03-96.48 11.07z" fill="#D770AD" p-id="3628"></path></svg>