<?xml version="1.0" standalone="no"?><!DOCTYPE svg PUBLIC "-//W3C//DTD SVG 1.1//EN" "http://www.w3.org/Graphics/SVG/1.1/DTD/svg11.dtd"><svg t="1761180635947" class="icon" viewBox="0 0 1024 1024" version="1.1" xmlns="http://www.w3.org/2000/svg" p-id="2835" xmlns:xlink="http://www.w3.org/1999/xlink" width="200" height="200"><path d="M663.1 362.1c5.8-3.8 111.4-99.9 111.4-99.9s-32.7-63.4 23.1-76.8c55.7-13.4 57.6 34.6 57.6 34.6s65.3 5.8 48 61.5c-17.3 55.7-74.9 26.9-74.9 26.9l-124.9 121-40.3-67.3z" fill="#FFFFFF" p-id="2836"></path><path d="M703.5 442.1c-0.6 0-1.1 0-1.7-0.1-3.9-0.5-7.3-2.7-9.3-6.1l-40.3-67.2c-3.5-5.8-1.8-13.2 3.6-17 5.8-4.4 63.7-56.7 103.4-92.7-5-13-11.6-37.1-2.2-57.7 4.5-9.9 14.7-22.8 37.6-28.3 22-5.3 40-2.9 53.3 7.2 11.3 8.5 16.2 20.3 18.4 28.7 3 0.7 6.6 1.6 10.3 2.9 15.1 5.1 26.9 13.4 34 24 9.1 13.6 10.7 30.2 4.8 49.4-6 19.2-16.8 32.3-32.1 38.8-19.3 8.2-40.5 3.2-52.1-0.8L712.4 438.5c-2.4 2.3-5.6 3.6-8.9 3.6z m-23.9-77.3l26.5 44.2 113.3-109.8c3.9-3.8 9.7-4.7 14.6-2.3 6.2 3 25.4 9.6 39.3 3.6 8.2-3.5 14-11 17.7-22.9 3.6-11.6 3.1-20.6-1.6-27.6-8.2-12.3-28.4-16.7-35.4-17.4-6.4-0.6-11.4-5.7-11.6-12.1-0.1-0.9-1.1-13.5-10.1-20.1-7-5.2-17.6-6-31.8-2.6-10.5 2.5-17.2 7.2-20.4 14.1-6.6 14.5 2.1 37.5 5.7 44.5 2.6 5.1 1.5 11.4-2.8 15.3-26 23.7-81 73.6-103.4 93.1z m-23.5-13.3s-0.1 0.1-0.2 0.1c0.1 0 0.1-0.1 0.2-0.1z" fill="#919191" p-id="2837"></path><path d="M370.7 367c-2.9-6.3-81.3-125.7-81.3-125.7s-67.7 22.4-72.3-34.8 43.2-51.5 43.2-51.5 15.9-63.6 68.2-37.8 14.9 78.2 14.9 78.2l100 142.3-72.7 29.3z" fill="#FFFFFF" p-id="2838"></path><path d="M370.7 379.8c-4.8 0-9.3-2.7-11.5-7.2-3.5-6.4-46.1-71.8-75.4-116.6-13.6 2.9-38.4 5.7-57.3-6.9-9-6-20.2-18.1-22.1-41.5-1.8-22.6 3.4-39.9 15.4-51.5 10.2-9.8 22.6-12.9 31.3-13.7 1.1-2.9 2.6-6.2 4.5-9.8 7.4-14.1 17.4-24.5 29-29.8 14.9-6.9 31.6-5.9 49.6 3 18.1 8.9 29.3 21.6 33.3 37.8 5.1 20.4-3.1 40.5-8.9 51.3l95.3 135.5c2.2 3.2 2.9 7.2 1.8 11-1.1 3.7-3.9 6.8-7.5 8.2l-72.7 29.3c-1.6 0.6-3.2 0.9-4.8 0.9z m-11.6-7.5s0 0.1 0.1 0.2c0 0-0.1-0.1-0.1-0.2z m-69.7-143.7c4.2 0 8.3 2.1 10.7 5.8C319.5 264 360.2 326 376 351.2l47.8-19.3L333 202.7c-3.1-4.4-3.1-10.4 0.1-14.8 4-5.6 13.5-23.6 9.7-38.3-2.2-8.7-8.7-15.6-19.9-21-10.9-5.4-19.9-6.3-27.6-2.7-13.5 6.2-21.1 25.8-22.6 32.2-1.6 6.3-7.4 10.4-13.8 9.6-0.9-0.1-13.5-1-21.4 6.8-6.2 6.1-8.7 16.5-7.6 31 0.9 10.8 4.4 18.1 10.8 22.3 13.3 8.8 37.4 3.8 44.8 1.4 1.3-0.4 2.6-0.6 3.9-0.6z" fill="#919191" p-id="2839"></path><path d="M275 429.3h545.5s-8-73.9-89.9-73.9c0 0-6-137.9-145.9-131.9S435.5 358.1 435.5 358.1s-44-72.8-118.6-31.7S275 429.3 275 429.3z" fill="#FE9D1D" p-id="2840"></path><path d="M820.5 442.1H275c-4.7 0-9.1-2.6-11.3-6.8-0.4-0.8-9.8-18.9-8.4-42.8 1.2-22 11.9-53.3 55.5-77.4 44-24.2 78.9-12.9 100.3 0.9 6.6 4.2 12.3 8.9 17.1 13.5 3.5-12.4 9.2-27.6 18.6-43.1 19.7-32.7 59.5-72.3 137.4-75.7 78.7-3.4 118 36.3 137 70.2 13.5 24 18.8 48.3 20.9 62.1 40.6 3.4 63 24.4 74.8 42.2 13.8 20.8 16.2 41.8 16.3 42.6 0.4 3.6-0.8 7.2-3.2 9.9s-5.9 4.4-9.5 4.4z m-536.8-25.5h520.5c-1.9-5.4-4.8-11.7-9-17.9-13.8-20.2-35.5-30.5-64.5-30.5-6.8 0-12.5-5.4-12.7-12.2 0-0.3-1.7-32.5-19.3-63.2-22.7-39.7-60.8-58.7-113.3-56.5-53.5 2.3-92.7 23.6-116.7 63.4-18 29.9-20.3 59.1-20.3 59.4-0.4 5.5-4.3 10.2-9.8 11.5-5.4 1.3-11-1.1-13.9-5.8-0.1-0.1-10.2-16.4-28-27.6-22.5-14.2-47.3-14-73.5 0.4-26.4 14.5-40.7 33.2-42.3 55.4-0.8 9.6 1.1 18 2.8 23.6z" fill="#919191" p-id="2841"></path><path d="M790.4 915.5H306.2l-70.5-497.4h625.2z" fill="#FFFFFF" p-id="2842"></path><path d="M610.8 746.8l-1.3 168.7h181L861 418.1h-45.2c-59.7 27.7-223.8 123.1-205 328.7z" opacity=".05" p-id="2843"></path><path d="M281.5 696.8a120.4 79.5 0 1 0 240.8 0 120.4 79.5 0 1 0-240.8 0Z" opacity=".05" p-id="2844"></path><path d="M870.6 409.8c-2.4-2.8-5.9-4.4-9.6-4.4H235.7c-3.7 0-7.2 1.6-9.6 4.4-2.4 2.8-3.5 6.5-3 10.2l70.5 497.4c0.9 6.3 6.3 11 12.6 11h484.3c6.4 0 11.7-4.7 12.6-11L873.6 420c0.5-3.7-0.6-7.4-3-10.2zM803.7 731h-102v171.8h-97.3V731H492.2v171.8h-97.3V731h-102l-42.5-300.1h595.9L803.7 731z" fill="#D63036" p-id="2845"></path><path d="M641.7 418.1H226.2L117.6 666.8h415.6z" fill="#FFFFFF" p-id="2846"></path><path d="M533.2 679.6H117.6c-4.3 0-8.3-2.2-10.7-5.8-2.4-3.6-2.7-8.1-1-12.1L214.5 413c2-4.7 6.6-7.7 11.7-7.7h415.6c4.3 0 8.3 2.2 10.7 5.8 2.4 3.6 2.7 8.1 1 12.1L544.9 671.9c-2 4.7-6.6 7.7-11.7 7.7z m-396.1-25.5h387.7l97.4-223.2H234.5l-97.4 223.2z" fill="#D63036" p-id="2847"></path></svg>