<?xml version="1.0" standalone="no"?><!DOCTYPE svg PUBLIC "-//W3C//DTD SVG 1.1//EN" "http://www.w3.org/Graphics/SVG/1.1/DTD/svg11.dtd"><svg t="1760599791366" class="icon" viewBox="0 0 1024 1024" version="1.1" xmlns="http://www.w3.org/2000/svg" p-id="14967" xmlns:xlink="http://www.w3.org/1999/xlink" width="200" height="200"><path d="M181.527273 884.363636h93.090909V395.636364s69.818182 93.090909 116.363636 69.818181 116.363636-93.090909 116.363637-93.090909 0 46.545455 69.818181 69.818182 116.363636 0 162.909091-69.818182l69.818182 69.818182c23.272727 23.272727 69.818182 23.272727 69.818182 23.272727v512h-744.727273v-93.090909h46.545455z" fill="#F7E5BE" p-id="14968"></path><path d="M877.381818 484.072727c-62.836364 0-109.381818-41.890909-118.690909-97.745454h-4.654545c-11.636364 58.181818-62.836364 97.745455-118.690909 97.745454-58.181818 0-107.054545-41.890909-118.69091-97.745454H512c-11.636364 58.181818-60.509091 97.745455-118.690909 97.745454-58.181818 0-107.054545-41.890909-118.690909-97.745454h-4.654546c-11.636364 58.181818-60.509091 97.745455-118.690909 97.745454-65.163636 0-146.618182-51.2-146.618182-121.018182L197.818182 46.545455h635.345454L1024 363.054545c0 69.818182-74.472727 121.018182-146.618182 121.018182zM814.545455 76.8H216.436364L37.236364 367.709091c0 34.909091 44.218182 79.127273 104.727272 79.127273 30.254545 0 86.109091-37.236364 86.109091-74.472728 6.981818-13.963636 13.963636-27.927273 39.563637-27.927272s32.581818 9.309091 39.563636 23.272727c0 34.909091 53.527273 79.127273 83.781818 79.127273 32.581818 0 79.127273-46.545455 79.127273-83.781819 4.654545-13.963636 16.290909-23.272727 44.218182-23.272727s32.581818 11.636364 39.563636 23.272727c0 34.909091 48.872727 83.781818 81.454546 83.781819 27.927273 0 79.127273-41.890909 79.127272-79.127273 6.981818-11.636364 18.618182-27.927273 44.218182-27.927273 23.272727 0 32.581818 11.636364 41.890909 25.6 0 34.909091 39.563636 83.781818 81.454546 83.781818s107.054545-51.2 107.054545-83.781818L814.545455 76.8z m-279.272728 214.109091h-46.545454v-51.2h-51.2v-46.545455H488.727273V144.290909h46.545454v51.2h51.2v46.545455H535.272727v48.872727z m-25.6 581.818182h-123.345454c-46.545455 0-141.963636-25.6-141.963637-121.018182 0-97.745455 97.745455-121.018182 141.963637-121.018182h249.018182c67.490909 0 141.963636 51.2 141.963636 121.018182s-72.145455 121.018182-141.963636 121.018182h-125.672728z m-121.018182-211.781818c-53.527273 0-114.036364 44.218182-114.036363 90.763636 0 51.2 58.181818 90.763636 116.363636 90.763636h102.4v-181.527272h-104.727273zM744.727273 751.709091c0-51.2-67.490909-90.763636-109.381818-90.763636H535.272727v181.527272h100.072728c44.218182 0 109.381818-41.890909 109.381818-90.763636z m-93.090909-46.545455c11.636364 6.981818 23.272727 16.290909 30.254545 30.254546 2.327273 4.654545 0 13.963636-4.654545 16.290909-6.981818 2.327273-13.963636 0-16.290909-4.654546-4.654545-9.309091-11.636364-16.290909-18.618182-20.945454-6.981818-2.327273-6.981818-9.309091-4.654546-16.290909 0-6.981818 9.309091-9.309091 13.963637-4.654546z m-53.527273 23.272728c-4.654545 0-9.309091-2.327273-11.636364-6.981819-2.327273-4.654545-2.327273-9.309091 0-11.636363 2.327273-4.654545 6.981818-6.981818 11.636364-6.981818s9.309091 2.327273 11.636364 6.981818c2.327273 4.654545 2.327273 9.309091 0 11.636363-4.654545 4.654545-6.981818 6.981818-11.636364 6.981819zM146.618182 970.472727h730.763636V532.945455h39.563637V1000.727273H116.363636V532.945455h30.254546v437.527272z m0 0" fill="#060606" p-id="14969"></path></svg>