<?xml version="1.0" standalone="no"?><!DOCTYPE svg PUBLIC "-//W3C//DTD SVG 1.1//EN" "http://www.w3.org/Graphics/SVG/1.1/DTD/svg11.dtd"><svg t="1761180624216" class="icon" viewBox="0 0 1024 1024" version="1.1" xmlns="http://www.w3.org/2000/svg" p-id="2668" xmlns:xlink="http://www.w3.org/1999/xlink" width="200" height="200"><path d="M456.421 346.114c126.858-5.063 238.973 8.265 315.611 56.494 25.32 15.935 66.696 46.134 49.051 92.405-15.624 40.979-61.203 61.468-102.38 78.712-144.225 60.406-472.304 63.193-546.829-52.192-20.096-31.114-4.693-64.978 13.99-84.581 43.168-45.305 113.006-64.329 186.57-80.766 27.989-3.357 55.996-6.711 83.987-10.072z" fill="#D0D6EA" p-id="2669"></path><path d="M488.533 616.08c-71.305 1.739-137.691-4.902-191.99-19.197-62.166-16.368-104.524-41.45-125.906-74.555-20.328-31.473-5.074-66.213 14.159-86.396 43.932-46.104 116.625-65.39 187.32-81.186l0.143-0.023 84.106-10.078c6.807-0.271 13.609-0.493 20.224-0.652 132.844-3.234 229.744 15.528 296.226 57.37 13.1 8.245 29.607 19.692 41.041 35.197 13.6 18.438 16.497 38.283 8.606 58.98-15.228 39.931-57.503 60.407-103.19 79.545-56.156 23.519-142.413 38.845-230.739 40.995zM372.685 357.64c-70.229 15.694-142.409 34.834-185.752 80.323-18.498 19.412-33.216 52.74-13.821 82.767 20.678 32.009 63.618 57.357 124.182 73.301 54.033 14.232 120.145 20.83 191.17 19.104 87.98-2.143 173.833-17.387 229.671-40.767 45.073-18.875 86.763-39.04 101.576-77.876 16.577-43.472-19.722-72.547-48.463-90.636-65.972-41.521-162.336-60.138-294.578-56.92-6.584 0.163-13.352 0.377-20.126 0.652l-83.859 10.052z" fill="#284780" p-id="2670"></path><path d="M461.455 373.139c110.506-4.266 208.137 6.168 274.804 44.544 22.026 12.67 58.012 36.702 42.565 73.679-13.688 32.736-53.42 49.174-89.319 63.016-125.729 48.476-411.508 51.287-476.213-40.7-17.446-24.803-3.972-51.86 12.333-67.547 37.681-36.242 98.554-51.549 162.657-64.801 24.386-2.737 48.788-5.466 73.173-8.191z" fill="#F2F3F9" p-id="2671"></path><path d="M488.927 587.914c-62.037 1.515-119.764-3.662-166.964-14.967-53.92-12.9-90.612-32.756-109.071-58.99-17.423-24.769-4.217-52.207 12.396-68.182 38.19-36.738 101.414-52.22 162.895-64.934l73.216-8.189c5.96-0.235 11.883-0.42 17.641-0.563 115.55-2.812 199.769 11.957 257.463 45.162 25.547 14.702 57.774 38.389 42.774 74.294-13.229 31.649-49.931 47.998-89.597 63.291-48.866 18.839-123.916 31.206-200.753 33.078zM479.06 373.07c-5.75 0.142-11.671 0.327-17.584 0.562l-73.139 8.179c-61.296 12.681-124.368 28.117-162.367 64.673-16.329 15.703-29.343 42.655-12.273 66.913 18.055 25.663 55.57 45.929 108.496 58.603 47.113 11.274 104.761 16.44 166.708 14.93 76.734-1.863 151.66-14.208 200.428-33.011 39.461-15.208 75.96-31.457 89.042-62.749 14.704-35.188-17.126-58.554-42.352-73.063-57.537-33.114-141.587-47.842-256.959-45.037z" fill="#D4DAEE" p-id="2672"></path><path d="M153.485 538.243s4.33-10.012 28.401-24.137c5.646-9.982 5.685-19.924 8.42-21.468 2.735-1.539 53.874-18.134 71.162-25.352 19.302-4.693 70.034-24.15 85.513-36.311 15.475-12.165 14.661-17.817 43.932-26.225 23.303-18.65 32.21-19.328 50.593-27.117 17.843-4.948 42.638-23.4 50-31.549 14.417-3.575 53.87-23.985 65.532-33.636 23.479-3.87 36.314-5.904 60.803-35.256 59.688-13.832 228.376-88.053 256.163 6.34-26.591-2.352-279.007 94.165-301.523 110.447-22.51 16.275-50.977 41.854-85.942 49.925-32.978 16.09-47.15 26.277-87.864 52.441-66.998 36.14-225.891 93.497-241.482 52.7-3.205-10.445-3.708-10.802-3.708-10.802z" fill="#EBA54A" p-id="2673"></path><path d="M240.131 560.546c-50.659 11.592-79.876 8.226-86.845-10.009l-0.086-0.268c-1.759-5.72-2.643-8.223-3.052-9.271l-1.839-1.31 1.346-3.099c0.49-1.142 5.438-11.395 29.112-25.496 2.388-4.519 3.592-9.014 4.574-12.675 1.217-4.547 2.097-7.835 4.912-9.416 1.273-0.717 5.642-2.249 22.358-7.967 16.494-5.639 39.086-13.359 49.247-17.605l0.618-0.202c18.458-4.488 68.946-23.77 83.925-35.538 3.814-2.993 6.652-5.632 9.165-7.961 7.699-7.144 13.292-12.327 35.392-18.763 18.286-14.542 27.934-18.23 40.109-22.877 3.371-1.293 6.855-2.623 10.812-4.293l0.513-0.185c16.797-4.66 40.972-22.536 48.013-30.325l0.854-0.949 1.243-0.308c13.574-3.367 52.38-23.291 63.876-32.802l0.87-0.718 1.35-0.218c5.251-0.87 9.799-1.617 14.093-2.6 14.38-3.294 25.648-9.238 43.935-31.179l0.9-1.078 1.368-0.317c10.332-2.395 24.021-6.635 39.877-11.549 22.071-6.84 47.078-14.589 72.852-20.496 85.89-19.663 134.426-6.156 148.394 41.279l1.726 5.88-6.105-0.542c-1.154-0.099-4.303 0.003-12.372 1.849-57.387 13.144-266.103 93.199-286.33 107.824-3.913 2.825-8.001 5.937-12.334 9.224-20.128 15.307-45.152 34.331-74.651 41.279-27.173 13.282-41.275 22.417-69.242 40.516a4841.627 4841.627 0 0 1-17.774 11.479l-0.274 0.166c-38.04 20.52-105.395 47.891-160.53 60.52z m-78.986-12.87c5.219 13.24 32.594 14.913 77.118 4.721 54.344-12.443 120.719-39.404 158.278-59.649 6.49-4.167 12.304-7.928 17.623-11.374 28.394-18.383 42.635-27.607 70.543-41.227l0.424-0.205 0.465-0.106c27.958-6.453 52.347-25 71.946-39.896 4.372-3.321 8.497-6.459 12.489-9.347 21.249-15.356 229.354-95.461 289.369-109.196 3.531-0.81 6.476-1.376 8.916-1.713-7.805-20.718-23.994-32.955-49.336-37.324-22.076-3.81-50.692-1.564-87.493 6.86-25.474 5.834-50.319 13.534-72.243 20.33-15.333 4.753-28.662 8.883-39.104 11.381-19.206 22.777-32.038 29.346-47.579 32.901-4.301 0.982-8.901 1.76-13.76 2.557-12.936 10.161-49.888 29.128-65.065 33.428-8.649 8.949-32.988 26.707-50.845 31.771-3.982 1.684-7.472 3.016-10.841 4.303-11.639 4.445-20.831 7.958-38.525 22.126l-0.651 0.519-0.808 0.232c-20.853 5.99-25.354 10.167-32.816 17.089-2.636 2.435-5.612 5.199-9.687 8.408-15.955 12.532-67.017 32.121-86.792 37.003-10.531 4.366-32.098 11.741-49.452 17.678-8.877 3.033-18.039 6.161-20.549 7.167-0.397 0.877-0.926 2.848-1.363 4.465-1.108 4.148-2.633 9.826-5.891 15.583l-0.552 0.979-0.97 0.566c-17.092 10.034-23.697 17.81-25.827 20.862 0.675 1.808 1.595 4.617 2.978 9.108z" fill="#F5E79F" p-id="2674"></path><path d="M334.577 526.577s-64.046 10.936-84.116 15.685c-20.073 4.749-127.844 31.54-134.039 37.622-6.201 6.081-15.234 33.87-6.446 31.966 8.791-1.909 11.166-0.89 11.166-0.89s-8.801 12.495-0.992 15.806c7.809 3.305 75.941 13.895 121.791 6.032 45.851-7.861 148.287-29.806 161.899-26.362 24.581-13.55 40.748-33.445 75.465-39.706 34.715-6.261 407.351-172.946 420.107-197.417 12.757-24.478-36.583-73.857-53.269-76.635-16.696-2.778-25.802 5.514-37.956 3.02-12.148-2.494-138.076 61.071-168.435 85.291-30.365 24.22-113.076 55.514-129.68 64.236-16.603 8.715-71.191 40.32-84.043 44.874-12.852 4.557-82.7 35.1-91.452 36.478z" fill="#F3A848" p-id="2675"></path><path d="M404.316 610.149l-1.336-0.338c-9.055-2.292-68.472 9.079-111.855 17.374-18.385 3.516-35.753 6.84-48.595 9.042-46.396 7.957-115.785-2.891-123.736-6.258-2.546-1.084-4.273-2.976-4.991-5.483-0.936-3.28 0.083-7.024 1.399-10.044a57.13 57.13 0 0 0-4.485 0.81c-2.903 0.63-5.438-0.486-6.787-2.993-4.111-7.619 4.578-29.491 10.054-34.859 7.849-7.71 134.406-38.233 135.672-38.525l1.304-0.307c21.223-4.861 82.417-15.32 83.031-15.425 0.162-0.023 0.294-0.055 0.44-0.083 6.525-1.493 35.092-13.432 58.044-23.02 14.751-6.165 27.488-11.493 32.394-13.226 8.565-3.036 37.908-19.388 59.331-31.324 10.217-5.696 19.04-10.617 24.253-13.353 4.669-2.447 14.221-6.548 26.316-11.748 32.311-13.868 81.128-34.83 102.804-52.125 27.389-21.848 138.913-79.423 165.736-85.565 2.49-0.572 4.207-0.701 5.576-0.417 3.942 0.807 7.554 0.321 12.108-0.717 0.872-0.202 1.757-0.417 2.655-0.636 6.496-1.571 13.662-3.254 23.066-1.693 12.997 2.166 40.905 27.256 52.723 50.95 6.19 12.413 7.224 22.751 3.065 30.729-8.057 15.456-129.027 72.855-200.421 105.697-92.788 42.684-202.891 90.081-222.164 93.542a106.58 106.58 0 0 0-4.805 0.981c-20.301 4.645-33.614 14.084-47.706 24.075-6.873 4.871-13.98 9.913-21.892 14.268l-1.198 0.671z m-294.475-1.833c8.486-1.762 11.678-0.985 12.67-0.556l3.946 1.691-2.471 3.509c-1.783 2.55-4.128 7.376-3.483 9.614 0.086 0.307 0.245 0.658 1.005 0.984 7.624 3.229 74.654 13.551 119.843 5.806 12.78-2.187 30.118-5.505 48.463-9.014 58.419-11.179 101.203-19.06 113.401-17.559 7.153-4.038 13.762-8.725 20.165-13.259 14.026-9.945 28.532-20.229 50.179-25.183 1.681-0.387 3.4-0.734 5.126-1.049 0.308-0.056 0.648-0.124 1.016-0.207 19.464-4.459 117.921-46.093 219.475-92.806 139.495-64.173 193.389-95.368 197.146-102.585 3.827-7.339 0.418-17.324-3.115-24.408-11.374-22.801-37.733-45.539-47.639-47.187-6.456-1.078-11.652-0.407-17.477 0.926-0.953 0.219-1.886 0.444-2.805 0.668-0.923 0.222-1.836 0.443-2.741 0.651-4.277 0.976-9.327 1.928-15.06 0.751-0.004 0-0.651-0.069-2.622 0.38-23.38 5.354-134.588 61.603-162.941 84.222-22.411 17.876-71.755 39.063-104.401 53.08-11.959 5.137-21.405 9.192-25.828 11.514-5.139 2.695-13.93 7.597-24.106 13.269-22.841 12.73-51.271 28.573-60.394 31.807-4.723 1.67-17.379 6.956-32.035 13.084-24.405 10.2-52.069 21.759-59.169 23.383-0.327 0.073-0.615 0.125-0.87 0.172-0.565 0.093-61.57 10.524-82.605 15.34l-1.25 0.294c-35.63 8.428-126.18 31.751-132.467 36.775-4.637 4.552-9.882 21.409-8.956 25.893z" fill="#F5E79F" p-id="2676"></path><path d="M125.782 612.838s14.477-19.658 27.779-17.937c13.299 1.728 12.819 8.57 29.197-0.082 16.375-8.645 36.566-20.386 50.454-15.236 28.057-14.907 64.802-31.593 99.033-25.857 53.043-15.476 174.067-59.666 197.464-87.603 47.321-4.61 60.994-12.985 78.229-33.183 27.53 0.271 40.51-36.817 64.309-38.815 23.808-1.992 46.728-0.222 67.246-30.061 50.534-9.363 109.361-26.929 121.54-25.397 12.185 1.531 20.624 5.1 20.624 5.1s-176.961 101.55-351.796 180.755c-174.834 79.201-209.509 77.326-209.509 77.326s-186.024 29.227-194.57 10.99zM158.221 539.87s24.958 2.498 55.491-7.434c30.541-9.933 43.959-8.832 46.314-8.468 2.357 0.363 9.362-21.313 19.52-22.953 10.156-1.635 15.512 4.163 19.973-2.676 4.458-6.836-2.762-25.993 62.424-39.993 22.275-35.498 44.695-30.586 48.076-29.039 3.379 1.551 1.091-11.632 11.239-17.321 10.143-5.686 15.237-4.303 15.237-4.303s108.72-70.712 123.815-70.821c15.092-0.105 174.609-103.246 285.41-78.914 17.502 1.918-151.121 43.204-229.166 93.977-78.05 50.765-87.069 52.077-96.151 58.07-9.082 5.99-53.027 20.817-78.256 39.864-25.234 19.037-199.891 110.36-242.189 97.979-46.847-2.556-41.737-7.968-41.737-7.968z" fill="#EC8C19" p-id="2677"></path><path d="M442.394 567.872s-2.653 130.279 120.786 187.899c123.443 57.624 214.619-13.174 236.702-35.385 22.08-22.207 73.037-80.945 71.981-157.391-85.701 5.854-429.469 4.877-429.469 4.877z" fill="#7A502F" p-id="2678"></path><path d="M443.643 572.284s-9.24-43.827 73.471-73.473c82.707-29.642 197.212-21.912 243.611-9.672 46.406 12.25 108.495 56.292 110.205 73.478-26.214 21.477-149.517 100.534-369.281 40.602-51.123-22.342-58.006-30.935-58.006-30.935z" fill="#FBE4BF" p-id="2679"></path><path d="M656.238 628.755c-49.303 0-101.629-7.452-155.512-22.146l-0.486-0.172c-50.465-22.055-58.577-31.011-59.339-31.966l-0.522-0.652-0.169-0.813c-0.406-1.914-8.9-47.17 75.715-77.495 47.871-17.159 102.411-20.76 139.737-20.76 47.398 0 85.811 5.675 105.959 10.997 45.434 11.989 110.794 56.324 112.805 76.523l0.186 1.869-1.455 1.194c-12.923 10.589-84.113 63.421-216.919 63.421z m-153.422-28.858c53.202 14.49 104.821 21.835 153.429 21.835 125.493 0 194.54-47.694 210.793-60.495-5.474-15.786-62.46-56.89-107.202-68.698-19.728-5.206-57.445-10.765-104.173-10.765-36.771 0-90.45 3.529-137.365 20.343-41.253 14.791-58.418 33.008-65.555 45.688-6.251 11.112-6.049 19.996-5.781 22.832 2.474 2.17 13.97 10.944 55.854 29.26z" fill="#FFFFFF" p-id="2680"></path><path d="M657.136 642.004c29.614 0 53.622 24.008 53.622 53.616 0 29.618-24.008 53.621-53.622 53.621s-53.616-24.003-53.616-53.621c0-29.608 24.001-53.616 53.616-53.616z" fill="#A57D52" p-id="2681"></path><path d="M453.053 572.284s-8.083-29.386 17.876-35.144c25.959-5.765 9.439 4.993 28.599-6.357 19.164-11.341 42.212-14.565 62.176-13.622 19.973 0.954 26.373-10.452 41.038-12.708 14.662-2.259 42.245-4.676 69.641 2.726 21.335 0.764 10.751-0.325 34.813 0 24.061 0.324 43.237 3.477 59.698 13.613 16.454 10.146 23.436 11.257 33.57 11.807 10.14 0.549 39.136 13.881 43.968 18.498 3.617 4.611 17.972 11.239 17.972 11.239s-76.281 56.186-201.207 60.15c-103.743-7.977-126.839-12.689-171.614-31.786-44.775-19.088-36.53-18.416-36.53-18.416z" fill="#F8F7CA" p-id="2682"></path><path d="M661.144 624.597l-0.112-0.014c-102.125-7.851-126.276-12.332-172.271-31.938-39.153-16.695-38.786-18.489-38.355-20.573 0.042-0.237 0.135-0.485 0.271-0.71-0.85-4.088-2.56-15.71 3.04-25.007 3.477-5.785 9.121-9.578 16.759-11.275 5.694-1.263 9.955-1.878 13.012-1.878 2.691 0 3.975 0.482 4.825 0.803 0.161 0.066 0.409 0.149 0.459 0.149 0.926 0 5.993-2.993 9.691-5.186 19.642-11.626 41.656-14.067 56.662-14.067 2.215 0 4.471 0.05 6.684 0.156 11.196 0.528 18.032-3.083 24.613-6.575 4.747-2.527 9.657-5.137 16.005-6.116 6.77-1.042 17.43-2.285 29.779-2.285 14.507 0 28.13 1.679 40.499 4.997 5.14 0.189 8.742 0.272 11.318 0.272 2.215 0 3.555-0.066 5.109-0.133 3.004-0.139 6.581-0.304 18.098-0.148 27.343 0.366 45.513 4.533 60.77 13.927 16.476 10.156 23.113 10.982 32.582 11.496 10.673 0.583 39.956 13.967 45.308 19.084l0.199 0.218c2.718 3.46 13.338 8.844 17.207 10.631l3.232 1.49-2.872 2.121c-0.767 0.563-78.249 56.615-202.392 60.558l-0.12 0.003z m-205.895-52.28c2.435 1.607 10.224 5.82 35.161 16.451 45.431 19.368 69.392 23.806 170.829 31.608 109.336-3.496 181.87-47.692 196.988-57.724-4.58-2.295-12.439-6.566-15.346-10.118-4.836-4.432-33.27-17.333-42.537-17.829-10.163-0.553-17.564-1.642-34.556-12.111-14.559-8.977-32.095-12.952-58.619-13.313-11.338-0.152-14.9 0.01-17.844 0.146-1.604 0.072-2.993 0.135-5.305 0.135-2.669 0-6.391-0.089-11.712-0.278l-0.473-0.073c-12.065-3.257-25.404-4.91-39.633-4.91-12.081 0-22.511 1.22-29.139 2.231-5.647 0.873-10.027 3.199-14.671 5.666-7.064 3.761-14.384 7.663-26.786 7.071-2.15-0.1-4.333-0.159-6.485-0.159-14.477 0-35.694 2.345-54.521 13.487-8.294 4.908-10.066 5.775-11.833 5.775-0.813 0-1.409-0.226-1.938-0.424-0.636-0.241-1.423-0.533-3.347-0.533-2.709 0-6.781 0.6-12.103 1.78-6.466 1.435-11.199 4.571-14.063 9.33-5.844 9.718-2.271 23.059-2.235 23.194l0.168 0.598z" fill="#F3E485" p-id="2683"></path><path d="M703.272 569.238s-6.29-16.963 36.855-25.133c30.9-5.845 30.467-6.011 38.53-5.018 6.258-6.258 75.088-62.539 92.138-65.34 17.049-2.801 15.554 0.748 16.755 3.354 1.204 2.6 10.547 13.947-22.622 25.967-31.953 17.449-33.002 15.511-49.412 33.5-16.409 17.99-24.283 27.643-24.283 27.643s-1.336 0.325-5.03 1.674c-3.701 1.35-6.314 3.841-10.895 3.354-4.578-0.49-13.518-2.895-24.29-3.354-10.778-0.46-18.653 4.34-25.133 5.864-6.472 1.528-22.613-2.511-22.613-2.511z" fill="#98744E" p-id="2684"></path><path d="M722.175 574.202c-7.65 0-18.938-2.797-19.411-2.919l-1.084-0.269-0.385-1.042c-0.065-0.179-1.587-4.439 1.433-9.777 4.677-8.284 17.129-14.394 37.014-18.153l7.6-1.439c22.6-4.304 23.615-4.554 30.583-3.728 9.912-9.198 75.359-62.383 92.531-65.202 4.313-0.711 7.659-1.055 10.232-1.055 6.439 0 7.733 2.388 8.503 4.829 0.083 0.258 0.159 0.522 0.278 0.771 0.069 0.149 0.176 0.337 0.294 0.556 0.943 1.707 3.148 5.705 1.281 10.687-2.441 6.512-10.703 12.241-25.239 17.533-6.667 3.634-12.045 6.459-16.365 8.735-16.652 8.747-19.652 10.324-32.366 24.266-16.176 17.728-24.134 27.457-24.213 27.547l-0.442 0.554-0.692 0.164c-0.003 0-1.319 0.337-4.803 1.61-0.991 0.364-1.904 0.824-2.873 1.304-2.51 1.257-5.133 2.584-8.964 2.163-1.57-0.172-3.592-0.543-5.929-0.977-4.69-0.876-11.114-2.06-18.225-2.36-7.114-0.331-12.892 1.812-17.982 3.675-2.308 0.844-4.487 1.639-6.579 2.133-1.142 0.265-2.52 0.394-4.197 0.394z m-17.103-6.696c3.149 0.724 11.407 2.48 17.103 2.48 1.333 0 2.422-0.097 3.231-0.288 1.849-0.434 3.916-1.191 6.103-1.981 5.175-1.892 11.675-4.268 19.603-3.933 7.411 0.317 14.004 1.538 18.815 2.427 2.25 0.421 4.197 0.778 5.609 0.933 2.597 0.279 4.432-0.641 6.621-1.739 1.035-0.517 2.107-1.052 3.321-1.495 2.354-0.858 3.78-1.318 4.541-1.544 1.855-2.239 9.77-11.681 23.938-27.21 13.217-14.49 16.713-16.332 33.52-25.156 4.34-2.282 9.747-5.122 16.448-8.784l0.284-0.133c16.475-5.966 21.538-11.51 22.891-15.105 1.185-3.161-0.198-5.668-1.028-7.17a16.464 16.464 0 0 1-0.433-0.831 10.573 10.573 0 0 1-0.467-1.273c-0.374-1.164-0.592-1.872-4.488-1.872-2.309 0-5.514 0.331-9.552 0.992-16.066 2.643-84.802 58.562-90.989 64.745l-0.725 0.728-1.022-0.122c-2.244-0.281-3.697-0.447-5.337-0.447-3.86 0-9.169 1.01-24.936 4.009l-7.604 1.442c-23.178 4.39-31.35 11.169-34.132 16.091-1.282 2.262-1.405 4.147-1.315 5.236z" fill="#B59A80" p-id="2685"></path><path d="M485.733 550.991c7.389 19.884 30.272 16.279 46.675 11.497 11.316-3.298 22.241-7.84 33.314-11.835 7.835-2.824 17.853-7.081 26.356-5.292 2.914 0.609 6.445-0.23 8.629-2.314 1.858-1.779 1.35-4.164-1.267-4.716-18.101-3.811-38.081 6.535-54.582 12.647-13.895 5.149-39.55 16.586-46.915-3.254-1.715-4.612-13.817-1.062-12.21 3.267z" fill="#F8EFA7" p-id="2686"></path><path d="M594.553 582.415c24.958-10.577 56.08 0.252 80.062 9.2 12.043 4.499 24.271 8.798 37.231 9.357 13.742 0.599 24.879-6.942 37.622-10.481 7.393-2.051 5.504-9.208-1.912-7.146-6.297 1.742-12.208 4.422-18.233 6.897-7.637 3.14-14.84 3.312-22.851 1.757-13.365-2.589-25.927-8.572-38.885-12.58-25.282-7.826-52.79-13.763-78.127-3.023-7.789 3.296-0.768 8.505 5.093 6.019zM650.937 543.897c11.306-0.361 21.724-3.946 32.592-6.688 11.291-2.848 23.74 3.813 34.913 5.319 2.934 0.393 6.337-0.377 8.632-2.315 1.862-1.57 1.472-3.716-1.085-4.056-11.486-1.552-22.229-6.026-33.91-6.384-12.297-0.379-23.962 7.122-36.313 7.512-2.752 0.093-6.33 0.893-8.069 3.269-1.691 2.301 1.418 3.4 3.24 3.343z" fill="#F3E485" p-id="2687"></path></svg>