<?xml version="1.0" standalone="no"?><!DOCTYPE svg PUBLIC "-//W3C//DTD SVG 1.1//EN" "http://www.w3.org/Graphics/SVG/1.1/DTD/svg11.dtd"><svg t="1761180555485" class="icon" viewBox="0 0 1024 1024" version="1.1" xmlns="http://www.w3.org/2000/svg" p-id="2184" xmlns:xlink="http://www.w3.org/1999/xlink" width="200" height="200"><path d="M518.144 520.192m-460.8 0a460.8 460.8 0 1 0 921.6 0 460.8 460.8 0 1 0-921.6 0Z" fill="#2D2A2B" p-id="2185"></path><path d="M516.096 520.192m-401.408 0a401.408 401.408 0 1 0 802.816 0 401.408 401.408 0 1 0-802.816 0Z" fill="#B92B20" p-id="2186"></path><path d="M305.152 471.04c-2.048-4.096-16.384-12.288-14.336-22.528 2.048-10.24 10.24-38.912 16.384-45.056 6.144-6.144 16.384-16.384 16.384-18.432s61.44-12.288 81.92 16.384c10.24 24.576-18.432 65.536-16.384 79.872-8.192 10.24-10.24 18.432-38.912 10.24s-22.528-12.288-30.72-10.24c-10.24 2.048-6.144-2.048-8.192-4.096s-6.144-2.048-6.144-6.144z" fill="#E8CC70" p-id="2187"></path><path d="M307.2 450.56s-6.144-4.096 0-16.384c6.144-12.288 4.096-24.576 16.384-34.816 8.192-6.144 14.336-4.096 20.48-4.096 6.144 0 24.576 2.048 30.72 6.144 6.144 6.144 16.384 8.192 12.288 28.672-2.048 12.288-12.288 28.672-10.24 36.864-2.048 6.144-6.144 18.432-20.48 14.336-4.096-2.048-8.192-2.048 18.432-34.816 6.144-14.336 8.192-18.432 8.192-26.624s-6.144-8.192-8.192-6.144c-2.048 2.048 4.096 40.96-28.672 57.344-4.096 0-14.336-8.192-6.144-14.336s22.528-16.384 24.576-22.528c2.048-4.096 4.096-16.384-4.096-22.528-4.096 2.048-2.048 8.192-2.048 14.336-2.048 6.144 0 16.384-12.288 18.432-2.048-4.096 4.096-24.576 6.144-28.672 2.048-4.096-2.048-10.24-8.192-2.048-4.096 8.192-2.048 28.672-4.096 30.72s-8.192 10.24-10.24-4.096-6.144-34.816 18.432-36.864c8.192 2.048 6.144-2.048 0-4.096s-20.48 2.048-26.624 18.432 6.144 26.624 8.192 34.816c0 6.144-4.096 14.336 8.192 20.48 6.144 4.096 12.288 12.288-6.144 8.192-16.384-6.144-20.48-14.336-22.528-16.384s10.24-2.048-2.048-14.336z" fill="#E8A4CA" p-id="2188"></path><path d="M655.36 565.248h18.432c4.096-2.048 6.144-4.096 8.192-6.144 2.048-4.096 0-8.192-2.048-8.192h-8.192c-2.048 0-4.096 2.048-6.144 2.048-2.048 0-4.096 2.048-6.144 2.048-2.048 0-2.048 2.048-2.048 2.048s-8.192 2.048-24.576 4.096c-8.192 0-16.384 2.048-26.624 4.096s-20.48 2.048-30.72 4.096c-22.528 2.048-45.056 6.144-67.584 10.24-10.24 2.048-20.48 6.144-28.672 8.192-2.048 0-4.096 2.048-6.144 2.048-2.048 0-4.096 2.048-6.144 2.048-2.048 0-4.096 2.048-6.144 2.048-2.048 0-4.096 2.048-4.096 2.048v8.192c2.048 0 4.096-2.048 6.144-4.096 2.048 0 2.048-2.048 4.096-2.048s2.048-2.048 4.096-2.048c6.144-2.048 14.336-6.144 22.528-8.192 8.192-2.048 18.432-6.144 28.672-8.192 10.24-2.048 20.48-4.096 32.768-6.144 22.528-2.048 43.008-4.096 61.44-6.144 8.192 0 18.432-2.048 24.576-2.048h14.336z" fill="#F9F7F9" p-id="2189"></path><path d="M647.168 567.296c4.096-2.048 8.192-2.048 10.24-4.096 2.048-2.048 6.144-4.096 8.192-4.096 4.096-4.096 6.144-6.144 6.144-8.192 2.048-4.096-2.048-8.192-6.144-6.144-2.048 0-6.144 2.048-8.192 4.096-2.048 2.048-4.096 4.096-6.144 4.096-2.048 2.048-4.096 2.048-4.096 4.096l-2.048 2.048h-2.048c-2.048 0-2.048 2.048-4.096 2.048-2.048 2.048-4.096 2.048-8.192 4.096-2.048 2.048-6.144 4.096-10.24 6.144l-12.288 6.144c-4.096 2.048-8.192 4.096-14.336 6.144-4.096 2.048-10.24 4.096-16.384 6.144-6.144 2.048-10.24 4.096-16.384 6.144l-36.864 12.288-18.432 6.144c-6.144 2.048-12.288 4.096-18.432 4.096-12.288 4.096-22.528 8.192-30.72 12.288-4.096 2.048-8.192 4.096-12.288 8.192l-2.048 2.048-2.048 2.048-2.048 2.048-2.048 2.048v4.096s0 2.048 2.048 2.048c0 2.048 2.048 2.048 2.048 2.048 2.048-2.048 4.096-8.192 10.24-12.288h2.048l2.048-2.048 2.048-2.048h4.096l2.048-2.048s2.048 0 2.048-2.048c0 0 2.048 0 4.096-2.048 2.048 0 2.048 0 4.096-2.048 8.192-4.096 20.48-6.144 30.72-10.24 12.288-4.096 22.528-6.144 34.816-10.24 24.576-8.192 47.104-16.384 65.536-24.576 18.432-8.192 34.816-14.336 43.008-18.432z" fill="#F9F7F9" p-id="2190"></path><path d="M636.928 575.488c8.192 0 14.336-2.048 20.48-4.096 4.096-2.048 8.192-4.096 10.24-4.096 2.048-2.048 2.048-4.096 2.048-6.144 0-2.048-2.048-2.048-4.096-2.048-6.144 0-14.336 2.048-18.432 2.048l-8.192 4.096s-2.048 0-8.192 2.048c-4.096 2.048-12.288 4.096-20.48 6.144-16.384 4.096-38.912 12.288-63.488 18.432-24.576 8.192-51.2 16.384-73.728 22.528-12.288 4.096-22.528 6.144-32.768 10.24s-18.432 6.144-24.576 10.24v8.192c4.096-2.048 8.192-4.096 14.336-8.192 6.144-2.048 16.384-6.144 24.576-10.24 20.48-6.144 43.008-14.336 67.584-20.48 24.576-6.144 49.152-14.336 69.632-18.432 10.24-2.048 18.432-4.096 26.624-6.144 8.192-2.048 14.336-2.048 18.432-4.096z" fill="#F9F7F9" p-id="2191"></path><path d="M645.12 608.256h20.48c6.144-2.048 8.192-4.096 10.24-6.144 4.096-4.096 2.048-8.192-2.048-8.192h-8.192c-4.096 0-6.144 2.048-8.192 2.048-2.048 0-4.096 2.048-6.144 2.048h-10.24c-4.096 0-12.288 2.048-20.48 2.048s-20.48 2.048-30.72 2.048c-12.288 0-24.576 2.048-36.864 2.048-26.624 2.048-55.296 2.048-81.92 6.144l-36.864 6.144c-2.048 0-6.144 2.048-8.192 2.048-2.048 0-4.096 2.048-8.192 2.048-2.048 0-4.096 2.048-6.144 2.048-2.048 0-4.096 2.048-6.144 2.048 0 0 0 2.048-2.048 4.096v4.096c2.048 0 4.096-2.048 8.192-2.048 2.048 0 4.096 0 4.096-2.048 2.048 0 4.096-2.048 6.144-2.048 8.192-2.048 16.384-4.096 28.672-6.144 10.24-2.048 22.528-4.096 34.816-4.096 12.288-2.048 26.624-2.048 38.912-2.048 26.624-2.048 53.248-2.048 75.776-2.048h40.96c0-4.096 2.048-4.096 4.096-4.096z m22.528-20.48h20.48c4.096-2.048 8.192-2.048 10.24-4.096 4.096-4.096 2.048-8.192-2.048-8.192h-8.192c-2.048 0-6.144 0-8.192 2.048-2.048 0-4.096 2.048-6.144 2.048h-10.24c-4.096 0-12.288 0-20.48 2.048h-63.488c-24.576 0-53.248 2.048-77.824 6.144-12.288 2.048-24.576 4.096-34.816 6.144-2.048 0-4.096 2.048-8.192 2.048-2.048 0-4.096 2.048-6.144 2.048-2.048 0-4.096 2.048-6.144 2.048-2.048 0-4.096 2.048-6.144 2.048v8.192c2.048 0 4.096-2.048 6.144-4.096 2.048 0 2.048-2.048 4.096-2.048s4.096-2.048 4.096-2.048c6.144-2.048 16.384-4.096 26.624-8.192 10.24-2.048 20.48-4.096 32.768-6.144 12.288-2.048 24.576-2.048 36.864-2.048 24.576-2.048 49.152 0 71.68 0h38.912c2.048 2.048 4.096 2.048 6.144 2.048z" fill="#F9F7F9" p-id="2192"></path><path d="M634.88 614.4c16.384-2.048 24.576-8.192 26.624-12.288 2.048-4.096 0-8.192-4.096-8.192-6.144 0-12.288 4.096-16.384 6.144l-8.192 4.096s-2.048 0-6.144 2.048c-4.096 2.048-10.24 4.096-18.432 6.144-16.384 6.144-36.864 12.288-61.44 18.432-24.576 6.144-49.152 14.336-73.728 18.432-24.576 6.144-45.056 10.24-61.44 12.288l-2.048 8.192c4.096-2.048 10.24-2.048 16.384-4.096 4.096 0 8.192-2.048 12.288-2.048 4.096 0 8.192-2.048 14.336-4.096 20.48-4.096 45.056-10.24 67.584-16.384 24.576-6.144 47.104-12.288 67.584-18.432 4.096-2.048 10.24-2.048 14.336-4.096 4.096-2.048 8.192-2.048 12.288-4.096 10.24 0 16.384-2.048 20.48-2.048z" fill="#F9F7F9" p-id="2193"></path><path d="M616.448 606.208c32.768-4.096 32.768-18.432 24.576-18.432-12.288 0-24.576 8.192-24.576 8.192s-159.744 45.056-219.136 63.488l-2.048 6.144c30.72-12.288 188.416-55.296 221.184-59.392z" fill="#F9F7F9" p-id="2194"></path><path d="M610.304 569.344c16.384-6.144 24.576-12.288 26.624-18.432 2.048-4.096-2.048-8.192-6.144-6.144-6.144 2.048-12.288 6.144-16.384 8.192l-6.144 6.144s-2.048 2.048-6.144 4.096c-4.096 2.048-10.24 6.144-18.432 10.24l-61.44 30.72c-24.576 12.288-49.152 22.528-73.728 32.768-24.576 10.24-45.056 18.432-61.44 22.528l-2.048 6.144c4.096-2.048 10.24-4.096 18.432-8.192 4.096-2.048 8.192-4.096 12.288-4.096 4.096-2.048 10.24-4.096 14.336-6.144 20.48-8.192 45.056-18.432 69.632-28.672 24.576-10.24 49.152-20.48 67.584-30.72 4.096-2.048 10.24-4.096 14.336-6.144l12.288-6.144c6.144-2.048 12.288-6.144 16.384-6.144z" fill="#F9F7F9" p-id="2195"></path><path d="M663.552 577.536c38.912-8.192 38.912-22.528 28.672-20.48-14.336 2.048-28.672 12.288-28.672 12.288S477.184 632.832 409.6 655.36l-2.048 6.144c32.768-16.384 215.04-77.824 256-83.968z m-6.144 51.2h18.432c4.096 0 6.144-2.048 8.192-4.096 4.096-4.096 2.048-8.192-2.048-8.192-6.144-2.048-10.24 0-16.384 0-4.096 0-8.192 2.048-8.192 2.048h-6.144c-4.096 0-10.24 0-18.432 2.048-14.336 2.048-34.816 4.096-55.296 6.144-20.48 4.096-45.056 8.192-65.536 14.336-20.48 6.144-38.912 12.288-51.2 16.384l-2.048 6.144c4.096-2.048 8.192-4.096 14.336-6.144 4.096-2.048 6.144-2.048 10.24-4.096 2.048 0 4.096-2.048 6.144-2.048 2.048 0 4.096-2.048 6.144-2.048 16.384-6.144 36.864-10.24 59.392-14.336 20.48-4.096 43.008-6.144 61.44-8.192h22.528c8.192 0 14.336 0 18.432 2.048z" fill="#F9F7F9" p-id="2196"></path><path d="M587.776 645.12c8.192 0 12.288 0 16.384-2.048 2.048 0 4.096-2.048 6.144-2.048 2.048 0 2.048-2.048 4.096-2.048 4.096-4.096 2.048-8.192-2.048-8.192h-8.192c-2.048 0-6.144 0-8.192 2.048-2.048 0-2.048 0-4.096 2.048 0 0-2.048 0-2.048 2.048-2.048 0-2.048 2.048-2.048 2.048h-6.144c-4.096 0-10.24 2.048-18.432 4.096s-16.384 4.096-24.576 8.192c-10.24 4.096-20.48 6.144-30.72 10.24-43.008 14.336-90.112 30.72-116.736 38.912l-2.048 4.096c12.288-6.144 55.296-20.48 96.256-34.816 10.24-4.096 20.48-6.144 30.72-10.24s20.48-6.144 28.672-8.192l24.576-6.144h18.432z" fill="#F9F7F9" p-id="2197"></path><path d="M612.352 632.832h18.432c4.096 0 6.144-2.048 8.192-4.096 4.096-4.096 2.048-8.192-2.048-8.192-6.144-2.048-10.24 0-16.384 0-4.096 0-8.192 2.048-8.192 2.048h-6.144c-4.096 0-10.24 0-18.432 2.048-14.336 2.048-34.816 4.096-55.296 6.144-20.48 4.096-45.056 8.192-65.536 14.336-20.48 6.144-38.912 12.288-51.2 16.384l-2.048 6.144c4.096-2.048 8.192-4.096 14.336-6.144 4.096-2.048 6.144-2.048 10.24-4.096 2.048 0 4.096-2.048 6.144-2.048 2.048 0 4.096-2.048 6.144-2.048 16.384-6.144 36.864-10.24 59.392-14.336 20.48-4.096 43.008-6.144 61.44-8.192H593.92c10.24 0 16.384 0 18.432 2.048z" fill="#F9F7F9" p-id="2198"></path><path d="M542.72 649.216c8.192 0 12.288 0 16.384-2.048 2.048 0 4.096-2.048 6.144-2.048 2.048 0 2.048-2.048 4.096-2.048 4.096-4.096 2.048-8.192-2.048-8.192h-8.192c-2.048 0-6.144 0-8.192 2.048-2.048 0-2.048 0-4.096 2.048 0 0-2.048 0-2.048 2.048-2.048 0-2.048 2.048-2.048 2.048h-6.144c-4.096 0-10.24 2.048-18.432 4.096s-16.384 4.096-24.576 8.192c-10.24 4.096-20.48 6.144-30.72 10.24-43.008 14.336-90.112 30.72-116.736 38.912l-2.048 6.144c12.288-6.144 55.296-20.48 96.256-34.816 10.24-4.096 20.48-6.144 30.72-10.24s20.48-6.144 28.672-8.192l24.576-6.144c10.24-2.048 14.336-2.048 18.432-2.048z m24.576-79.872c4.096-2.048 6.144-4.096 10.24-4.096 2.048 0 2.048-2.048 4.096-2.048s2.048-2.048 2.048-2.048c4.096-4.096 6.144-6.144 6.144-8.192 2.048-4.096-2.048-8.192-6.144-6.144-2.048 0-2.048 2.048-4.096 2.048s-2.048 2.048-4.096 2.048c-2.048 2.048-4.096 4.096-6.144 4.096l-4.096 4.096c0 2.048-2.048 2.048-2.048 2.048h-2.048s-2.048 2.048-4.096 2.048c0 0-2.048 2.048-4.096 2.048s-2.048 2.048-4.096 2.048c-2.048 2.048-6.144 4.096-10.24 6.144-6.144 4.096-14.336 8.192-24.576 12.288-10.24 4.096-20.48 8.192-30.72 14.336-20.48 10.24-45.056 20.48-65.536 30.72-10.24 6.144-20.48 10.24-28.672 16.384-2.048 2.048-4.096 2.048-6.144 4.096-2.048 2.048-4.096 2.048-6.144 4.096-2.048 2.048-4.096 2.048-4.096 4.096l-4.096 4.096v8.192l4.096-4.096s2.048-2.048 4.096-2.048 2.048-2.048 4.096-4.096c6.144-4.096 12.288-8.192 20.48-14.336 8.192-4.096 16.384-10.24 26.624-14.336 10.24-4.096 20.48-10.24 30.72-14.336 10.24-4.096 20.48-8.192 32.768-14.336 10.24-4.096 20.48-8.192 28.672-12.288 8.192-4.096 16.384-8.192 24.576-10.24 4.096-2.048 6.144-2.048 8.192-4.096 10.24-6.144 12.288-6.144 14.336-8.192z m-18.432 55.296c14.336 0 22.528-4.096 24.576-8.192 2.048-4.096 0-8.192-2.048-8.192-6.144 0-10.24 2.048-14.336 2.048-4.096 2.048-6.144 4.096-6.144 4.096s-2.048 0-6.144 2.048c-4.096 0-10.24 2.048-16.384 4.096-14.336 4.096-32.768 8.192-53.248 14.336-20.48 6.144-43.008 14.336-61.44 20.48-20.48 8.192-36.864 14.336-49.152 18.432v6.144c2.048-2.048 8.192-4.096 14.336-6.144 2.048-2.048 6.144-2.048 10.24-4.096s8.192-4.096 12.288-4.096c16.384-6.144 36.864-14.336 57.344-20.48 20.48-6.144 40.96-12.288 57.344-14.336 4.096 0 8.192-2.048 12.288-2.048 4.096 0 8.192-2.048 10.24-2.048 2.048-2.048 6.144-2.048 10.24-2.048z" fill="#F9F7F9" p-id="2199"></path><path d="M555.008 643.072c32.768 2.048 34.816-14.336 26.624-14.336-12.288-2.048-24.576 4.096-24.576 4.096s-161.792 22.528-219.136 30.72l-2.048 6.144c28.672-8.192 186.368-28.672 219.136-26.624z" fill="#F9F7F9" p-id="2200"></path><path d="M571.392 571.392c18.432-6.144 26.624-12.288 28.672-16.384 2.048-4.096 0-8.192-6.144-6.144-6.144 2.048-12.288 6.144-18.432 8.192-4.096 4.096-8.192 6.144-8.192 6.144s-2.048 2.048-8.192 4.096l-20.48 10.24c-16.384 8.192-40.96 18.432-65.536 30.72-26.624 12.288-53.248 22.528-79.872 32.768-24.576 10.24-49.152 20.48-65.536 26.624l-2.048 6.144c4.096-2.048 10.24-4.096 18.432-8.192s18.432-8.192 28.672-12.288c20.48-8.192 47.104-20.48 73.728-30.72 26.624-10.24 51.2-22.528 73.728-30.72 24.576-10.24 43.008-18.432 51.2-20.48z" fill="#F9F7F9" p-id="2201"></path><path d="M436.224 475.136c-2.048-4.096-16.384-12.288-14.336-22.528s10.24-38.912 16.384-45.056c6.144-6.144 16.384-16.384 16.384-18.432 0-2.048 61.44-12.288 81.92 16.384 10.24 24.576-18.432 65.536-16.384 79.872-8.192 10.24-10.24 18.432-38.912 10.24s-22.528-12.288-30.72-10.24c-10.24 2.048-6.144-2.048-8.192-4.096s-4.096-2.048-6.144-6.144z" fill="#E8CC70" p-id="2202"></path><path d="M440.32 454.656s-6.144-4.096 0-16.384c6.144-12.288 4.096-24.576 16.384-34.816 8.192-6.144 14.336-4.096 20.48-4.096 6.144 0 24.576 2.048 30.72 6.144 6.144 6.144 16.384 8.192 12.288 28.672-2.048 12.288-12.288 28.672-10.24 36.864-2.048 6.144-6.144 18.432-20.48 14.336-4.096-2.048-8.192-2.048 18.432-34.816 6.144-14.336 8.192-18.432 8.192-26.624s-6.144-8.192-8.192-6.144 4.096 40.96-28.672 57.344c-4.096 0-14.336-8.192-6.144-14.336 8.192-6.144 22.528-16.384 24.576-22.528 2.048-4.096 4.096-16.384-4.096-22.528-4.096 2.048-2.048 8.192-2.048 14.336-2.048 6.144 0 16.384-12.288 18.432-2.048-4.096 4.096-24.576 6.144-28.672 2.048-4.096-2.048-10.24-8.192-2.048-4.096 8.192-2.048 28.672-4.096 30.72s-8.192 10.24-10.24-4.096c-2.048-14.336-6.144-34.816 18.432-36.864 8.192 2.048 6.144-2.048 0-4.096s-20.48 2.048-26.624 18.432 6.144 26.624 8.192 34.816c0 6.144-4.096 14.336 8.192 20.48 6.144 4.096 12.288 12.288-6.144 8.192-16.384-6.144-20.48-14.336-22.528-16.384 4.096-2.048 8.192-2.048-2.048-14.336z" fill="#E8A4CA" p-id="2203"></path><path d="M397.312 278.528s-43.008-86.016 40.96-133.12c16.384-2.048 14.336 6.144 30.72 10.24 8.192-2.048 16.384-6.144 26.624-26.624 10.24-12.288 16.384-18.432 40.96-20.48 6.144 2.048 10.24 0 28.672-12.288 14.336-6.144 10.24-2.048 16.384-2.048 6.144 0 43.008-18.432 32.768 24.576 0 4.096-4.096 20.48 6.144 24.576s28.672-20.48 38.912-14.336c12.288 4.096 10.24 8.192 6.144 16.384 0 4.096 4.096 12.288 8.192 14.336 4.096 4.096 12.288 10.24 8.192 20.48 0 4.096 4.096 6.144 10.24 6.144s24.576 0 8.192 22.528c-4.096 6.144-2.048 8.192-2.048 8.192s0 4.096 22.528 6.144c24.576 4.096 16.384 10.24 14.336 14.336-4.096 4.096-6.144 12.288-8.192 24.576-4.096 6.144-12.288 16.384-12.288 20.48-2.048 6.144-12.288 30.72-22.528 40.96-14.336 8.192-18.432 4.096-30.72 2.048-14.336 6.144-18.432 10.24-26.624 10.24-8.192 2.048-12.288-4.096-20.48-6.144-8.192-2.048-30.72 2.048-51.2 4.096s-34.816-30.72-57.344-38.912c-22.528-10.24-38.912-20.48-61.44-12.288s-32.768 10.24-47.104-4.096z" fill="#84CE25" p-id="2204"></path><path d="M423.936 256s-10.24-4.096-4.096-36.864c-2.048-30.72-8.192-47.104 16.384-65.536 14.336-6.144 12.288 0 18.432 6.144 6.144 6.144 16.384 18.432 30.72-2.048s20.48-14.336 24.576-14.336c4.096 0 6.144 10.24 8.192 12.288 2.048 2.048 2.048-18.432 6.144-24.576 2.048-6.144 8.192-10.24 14.336-10.24s4.096 2.048 8.192 2.048 6.144-6.144 12.288-6.144 12.288 4.096 14.336 2.048c2.048 0 18.432-18.432 22.528-16.384 4.096 2.048 6.144 8.192-4.096 22.528-8.192 12.288-8.192 14.336-8.192 18.432 0 4.096 6.144 0 12.288-2.048s14.336-4.096 4.096 22.528c0 6.144 0 6.144 4.096 6.144s40.96-34.816 51.2-32.768c8.192 2.048 2.048 6.144-4.096 16.384-6.144 10.24-2.048 12.288 4.096 12.288 6.144 0 2.048 4.096-6.144 16.384-4.096 8.192-4.096 10.24-2.048 10.24s18.432-20.48 28.672-14.336c0 12.288 0 10.24-2.048 14.336-2.048 6.144-4.096 12.288-8.192 16.384 0 2.048-2.048 4.096 2.048 4.096 2.048 0 18.432-24.576 30.72-18.432 4.096 4.096-10.24 14.336-12.288 18.432s6.144 16.384 12.288 18.432c2.048 0-12.288 16.384-8.192 16.384 6.144 0 10.24-2.048 16.384-6.144 6.144-4.096 12.288-14.336 20.48-12.288 6.144 2.048 8.192 10.24-10.24 38.912-20.48 28.672-38.912 47.104-49.152 47.104-4.096 0-10.24 0 2.048-10.24s45.056-47.104 49.152-51.2c0-2.048-8.192-8.192-26.624 8.192-12.288 14.336-40.96 45.056-53.248 47.104-10.24 2.048-16.384-4.096 2.048-22.528 18.432-18.432 38.912-38.912 47.104-61.44 0 0-2.048-2.048-12.288 6.144-12.288 8.192-59.392 59.392-79.872 69.632-8.192 2.048-16.384 4.096-4.096-12.288 12.288-16.384 63.488-67.584 71.68-81.92 4.096-12.288 4.096-12.288-4.096-10.24-24.576 12.288-47.104 34.816-90.112 79.872-14.336 12.288-26.624 18.432-12.288-12.288 14.336-18.432 51.2-49.152 61.44-63.488 10.24-14.336 16.384-30.72 10.24-32.768-8.192 4.096-6.144-2.048-32.768 26.624-24.576 28.672-57.344 67.584-67.584 77.824-8.192 10.24-6.144-4.096 4.096-24.576s45.056-61.44 47.104-69.632 16.384-26.624 8.192-26.624c-6.144 2.048-20.48 14.336-36.864 45.056-14.336 28.672-34.816 57.344-49.152 67.584-2.048 2.048-8.192 6.144 0-12.288 8.192-20.48 51.2-102.4 55.296-112.64s0-22.528-22.528 6.144c-16.384 32.768-28.672 83.968-36.864 96.256-8.192 12.288-18.432 34.816-10.24-4.096s16.384-61.44 18.432-73.728 2.048-14.336-4.096-16.384-20.48 24.576-24.576 36.864c-2.048 12.288 6.144 51.2-4.096 65.536-10.24 14.336-16.384 20.48-18.432-14.336-2.048-34.816 6.144-63.488-2.048-63.488s-18.432 4.096-22.528 81.92c-4.096 4.096-6.144 0-6.144 2.048z" fill="#A9DD67" p-id="2205"></path><path d="M401.408 292.864s-16.384 43.008-14.336 73.728c12.288 32.768 32.768 55.296 32.768 55.296l75.776-22.528s8.192-38.912 10.24-59.392c-4.096-24.576-16.384-40.96-45.056-61.44-24.576 6.144-59.392 14.336-59.392 14.336z" fill="#E2BB40" p-id="2206"></path><path d="M503.808 360.448c0-6.144 0-10.24-2.048-12.288-4.096-16.384-61.44 10.24-61.44 10.24 0 8.192-12.288 45.056-18.432 63.488l73.728-22.528c0-2.048 4.096-20.48 8.192-38.912z" fill="#B79C38" p-id="2207"></path><path d="M403.456 296.96s34.816 40.96 38.912 57.344M450.56 354.304s40.96-14.336 51.2-8.192M442.368 360.448s-8.192 36.864-16.384 47.104M356.352 462.848s-16.384 43.008-14.336 73.728c12.288 32.768 32.768 55.296 32.768 55.296l75.776-22.528s8.192-38.912 10.24-59.392c-4.096-24.576-16.384-40.96-45.056-61.44-24.576 6.144-59.392 14.336-59.392 14.336z" fill="#E2BB40" p-id="2208"></path><path d="M458.752 530.432c0-6.144 0-10.24-2.048-12.288-4.096-16.384-61.44 10.24-61.44 10.24 0 8.192-12.288 45.056-18.432 63.488l73.728-22.528c0-2.048 4.096-20.48 8.192-38.912z" fill="#B79C38" p-id="2209"></path><path d="M358.4 466.944s34.816 40.96 38.912 57.344M405.504 524.288s40.96-14.336 51.2-8.192M395.264 530.432s-8.192 36.864-16.384 47.104M423.936 567.296s-16.384 43.008-14.336 73.728c12.288 32.768 32.768 55.296 32.768 55.296l75.776-22.528s8.192-38.912 10.24-59.392c-4.096-24.576-16.384-40.96-45.056-61.44-24.576 6.144-59.392 14.336-59.392 14.336z" fill="#E2BB40" p-id="2210"></path><path d="M526.336 634.88c0-6.144 0-10.24-2.048-12.288-4.096-16.384-61.44 10.24-61.44 10.24 0 8.192-12.288 45.056-18.432 63.488l73.728-22.528c0-2.048 4.096-20.48 8.192-38.912z" fill="#B79C38" p-id="2211"></path><path d="M425.984 571.392s34.816 40.96 38.912 57.344M473.088 628.736s40.96-14.336 51.2-8.192M464.896 634.88s-8.192 36.864-16.384 47.104" fill="#E2BB40" p-id="2212"></path><path d="M565.248 602.112s63.488-6.144 69.632 51.2c2.048 36.864-22.528 77.824-57.344 71.68-34.816-6.144-65.536-45.056-71.68-65.536-4.096-20.48-4.096-53.248 59.392-57.344z" fill="#FCF3D5" p-id="2213"></path><path d="M550.912 692.224c-18.432-26.624-32.768-43.008-14.336-57.344 16.384-12.288 18.432-24.576 14.336-30.72-47.104 6.144-47.104 36.864-43.008 55.296 4.096 20.48 34.816 59.392 69.632 65.536 12.288 2.048 22.528-2.048 30.72-8.192-16.384 0-45.056-4.096-57.344-24.576z" fill="#E1D8BB" p-id="2214"></path><path d="M516.096 534.528c-2.048-4.096-16.384-12.288-14.336-22.528 2.048-10.24 10.24-38.912 16.384-45.056 6.144-6.144 16.384-16.384 16.384-18.432 0-2.048 61.44-12.288 81.92 16.384 10.24 24.576-18.432 65.536-16.384 79.872-8.192 10.24-10.24 18.432-38.912 10.24s-22.528-12.288-30.72-10.24c-10.24 2.048-6.144-2.048-8.192-4.096-4.096-4.096-4.096-2.048-6.144-6.144z" fill="#E8CC70" p-id="2215"></path><path d="M518.144 514.048s-6.144-4.096 0-16.384c6.144-12.288 4.096-24.576 16.384-34.816 8.192-6.144 14.336-4.096 20.48-4.096s24.576 2.048 30.72 6.144c6.144 6.144 16.384 8.192 12.288 28.672-2.048 12.288-12.288 28.672-10.24 36.864-2.048 6.144-6.144 18.432-20.48 14.336-4.096-2.048-8.192-2.048 18.432-34.816 6.144-14.336 8.192-18.432 8.192-26.624s-6.144-8.192-8.192-6.144c-2.048 2.048 4.096 40.96-28.672 57.344-4.096 0-14.336-8.192-6.144-14.336 8.192-6.144 22.528-16.384 24.576-22.528 2.048-4.096 4.096-16.384-4.096-22.528-4.096 2.048-2.048 8.192-2.048 14.336-2.048 6.144 0 16.384-12.288 18.432-2.048-4.096 4.096-24.576 6.144-28.672s-2.048-10.24-8.192-2.048c-4.096 8.192-2.048 28.672-4.096 30.72s-8.192 10.24-10.24-4.096-6.144-34.816 18.432-36.864c8.192 2.048 6.144-2.048 0-4.096s-20.48 2.048-26.624 18.432c-4.096 16.384 6.144 26.624 8.192 34.816 0 6.144-4.096 14.336 8.192 20.48 6.144 4.096 12.288 12.288-6.144 8.192-16.384-6.144-20.48-14.336-22.528-16.384 4.096-4.096 10.24-2.048-2.048-14.336z" fill="#E8A4CA" p-id="2216"></path><path d="M638.976 788.48s4.096 59.392-51.2 61.44c-32.768 0-71.68-24.576-63.488-57.344 8.192-32.768 45.056-59.392 63.488-61.44s51.2-2.048 51.2 57.344z" fill="#FCF3D5" p-id="2217"></path><path d="M557.056 770.048c26.624-16.384 40.96-28.672 53.248-10.24 10.24 16.384 22.528 18.432 28.672 14.336-4.096-45.056-30.72-45.056-49.152-43.008-18.432 2.048-55.296 28.672-63.488 61.44-2.048 10.24 0 20.48 6.144 28.672 0-16.384 6.144-40.96 24.576-51.2z" fill="#E1D8BB" p-id="2218"></path><path d="M749.568 899.072z m-116.736 8.192c-2.048-2.048-2.048 0 0 0z" fill="#7FAB26" p-id="2219"></path><path d="M667.648 931.84s0-4.096 4.096-4.096c2.048 0 0-2.048 2.048-4.096s0-4.096 0-4.096l4.096 4.096 4.096 4.096v-4.096c0-2.048 2.048-2.048 0-6.144 0-2.048-2.048-2.048-4.096-4.096s-4.096-2.048-4.096-4.096c-2.048-2.048-4.096-6.144-6.144-6.144-2.048-2.048 0-2.048-2.048-8.192-2.048-4.096-2.048-4.096 0-6.144 2.048-2.048 4.096 6.144 8.192 8.192 4.096 2.048 4.096 6.144 6.144 8.192l6.144 6.144 8.192 8.192c4.096 2.048 8.192 6.144 10.24 6.144h6.144c2.048 0 4.096 2.048 6.144 2.048 4.096 2.048 6.144 2.048 6.144 2.048v-6.144c0-2.048-2.048-4.096-4.096-4.096-2.048-2.048-2.048-4.096-2.048-4.096s4.096 2.048 6.144 4.096c2.048 2.048 4.096 2.048 6.144 2.048 0 0 4.096 0 6.144 2.048h4.096s0-2.048-2.048-4.096-2.048-4.096 4.096-4.096c2.048 0 6.144 0 8.192-2.048 2.048 0 4.096-2.048 2.048-4.096s2.048-2.048 10.24 0c2.048 0 0-2.048 0-2.048-4.096 2.048-4.096 0-4.096 0h-2.048c-2.048 0-4.096 0-6.144-2.048-6.144 0-6.144-4.096-2.048-6.144 2.048 0 4.096-2.048 4.096-2.048l-6.144-4.096h-22.528c-2.048 0-2.048 0-4.096-2.048-2.048 0-2.048 0-4.096-2.048h-2.048s2.048 0 2.048-2.048h12.288c4.096-2.048-2.048-2.048-6.144-4.096-2.048-2.048-4.096 0-6.144 0h-4.096l4.096-2.048c6.144-2.048-2.048-2.048-2.048-2.048s-2.048 0-4.096-2.048c-2.048 0-6.144-2.048-10.24-4.096s-6.144-2.048-6.144-2.048h-2.048c-2.048-2.048-4.096-4.096-8.192-6.144-6.144-2.048-8.192-4.096-10.24-4.096-2.048-2.048-4.096-2.048-4.096-2.048-2.048 0-2.048-2.048-4.096-4.096s-4.096-6.144-4.096-12.288c-2.048-4.096 0-4.096 2.048-4.096 0 0 2.048 0 2.048 2.048 0 0 2.048 0 2.048 2.048 2.048 0 2.048 2.048 4.096 2.048s6.144 6.144 12.288 10.24c2.048 2.048 6.144 4.096 8.192 6.144 2.048 2.048 4.096 2.048 4.096 2.048 2.048 2.048 4.096 2.048 8.192 2.048 2.048 0 4.096 4.096 6.144 8.192 2.048 2.048 2.048-2.048 4.096-4.096h8.192s2.048 0 2.048 2.048c2.048 2.048 4.096 2.048 4.096 2.048s2.048 0 4.096 2.048c2.048 0 4.096 2.048 4.096 2.048 2.048 0 4.096 2.048 8.192 0 4.096 0 2.048 0 0-2.048s-4.096-2.048-4.096-4.096 2.048 0 2.048 0 4.096 0 8.192 2.048 4.096 0 10.24 0c8.192 0-2.048-4.096 0-4.096s4.096-2.048 6.144-2.048c4.096-2.048 4.096 0 6.144-2.048 4.096-2.048 0 0-4.096-2.048-6.144-2.048-10.24-2.048-10.24-4.096s0 0 6.144-2.048-2.048 0-4.096-4.096c-2.048-2.048-4.096 0-8.192-2.048h-16.384c-2.048 0-4.096-2.048-8.192-2.048-6.144-2.048-6.144 2.048-2.048 0 2.048-4.096 6.144-2.048 10.24-2.048s4.096 2.048 8.192 2.048 4.096 2.048 6.144 2.048c4.096 0 2.048-2.048 6.144 0 4.096 0 6.144 2.048 12.288 2.048s4.096 0 4.096-2.048-4.096-2.048 2.048-4.096c8.192 0 6.144-4.096 0-6.144-2.048-2.048-6.144-4.096-8.192-4.096 6.144 0 4.096 0 12.288-6.144 8.192-6.144-8.192 0-4.096-4.096 2.048-2.048 6.144-8.192 6.144-10.24H778.24c-2.048 0-8.192-2.048-12.288 0-4.096 0 8.192-8.192 0-6.144-10.24 2.048-8.192 2.048-12.288 4.096 0-2.048 2.048-4.096 4.096-8.192 0-6.144 0-8.192-6.144-4.096s-2.048 0-4.096 0c-2.048-2.048-2.048-2.048-4.096 2.048s-4.096 6.144-6.144 10.24c-2.048 2.048-2.048 2.048-6.144 4.096-2.048 2.048 0 4.096-4.096 6.144-2.048 2.048-4.096 4.096-6.144 4.096-2.048 2.048-6.144 4.096-10.24 2.048s-2.048 2.048 2.048-2.048c2.048-2.048 4.096-4.096 6.144-4.096l4.096-4.096c2.048-2.048 4.096-2.048 6.144-4.096 2.048-2.048 4.096-2.048 4.096-6.144 0-4.096 6.144-8.192 0-6.144-4.096 2.048-2.048 4.096-4.096 2.048s0-4.096 2.048-8.192 6.144-4.096 2.048-4.096c-4.096 0-2.048 2.048-6.144 2.048-2.048 0-4.096 0-6.144 2.048 0 0 2.048-8.192-2.048-4.096l-6.144 6.144-4.096 4.096s-2.048 2.048-2.048 0v-6.144c0-2.048 2.048-2.048 0-2.048s-4.096 2.048-4.096 4.096c0 0-2.048 2.048-2.048 4.096s-2.048 2.048-2.048 2.048 0 2.048-2.048 2.048c0 2.048-2.048 2.048-2.048 2.048l-2.048 2.048c-2.048 0-2.048-6.144-2.048-2.048-2.048 4.096-2.048 6.144-4.096 8.192-2.048 0-4.096 2.048-4.096 2.048s-2.048 2.048-4.096 2.048c-2.048 2.048-4.096 2.048-6.144 2.048-4.096 2.048-10.24 2.048-12.288 0l-2.048-2.048H655.36l-2.048-2.048c-2.048-2.048-2.048-2.048 2.048-4.096s6.144-2.048 8.192-2.048h8.192c2.048 0 2.048 0 4.096-2.048s4.096-2.048 6.144-4.096h2.048s2.048 0 4.096-2.048 4.096-2.048 4.096-2.048l2.048-2.048s4.096-2.048 2.048-2.048-2.048 0-2.048-2.048c0 0 4.096 2.048 4.096 0 2.048-2.048 4.096-4.096 2.048-6.144H694.272s0-2.048-2.048-2.048 0-2.048 2.048-2.048c0-2.048 2.048-2.048 2.048-2.048h2.048s2.048 0 2.048-2.048c2.048-2.048 4.096-2.048 4.096-4.096s2.048-6.144 2.048-6.144h-2.048c-2.048 0-2.048-4.096-2.048-6.144 0-2.048 2.048-2.048 2.048-4.096v-8.192c-2.048 4.096-4.096 6.144-4.096 2.048 0-2.048 0-2.048-2.048-2.048 0 0-2.048 0-2.048 2.048-2.048 2.048-2.048 0-2.048-2.048v-8.192 10.24c0 2.048-2.048 6.144-2.048 6.144 0 2.048 0 2.048-2.048 4.096 0 2.048-2.048 6.144-2.048 8.192-2.048 2.048-4.096 8.192-4.096 6.144 0-2.048 0-2.048 2.048-6.144 2.048-4.096 2.048-6.144 2.048-6.144l2.048-4.096c0-2.048 2.048-4.096 2.048-6.144V739.328s0 4.096-2.048 6.144v4.096l2.048-6.144s-2.048 4.096 0 2.048c0 0 0-4.096 2.048-4.096l-2.048 8.192c-2.048 8.192-4.096 10.24-4.096 12.288v2.048c0-2.048 2.048-4.096 2.048-4.096l6.144-2.048v-2.048l-4.096 8.192c-2.048 4.096-4.096 6.144-4.096 8.192 0 2.048-2.048 2.048-2.048 2.048l-2.048 2.048c2.048-6.144 4.096-8.192 2.048-8.192 0 2.048-2.048 4.096-4.096 8.192l-4.096 4.096-6.144 6.144c-2.048 2.048-4.096 4.096-6.144 4.096-2.048 2.048-2.048 2.048-4.096 2.048 0 0-2.048 0-2.048 2.048l-2.048 2.048h-6.144c-2.048 0-4.096 0-6.144-2.048 0-2.048-2.048-4.096-2.048-2.048 0 0-2.048 0-2.048 2.048l-4.096 2.048c-2.048 2.048 0 10.24 0 12.288 0 6.144-2.048 10.24-2.048 16.384 0 4.096 0 6.144-2.048 10.24 0 4.096-2.048 8.192-2.048 10.24-2.048 6.144-2.048 14.336-4.096 20.48v8.192c0 4.096-4.096 6.144-4.096 8.192 0 0 0 2.048 2.048 0 2.048 0 4.096-2.048 4.096-4.096v6.144c0 2.048 0 6.144 2.048 12.288s0 8.192 0 10.24h2.048l4.096-6.144s4.096-2.048 8.192-2.048c2.048 0 2.048 0 2.048 2.048s-2.048 6.144-2.048 14.336c0 8.192 2.048 10.24 2.048 10.24l2.048-4.096c0-2.048 2.048 4.096 4.096 4.096s2.048-6.144 2.048-6.144l2.048 2.048 4.096 4.096c2.048 0 6.144 6.144 6.144 6.144z m49.152-159.744z m-18.432-16.384c0-2.048 0 0 0 0z" fill="#7FAB26" p-id="2220"></path><path d="M655.36 868.352c6.144 8.192 14.336 16.384 24.576 20.48 2.048 2.048 4.096 2.048 8.192 4.096 2.048 2.048 4.096 2.048 8.192 4.096 2.048 2.048 4.096 2.048 8.192 4.096 2.048 2.048 4.096 2.048 6.144 4.096-2.048-2.048-4.096-4.096-6.144-4.096-2.048-2.048-4.096-2.048-6.144-4.096-2.048-2.048-4.096-2.048-6.144-4.096-2.048-2.048-4.096-2.048-6.144-4.096-8.192-6.144-16.384-12.288-22.528-20.48-6.144-8.192-8.192-16.384-10.24-26.624V815.104c2.048 4.096 6.144 8.192 10.24 12.288 6.144 6.144 14.336 10.24 22.528 14.336 4.096 2.048 8.192 6.144 12.288 8.192 4.096 2.048 10.24 4.096 14.336 6.144 10.24 4.096 20.48 6.144 30.72 4.096-14.336-2.048-28.672-8.192-38.912-16.384 12.288 0 22.528-2.048 32.768-6.144 10.24-2.048 22.528-6.144 30.72-12.288-4.096 2.048-6.144 2.048-10.24 4.096 2.048-2.048 4.096-2.048 6.144-4.096-8.192 2.048-16.384 6.144-26.624 8.192-14.336 2.048-26.624 2.048-40.96 2.048 6.144-4.096 10.24-8.192 14.336-14.336 4.096-4.096 8.192-10.24 12.288-12.288-6.144 2.048-12.288 6.144-18.432 12.288-6.144 4.096-12.288 10.24-20.48 14.336-4.096 0-8.192-2.048-12.288-4.096-6.144-4.096-12.288-10.24-16.384-14.336 10.24 2.048 20.48-6.144 28.672-14.336 4.096-4.096 10.24-8.192 12.288-12.288 2.048-2.048 4.096-4.096 4.096-6.144 2.048-2.048 2.048-4.096 4.096-6.144l-2.048 2.048s-2.048 2.048-2.048 4.096c0 0 0 2.048-2.048 2.048 0 0 0 2.048-2.048 2.048l-4.096 4.096c-4.096 4.096-10.24 8.192-16.384 12.288l-2.048 2.048c4.096-4.096 6.144-8.192 8.192-14.336 2.048-4.096 6.144-10.24 8.192-14.336-4.096 4.096-8.192 8.192-12.288 14.336-4.096 6.144-8.192 12.288-14.336 18.432-6.144 2.048-12.288 2.048-16.384-2.048 0-2.048-2.048-4.096-2.048-4.096v-2.048l-2.048-2.048c0 2.048 0 4.096 2.048 4.096 0 2.048 0 4.096 2.048 4.096l-4.096-4.096c2.048 2.048 2.048 4.096 4.096 8.192 0 6.144-2.048 10.24-2.048 16.384v16.384c-2.048 6.144-6.144 14.336-6.144 22.528 0 4.096 0 8.192 2.048 10.24 0 2.048 2.048 4.096 4.096 4.096 2.048 2.048 4.096 2.048 6.144 4.096-2.048-4.096-4.096-10.24-4.096-14.336 0-4.096 2.048-10.24 2.048-14.336 0 2.048 2.048 4.096 2.048 6.144l4.096 4.096z" fill="#567718" p-id="2221"></path><path d="M182.272 495.616c4.096 10.24 26.624 10.24 14.336-2.048-8.192-8.192 0-8.192 8.192-6.144 8.192 0 8.192 0 8.192-10.24 0-6.144-2.048-8.192 0-14.336 2.048-4.096 18.432-4.096 2.048-20.48h-40.96l-8.192 38.912 16.384 14.336z m-51.2-104.448c-2.048-2.048-10.24-12.288-12.288-12.288-6.144 0-8.192 6.144-4.096 10.24 2.048 4.096 10.24 6.144 4.096 10.24-6.144 6.144-8.192-4.096-12.288-6.144-10.24-6.144-4.096 12.288-6.144 18.432-4.096 6.144-12.288 2.048-12.288 14.336 0 6.144 4.096 16.384 16.384 16.384l26.624-2.048 16.384-26.624-16.384-22.528z" fill="#6EAD2E" p-id="2222"></path><path d="M112.64 389.12c2.048 2.048 6.144 4.096 6.144 6.144l18.432 4.096-6.144-10.24c-2.048-2.048-10.24-12.288-12.288-12.288-6.144 0-8.192 6.144-6.144 12.288z m8.192 38.912c-10.24 8.192-22.528 10.24-28.672 10.24 2.048 2.048 6.144 4.096 10.24 2.048l22.528-2.048c4.096-6.144 6.144-18.432-4.096-10.24z m-8.192-26.624c-4.096 0-4.096-6.144-8.192-8.192-10.24-6.144-4.096 12.288-6.144 18.432l-2.048 2.048s8.192-2.048 18.432 2.048c12.288 4.096 14.336-8.192 14.336-8.192s-12.288-4.096-16.384-6.144z" fill="#2C4316" p-id="2223"></path><path d="M210.944 380.928c0-4.096 2.048-10.24 8.192-10.24 8.192-2.048 8.192 10.24 16.384 12.288 12.288 4.096 22.528-14.336 10.24-18.432-4.096-2.048-6.144 2.048-12.288 0-4.096-2.048-4.096-6.144-2.048-10.24 4.096-4.096 10.24-2.048 6.144-10.24-2.048-4.096-10.24-14.336-16.384-16.384 0 0-20.48 14.336-26.624 34.816-8.192 20.48 16.384 18.432 16.384 18.432z" fill="#558E31" p-id="2224"></path><path d="M204.8 368.64c2.048-4.096 14.336-18.432 14.336-32.768 0-12.288-32.768 40.96-12.288 45.056h6.144s-12.288-8.192-8.192-12.288z" fill="#C2D84F" p-id="2225"></path><path d="M141.312 337.92l26.624 6.144s0 22.528-10.24 16.384c-12.288-6.144-16.384-22.528-16.384-22.528z m38.912-34.816l30.72 28.672s-24.576 12.288-28.672 0c-4.096-14.336-2.048-28.672-2.048-28.672z" fill="#44782E" p-id="2226"></path><path d="M241.664 317.44l-2.048 26.624s-22.528-4.096-20.48-20.48c4.096-18.432 22.528-6.144 22.528-6.144z" fill="#355D24" p-id="2227"></path><path d="M210.944 346.112c10.24 0 0-22.528 18.432-18.432 8.192 2.048 10.24 4.096 14.336-6.144 2.048-8.192 0-18.432-8.192-22.528-16.384-6.144-22.528 16.384-30.72 26.624-4.096 4.096-10.24 10.24-16.384 4.096-4.096-4.096 0-14.336-2.048-18.432-4.096-12.288-18.432-12.288-22.528-2.048-4.096 10.24 14.336 16.384 10.24 22.528-2.048 2.048-28.672 2.048-12.288 12.288 2.048 4.096 6.144-2.048 4.096 6.144-2.048 6.144-10.24 6.144-14.336 4.096-6.144-6.144-6.144-20.48-16.384-14.336-12.288 6.144-2.048 28.672 4.096 22.528l14.336 8.192 26.624-6.144h16.384l14.336-18.432z" fill="#8EBB22" p-id="2228"></path><path d="M167.936 346.112v4.096c-2.048 4.096-6.144 6.144-10.24 6.144l18.432 10.24 6.144-10.24-14.336-10.24z m38.912-2.048l-16.384-10.24s-2.048 0-2.048-2.048c-4.096-4.096 0-14.336-2.048-18.432-4.096-12.288-18.432-12.288-22.528-2.048-4.096 10.24 14.336 16.384 10.24 22.528l28.672 18.432 4.096-8.192z" fill="#2C4316" p-id="2229"></path><path d="M212.992 389.12c4.096-8.192-4.096-8.192-8.192-12.288-6.144-6.144-2.048-10.24 2.048-16.384 4.096-4.096 10.24-12.288 4.096-16.384-8.192-6.144-10.24 6.144-10.24 10.24-4.096 8.192-6.144 6.144-10.24 0s-6.144-8.192-12.288 0c-4.096 4.096-4.096 12.288-12.288 12.288-6.144 0-8.192-8.192-14.336-8.192-8.192-2.048-16.384 14.336-4.096 22.528V409.6l36.864 16.384 30.72-10.24-2.048-26.624z" fill="#6EAD2E" p-id="2230"></path><path d="M174.08 354.304c-4.096 4.096-4.096 12.288-12.288 12.288h-2.048s10.24 6.144 16.384 10.24c2.048-2.048 4.096-2.048 8.192-2.048s16.384 6.144 24.576 12.288h2.048c0-4.096-6.144-6.144-8.192-8.192-4.096-4.096-4.096-8.192-2.048-12.288-2.048-2.048-6.144-4.096-10.24-6.144-2.048 0-4.096-2.048-4.096-6.144-4.096-6.144-6.144-8.192-12.288 0z" fill="#2C4316" p-id="2231"></path><path d="M186.368 372.736s16.384 6.144 24.576 12.288c8.192 6.144-16.384 24.576-20.48 16.384-4.096-6.144-4.096-28.672-4.096-28.672z" fill="#2C4316" p-id="2232"></path><path d="M196.608 395.264c2.048 2.048 8.192 0 12.288-2.048 4.096-4.096 4.096-8.192 2.048-10.24-2.048-2.048-4.096-2.048-6.144-4.096 0 14.336-8.192 16.384-8.192 16.384zM143.36 378.88s14.336 6.144 20.48 14.336c6.144 8.192-14.336 24.576-18.432 12.288-4.096-12.288-2.048-26.624-2.048-26.624z" fill="#2C4316" p-id="2233"></path><path d="M194.56 397.312s-2.048-2.048-2.048-10.24c0-10.24-4.096-14.336-8.192-14.336s2.048 32.768 10.24 24.576z m-38.912-10.24s4.096-2.048 8.192 2.048 10.24 8.192 12.288 2.048c4.096-4.096 8.192 2.048 8.192 2.048l-12.288 8.192-16.384-14.336z m-8.192 6.144s0 10.24 6.144 10.24c4.096 0 6.144-4.096 6.144-6.144 0-2.048 6.144 2.048 6.144 4.096s-10.24 10.24-16.384 4.096c-6.144-6.144-2.048-12.288-2.048-12.288z" fill="#C2D84F" p-id="2234"></path><path d="M194.56 397.312c-6.144-6.144 0-16.384-6.144-22.528-4.096-4.096-6.144-4.096-10.24 0s-2.048 8.192-2.048 12.288c4.096 10.24-2.048 14.336-10.24 6.144-6.144-6.144-16.384-8.192-10.24 0 2.048 4.096 6.144 4.096 2.048 8.192-4.096 4.096-8.192 2.048-10.24-2.048-4.096-6.144 0-18.432-4.096-22.528-6.144-4.096-12.288 8.192-14.336 14.336-2.048 8.192 0 14.336-10.24 16.384-8.192 0-12.288-2.048-12.288 10.24 0 6.144 2.048 12.288 8.192 12.288l12.288 12.288 16.384 2.048 16.384-14.336s26.624-4.096 28.672-2.048l20.48-8.192-14.336-22.528z" fill="#44782E" p-id="2235"></path><path d="M167.936 393.216c-6.144-6.144-16.384-8.192-12.288 0 2.048 4.096 6.144 4.096 2.048 8.192-4.096 4.096-8.192 2.048-10.24-2.048-4.096-6.144 0-18.432-4.096-22.528-6.144-4.096-12.288 8.192-14.336 14.336 0 6.144 0 14.336-8.192 14.336l71.68 14.336c2.048 2.048 6.144-6.144-24.576-26.624z" fill="#2F5221" p-id="2236"></path><path d="M188.416 374.784c-4.096-4.096-6.144-4.096-10.24 0s-2.048 8.192-2.048 12.288c4.096 10.24-2.048 10.24-10.24 6.144-6.144-6.144-16.384-8.192-10.24 0 2.048 4.096 6.144 4.096 2.048 8.192-2.048 2.048-4.096 2.048-6.144 2.048l34.816 10.24s4.096-2.048 10.24-12.288l-2.048-4.096c-6.144-6.144 0-16.384-6.144-22.528z" fill="#44782E" p-id="2237"></path><path d="M172.032 395.264c-2.048 0-4.096-2.048-4.096-2.048-6.144-6.144-16.384-8.192-10.24 0 2.048 2.048 4.096 4.096 4.096 6.144l30.72 10.24 2.048-6.144-22.528-8.192z m-51.2 30.72s6.144 16.384 20.48 18.432H143.36l10.24-10.24c2.048-4.096 2.048-10.24 2.048-10.24l-34.816 2.048z" fill="#2F5221" p-id="2238"></path><path d="M141.312 444.416H143.36l6.144-6.144c0-4.096-2.048-6.144-4.096-4.096-2.048 4.096-10.24 6.144-14.336-2.048-4.096-6.144-8.192-6.144-10.24-8.192h-2.048l4.096 8.192c6.144 6.144 10.24 12.288 18.432 12.288z" fill="#C2D84F" p-id="2239"></path><path d="M131.072 483.328l32.768-10.24s-8.192-22.528-30.72-16.384c-12.288 4.096-2.048 26.624-2.048 26.624z" fill="#2F5221" p-id="2240"></path><path d="M139.264 509.952l26.624-12.288s-18.432-10.24-22.528-4.096c-4.096 4.096-4.096 16.384-4.096 16.384zM96.256 471.04l28.672-6.144s2.048-14.336-10.24-12.288c-12.288 2.048-18.432 18.432-18.432 18.432zM163.84 509.952l10.24-2.048c0 2.048 2.048-12.288-10.24 2.048z" fill="#44782E" p-id="2241"></path><path d="M104.448 448.512c-4.096 2.048-28.672 18.432-10.24 20.48 8.192 2.048 20.48-22.528 26.624-8.192 2.048 4.096-2.048 28.672 10.24 22.528 8.192-2.048-8.192-12.288 2.048-20.48 6.144-4.096 4.096 2.048 10.24 2.048 4.096 0 6.144-6.144 10.24-4.096 10.24 4.096 0 20.48-4.096 22.528-6.144 4.096-16.384 10.24-12.288 20.48 4.096 14.336 8.192-6.144 12.288-8.192 8.192-4.096 10.24 10.24 16.384 12.288 4.096 0 10.24-4.096 12.288-6.144 18.432-10.24-6.144-32.768 4.096-47.104l2.048-18.432-24.576-8.192-10.24 14.336h-14.336l-12.288-8.192-10.24 8.192-8.192 6.144z" fill="#8EBB22" p-id="2242"></path><path d="M112.64 450.56l20.48-4.096s0-10.24-8.192-8.192c-8.192 2.048-12.288 12.288-12.288 12.288z m2.048 8.192c2.048 0 4.096 2.048 4.096 6.144 2.048 4.096-2.048 28.672 10.24 22.528 10.24-6.144-6.144-16.384 4.096-24.576 6.144-4.096 4.096 2.048 10.24 2.048 4.096 0 6.144-4.096 8.192-4.096 0-4.096 0-6.144-10.24-6.144-10.24 2.048-26.624 4.096-26.624 4.096z" fill="#739E2D" p-id="2243"></path><path d="M176.128 452.608c-18.432 4.096-38.912 8.192-40.96 8.192 2.048 0 2.048 4.096 6.144 4.096 2.048 0 4.096-2.048 6.144-2.048h2.048c8.192-2.048 24.576-4.096 24.576-4.096s2.048 0 4.096-2.048v-2.048c2.048-2.048 0-2.048-2.048-2.048z" fill="#2C4316" p-id="2244"></path><path d="M180.224 452.608s-2.048 6.144 0 4.096l2.048-16.384-24.576-8.192-10.24 14.336c0 6.144 8.192 12.288 14.336 14.336l18.432-8.192z" fill="#3E6E2B" p-id="2245"></path><path d="M147.456 497.664c6.144-2.048 8.192 12.288 14.336 12.288 4.096 0 8.192-2.048 12.288-4.096 0-4.096 6.144-14.336 2.048-14.336-8.192-2.048-28.672 6.144-28.672 6.144z" fill="#739E2D" p-id="2246"></path><path d="M194.56 448.512c20.48 0 34.816 0 40.96-22.528 2.048-4.096 4.096-12.288-2.048-12.288-8.192 2.048-8.192-10.24-10.24-14.336-4.096-10.24-14.336-12.288-22.528-8.192-14.336 6.144-4.096 14.336-4.096 22.528-2.048 8.192-12.288 6.144-16.384 2.048-10.24-8.192-28.672-14.336-30.72 6.144 0 6.144 0 14.336-8.192 16.384-10.24 2.048-8.192-8.192-14.336-12.288-8.192-6.144-12.288 6.144-8.192 10.24-2.048 0-4.096-2.048-8.192-2.048s-4.096-2.048-6.144 2.048c-2.048 4.096 2.048 8.192 4.096 10.24 10.24 6.144 8.192-6.144 16.384-6.144 6.144 0 6.144 10.24 14.336 12.288 4.096 0 6.144-4.096 10.24-2.048 4.096 0 4.096 4.096 8.192 6.144 2.048 0 8.192 2.048 10.24 0 2.048-4.096-4.096-4.096-6.144-6.144-6.144-4.096-8.192-12.288 2.048-12.288 8.192 2.048 8.192 12.288 14.336 14.336 6.144 4.096 14.336-4.096 18.432 6.144 4.096 10.24-8.192 16.384-4.096 26.624 0 0 4.096-10.24 6.144-12.288 0 0 6.144-6.144 2.048-16.384l-6.144-8.192z" fill="#8EBB22" p-id="2247"></path><path d="M186.368 419.84c-2.048 0-6.144-2.048-8.192-4.096-10.24-8.192-28.672-14.336-30.72 6.144 0 6.144 0 12.288-4.096 14.336 0 0 16.384-6.144 30.72-6.144 8.192 2.048 12.288-4.096 12.288-10.24z" fill="#2C4316" p-id="2248"></path><path d="M153.6 413.696c2.048-2.048 8.192-6.144 16.384 0 10.24 6.144 12.288 8.192 12.288 8.192v-2.048c-2.048 0-2.048-2.048-4.096-2.048-8.192-8.192-18.432-12.288-24.576-4.096z" fill="#C2D84F" p-id="2249"></path><path d="M151.552 456.704c4.096 0 6.144-2.048 8.192-4.096 0 0-2.048 0-2.048-2.048-4.096-2.048-6.144-8.192-4.096-10.24-4.096-2.048-6.144 0-10.24-2.048-2.048 0-2.048 2.048-4.096 2.048-4.096 0-6.144 0-6.144-2.048-6.144 2.048-10.24 4.096-10.24 4.096 6.144 0 6.144 10.24 14.336 12.288 4.096 0 6.144-4.096 10.24-2.048 2.048 0 2.048 2.048 4.096 4.096z" fill="#2C4316" p-id="2250"></path><path d="M155.648 440.32h4.096c8.192 2.048 8.192 12.288 14.336 14.336 4.096 2.048 10.24 0 14.336 0 0-8.192-6.144-18.432-10.24-20.48-8.192 0-22.528 6.144-22.528 6.144z" fill="#739E2D" p-id="2251"></path><path d="M188.416 452.608s0-2.048 0 0c0 0 0 2.048 0 0z" fill="#C0B49B" p-id="2252"></path><path d="M700.416 681.984s65.536 4.096 61.44 59.392c-4.096 32.768-36.864 67.584-71.68 55.296-34.816-12.288-59.392-51.2-59.392-71.68-2.048-20.48 2.048-51.2 69.632-43.008z" fill="#FCF3D5" p-id="2253"></path><path d="M667.648 761.856c-14.336-28.672-26.624-45.056-4.096-55.296 18.432-8.192 22.528-20.48 20.48-24.576-49.152-2.048-55.296 24.576-53.248 43.008 0 18.432 24.576 59.392 59.392 69.632 12.288 4.096 22.528 2.048 32.768-2.048-18.432-2.048-45.056-12.288-55.296-30.72z" fill="#E1D8BB" p-id="2254"></path><path d="M530.432 413.696s-51.2-16.384-36.864-57.344c10.24-24.576 40.96-45.056 67.584-28.672 24.576 16.384 36.864 51.2 32.768 67.584-4.096 14.336-14.336 38.912-63.488 18.432z" fill="#FCF3D5" p-id="2255"></path><path d="M571.392 358.4c6.144 24.576 12.288 40.96-8.192 43.008-16.384 2.048-22.528 10.24-20.48 16.384 38.912 12.288 47.104-8.192 49.152-22.528 4.096-14.336-8.192-51.2-30.72-65.536-8.192-6.144-16.384-6.144-26.624-4.096 12.288 4.096 32.768 16.384 36.864 32.768z" fill="#E1D8BB" p-id="2256"></path><path d="M212.992 417.792c49.152-14.336 98.304 4.096 110.592 40.96 10.24 36.864-20.48 79.872-69.632 94.208s-98.304-4.096-110.592-40.96c-12.288-36.864 18.432-79.872 69.632-94.208z" fill="#D3C4A0" p-id="2257"></path><path d="M210.944 448.512c34.816-14.336 75.776-8.192 88.064 16.384 14.336 24.576-4.096 55.296-38.912 71.68-34.816 14.336-75.776 6.144-88.064-16.384-14.336-24.576 4.096-57.344 38.912-71.68z" fill="#FFFCDF" p-id="2258"></path><path d="M229.376 464.896c28.672-8.192 55.296-4.096 57.344 10.24 4.096 14.336-18.432 32.768-47.104 43.008s-55.296 4.096-57.344-10.24c-4.096-16.384 18.432-34.816 47.104-43.008z" fill="#B8AA7B" p-id="2259"></path><path d="M217.088 514.048s-6.144 0-6.144 14.336c-2.048 4.096-8.192 10.24-16.384 2.048-2.048-10.24-4.096-16.384 6.144-30.72 14.336-12.288 36.864-24.576 65.536-22.528 14.336 4.096 22.528 14.336 26.624 20.48-2.048 2.048-6.144 10.24-10.24 8.192-4.096 2.048-14.336-4.096-16.384-10.24 0 4.096 14.336 45.056 20.48 63.488 0 6.144-2.048 10.24-6.144 12.288-6.144 2.048-36.864 10.24-36.864 10.24-4.096 0-6.144-4.096-8.192-8.192-2.048-6.144-18.432-59.392-18.432-59.392z" fill="#D3C4A0" p-id="2260"></path><path d="M212.992 524.288c49.152-18.432 98.304-2.048 112.64 32.768 14.336 36.864-14.336 81.92-63.488 98.304-49.152 18.432-98.304 2.048-112.64-32.768-14.336-36.864 14.336-79.872 63.488-98.304z" fill="#D3C4A0" p-id="2261"></path><path d="M212.992 555.008c34.816-18.432 73.728-12.288 90.112 10.24 14.336 22.528 0 57.344-34.816 73.728-34.816 18.432-73.728 12.288-90.112-10.24-14.336-22.528 2.048-57.344 34.816-73.728z" fill="#FFFCDF" p-id="2262"></path><path d="M231.424 569.344c28.672-10.24 55.296-8.192 59.392 6.144s-16.384 34.816-43.008 45.056-55.296 8.192-59.392-6.144c-4.096-14.336 16.384-32.768 43.008-45.056z" fill="#B8AA7B" p-id="2263"></path><path d="M225.28 618.496s-8.192 0-4.096 14.336c-2.048 4.096-8.192 12.288-16.384 4.096-4.096-8.192-6.144-14.336 4.096-30.72 12.288-12.288 36.864-26.624 63.488-26.624 14.336 4.096 24.576 12.288 26.624 18.432 0 2.048-4.096 10.24-8.192 10.24-4.096 2.048-14.336-4.096-18.432-10.24 0 4.096 18.432 45.056 24.576 61.44 2.048 6.144 0 10.24-6.144 12.288-6.144 2.048-34.816 14.336-34.816 14.336-4.096 0-6.144-4.096-8.192-6.144-4.096-8.192-22.528-61.44-22.528-61.44z" fill="#D3C4A0" p-id="2264"></path><path d="M239.616 628.736c43.008-28.672 96.256-26.624 116.736 6.144 22.528 32.768 4.096 81.92-38.912 110.592-43.008 28.672-96.256 26.624-116.736-6.144s-4.096-81.92 38.912-110.592z" fill="#D3C4A0" p-id="2265"></path><path d="M247.808 657.408c28.672-24.576 69.632-30.72 90.112-10.24 20.48 18.432 12.288 55.296-16.384 79.872s-69.632 30.72-90.112 10.24-12.288-53.248 16.384-79.872z" fill="#FFFCDF" p-id="2266"></path><path d="M270.336 669.696c24.576-16.384 51.2-20.48 59.392-6.144 8.192 12.288-6.144 36.864-32.768 53.248-24.576 16.384-51.2 20.48-59.392 6.144s8.192-36.864 32.768-53.248z" fill="#B8AA7B" p-id="2267"></path><path d="M274.432 718.848s-6.144 2.048-2.048 14.336c0 6.144-6.144 12.288-14.336 6.144-6.144-8.192-10.24-14.336-4.096-30.72 10.24-14.336 28.672-34.816 55.296-40.96 16.384 0 26.624 6.144 30.72 12.288 0 2.048-2.048 10.24-6.144 10.24-4.096 2.048-14.336 0-18.432-4.096 2.048 4.096 28.672 38.912 38.912 53.248 2.048 6.144 2.048 10.24-2.048 14.336-4.096 4.096-30.72 20.48-30.72 20.48-4.096 0-8.192-2.048-10.24-4.096-6.144-4.096-36.864-51.2-36.864-51.2z" fill="#D3C4A0" p-id="2268"></path><path d="M419.84 737.28s4.096-18.432 12.288-28.672c10.24-10.24 38.912-22.528 49.152-14.336 10.24 8.192 10.24 12.288 10.24 12.288s0-2.048 6.144 0 8.192 6.144 12.288 16.384c0-4.096 12.288 4.096 18.432 20.48 0 2.048 8.192 2.048 12.288 14.336 0 0 10.24-6.144 18.432 24.576 0 0 8.192-4.096 16.384 18.432 0 0 16.384 16.384 10.24 32.768 0 2.048 2.048 4.096 0 10.24s-18.432 30.72-51.2 36.864c-16.384 0-20.48 0-24.576-10.24-2.048-2.048-18.432 0-14.336-14.336-2.048 0-20.48-6.144-20.48-24.576-2.048 0-12.288-10.24-14.336-20.48-2.048-2.048-12.288-10.24-14.336-16.384-4.096-6.144-12.288-16.384-12.288-24.576-2.048-2.048-12.288-6.144-10.24-22.528-2.048-2.048-6.144-6.144-4.096-10.24z" fill="#F5DA91" p-id="2269"></path><path d="M585.728 835.584c4.096-16.384-10.24-32.768-10.24-32.768-6.144-22.528-14.336-18.432-16.384-18.432-10.24-30.72-18.432-24.576-18.432-24.576-4.096-14.336-12.288-14.336-12.288-14.336-6.144-18.432-18.432-24.576-18.432-20.48-2.048-12.288-6.144-14.336-12.288-16.384-6.144-2.048-6.144 0-6.144 0s0-4.096-10.24-12.288c-10.24-6.144-30.72 0-43.008 8.192 6.144 4.096 14.336 8.192 20.48 10.24 10.24 2.048 18.432 10.24 22.528 18.432 4.096 8.192 6.144 14.336 18.432 26.624 10.24 12.288 20.48 26.624 28.672 36.864 8.192 10.24 8.192 22.528 18.432 26.624 10.24 4.096-24.576 20.48-14.336 28.672 8.192 8.192 40.96 6.144 51.2 2.048 2.048-4.096 4.096-6.144 4.096-8.192-2.048-2.048-2.048-6.144-2.048-10.24 2.048 0 0 0 0 0z" fill="#E0C689" p-id="2270"></path><path d="M335.872 686.08c-10.24 10.24-14.336 22.528-14.336 36.864 0 22.528 6.144 86.016 63.488 163.84 2.048 4.096 28.672 32.768 81.92 4.096 4.096-4.096 8.192-6.144 4.096-20.48 0-2.048 10.24-26.624-22.528-100.352-32.768-71.68-28.672-67.584-38.912-77.824s-10.24-4.096-20.48-12.288-34.816-12.288-53.248 6.144z" fill="#EC8252" p-id="2271"></path><path d="M471.04 868.352c0-2.048 10.24-26.624-22.528-100.352-32.768-71.68-28.672-67.584-38.912-77.824-8.192-8.192-10.24-6.144-16.384-8.192 8.192 12.288 24.576 38.912 30.72 59.392 8.192 30.72 16.384 65.536 16.384 73.728 0 10.24-2.048 24.576-6.144 28.672-4.096 4.096 16.384 26.624 40.96 34.816-4.096 0-4.096-4.096-4.096-10.24z" fill="#CD7048" p-id="2272"></path><path d="M382.976 884.736s6.144 4.096 8.192-2.048c2.048-6.144-2.048-16.384 2.048-26.624 6.144-10.24 20.48-22.528 28.672-18.432 10.24 2.048 14.336 0 28.672 16.384s32.768 30.72 4.096 40.96-65.536 6.144-71.68-10.24z" fill="#D69C79" p-id="2273"></path><path d="M747.52 503.808s4.096-16.384 14.336-24.576c10.24-8.192 36.864-14.336 45.056-6.144 8.192 8.192 8.192 10.24 8.192 10.24s0-2.048 6.144 0c4.096 2.048 8.192 6.144 8.192 16.384 0-4.096 10.24 4.096 14.336 20.48 0 2.048 6.144 2.048 8.192 14.336 0 0 8.192-4.096 14.336 24.576 0 0 8.192-2.048 12.288 18.432 0 0 12.288 16.384 6.144 28.672 0 2.048 2.048 4.096-2.048 10.24-2.048 6.144-20.48 26.624-49.152 26.624-14.336-2.048-18.432-2.048-20.48-12.288-2.048-2.048-16.384-2.048-12.288-14.336-2.048 0-18.432-8.192-16.384-24.576-2.048 0-10.24-10.24-10.24-20.48-2.048-2.048-10.24-10.24-10.24-16.384-2.048-6.144-10.24-14.336-8.192-22.528 0-2.048-10.24-8.192-6.144-20.48-2.048-2.048-4.096-6.144-2.048-8.192z" fill="#F5DA91" p-id="2274"></path><path d="M882.688 608.256c6.144-12.288-6.144-28.672-6.144-28.672-2.048-20.48-12.288-18.432-12.288-18.432-6.144-28.672-14.336-24.576-14.336-24.576-2.048-12.288-8.192-12.288-8.192-14.336-2.048-16.384-14.336-24.576-14.336-20.48 0-10.24-4.096-14.336-8.192-16.384-4.096-2.048-6.144 0-6.144 0s0-2.048-8.192-10.24c-8.192-6.144-26.624-4.096-38.912 2.048 4.096 4.096 10.24 10.24 16.384 12.288 8.192 4.096 14.336 10.24 16.384 18.432 2.048 8.192 4.096 12.288 12.288 24.576 8.192 12.288 14.336 24.576 20.48 34.816s4.096 20.48 12.288 24.576-24.576 14.336-16.384 24.576c6.144 8.192 36.864 10.24 45.056 8.192 2.048-2.048 4.096-4.096 4.096-6.144 6.144-4.096 6.144-6.144 6.144-10.24 2.048 0 0 0 0 0z" fill="#E0C689" p-id="2275"></path><path d="M657.408 481.28c-8.192 8.192-14.336 20.48-12.288 32.768 0 20.48 6.144 75.776 57.344 145.408 2.048 2.048 26.624 28.672 71.68 4.096 4.096-4.096 8.192-4.096 4.096-18.432 0-2.048 8.192-24.576-20.48-88.064s-24.576-61.44-34.816-67.584c-10.24-8.192-8.192-4.096-18.432-10.24s-30.72-14.336-47.104 2.048z" fill="#EC8252" p-id="2276"></path><path d="M776.192 645.12c0-2.048 8.192-24.576-20.48-88.064s-24.576-61.44-34.816-67.584c-8.192-6.144-8.192-4.096-14.336-8.192 8.192 10.24 22.528 32.768 26.624 53.248 6.144 28.672 14.336 57.344 14.336 65.536 0 8.192-2.048 22.528-6.144 24.576-4.096 2.048 16.384 24.576 36.864 30.72 0-2.048 0-6.144-2.048-10.24z" fill="#CD7048" p-id="2277"></path><path d="M700.416 657.408s6.144 2.048 8.192-2.048c2.048-6.144-2.048-14.336 2.048-22.528 4.096-8.192 18.432-18.432 26.624-16.384 8.192 2.048 12.288 0 24.576 14.336s30.72 28.672 4.096 36.864-61.44 6.144-65.536-10.24z" fill="#D69C79" p-id="2278"></path><path d="M260.096 352.256s-4.096 8.192-2.048 28.672c2.048 22.528 4.096 40.96-20.48 45.056-12.288-2.048-22.528-6.144-34.816-24.576-8.192-12.288-12.288-20.48-2.048-28.672-4.096 0-18.432 0-28.672-28.672-2.048-12.288-2.048-30.72 2.048-34.816 4.096-6.144 10.24-8.192 10.24-6.144 0 0-14.336-24.576 0-43.008 4.096-6.144 12.288-18.432 30.72-20.48h20.48s0-14.336 20.48-24.576c10.24-2.048 16.384-2.048 28.672 4.096 6.144 4.096 24.576 20.48 8.192 55.296-4.096 10.24-8.192 18.432-6.144 24.576 2.048 6.144 0 28.672-18.432 43.008-6.144 8.192-8.192 10.24-8.192 10.24z" fill="#277925" p-id="2279"></path><path d="M190.464 335.872c0-10.24 4.096-18.432 10.24-18.432s10.24 8.192 10.24 20.48c0 10.24-4.096 18.432-10.24 18.432s-10.24-10.24-10.24-20.48zM204.8 270.336c6.144-8.192 14.336-12.288 20.48-10.24 4.096 4.096 4.096 12.288-2.048 22.528-6.144 8.192-14.336 12.288-20.48 10.24-6.144-4.096-4.096-14.336 2.048-22.528zM260.096 231.424c8.192-2.048 14.336 0 16.384 4.096 2.048 4.096-4.096 10.24-12.288 12.288-8.192 2.048-14.336 0-16.384-4.096 0-4.096 6.144-10.24 12.288-12.288zM215.04 399.36c-6.144-8.192-8.192-16.384-2.048-20.48 4.096-4.096 12.288 0 18.432 8.192 6.144 8.192 8.192 16.384 2.048 20.48-2.048 4.096-12.288 0-18.432-8.192z" fill="#68A167" p-id="2280"></path><path d="M331.776 378.88c-14.336 0-26.624 2.048-40.96 6.144-20.48 6.144-28.672 10.24-38.912 14.336-4.096 0-8.192-6.144-2.048-8.192 6.144-2.048 14.336-6.144 18.432-10.24 6.144-2.048 0-6.144-6.144-6.144-4.096 0-6.144 4.096-14.336 6.144-8.192 2.048-8.192-4.096-8.192-8.192s6.144-6.144 12.288-8.192c6.144 0 32.768-2.048 36.864-6.144s6.144-4.096-10.24-6.144-22.528-4.096-32.768-6.144c-8.192-2.048-16.384-4.096-14.336-10.24 0-2.048 8.192-2.048 20.48 2.048 0 0 8.192 0 10.24-2.048 2.048-2.048 2.048-4.096-2.048-6.144-4.096-2.048-14.336-4.096-18.432-6.144-4.096-2.048-14.336-4.096-18.432-10.24 0-4.096 2.048-6.144 8.192-6.144 4.096 0 10.24 0 16.384 4.096 6.144 2.048 20.48 8.192 22.528 8.192 4.096 2.048 32.768 18.432 43.008 16.384v-6.144c-2.048-2.048-18.432-16.384-20.48-16.384-2.048-2.048-22.528-12.288-30.72-18.432-8.192-6.144-10.24-10.24-10.24-16.384 2.048-2.048 4.096-2.048 8.192 2.048s18.432 10.24 18.432 10.24 0-4.096-6.144-10.24-12.288-12.288-10.24-14.336c0-2.048 0-4.096 4.096-6.144s6.144-2.048 12.288 8.192 18.432 22.528 20.48 22.528c2.048 0 0-12.288-8.192-22.528-8.192-10.24-10.24-16.384-4.096-24.576 2.048-2.048 4.096-6.144 14.336 14.336 10.24 12.288 26.624 36.864 40.96 49.152 14.336 12.288 30.72 20.48 22.528 36.864s-12.288 30.72-32.768 34.816z" fill="#84CE25" p-id="2281"></path><path d="M286.72 385.024c2.048 0 4.096-2.048 6.144-2.048 12.288-4.096 26.624-6.144 40.96-6.144h2.048l12.288-6.144c6.144-6.144 8.192-14.336 12.288-22.528-4.096-2.048-10.24-2.048-20.48-4.096-30.72 0-47.104 24.576-53.248 40.96z" fill="#A9DD67" p-id="2282"></path><path d="M296.96 270.336s-8.192 4.096-20.48 20.48c-14.336 18.432-24.576 30.72-45.056 18.432-8.192-8.192-12.288-20.48-10.24-43.008 2.048-14.336 6.144-22.528 18.432-22.528-2.048-2.048-14.336-14.336-2.048-40.96 6.144-10.24 18.432-22.528 24.576-24.576 6.144-2.048 12.288 0 12.288 2.048 0 0 6.144-26.624 28.672-32.768 6.144-2.048 20.48-6.144 36.864 6.144 12.288 10.24 14.336 14.336 14.336 14.336s10.24-10.24 32.768-4.096c8.192 4.096 14.336 10.24 18.432 22.528 2.048 6.144 4.096 32.768-30.72 47.104-10.24 4.096-18.432 8.192-20.48 14.336-4.096 6.144-18.432 22.528-40.96 20.48-14.336 0-16.384 2.048-16.384 2.048z" fill="#277925" p-id="2283"></path><path d="M256 210.944c8.192-8.192 16.384-10.24 20.48-6.144 4.096 4.096 2.048 14.336-6.144 22.528-8.192 8.192-16.384 10.24-20.48 6.144-2.048-6.144 0-14.336 6.144-22.528zM311.296 172.032c10.24-2.048 20.48 0 20.48 6.144 2.048 6.144-6.144 12.288-16.384 14.336-10.24 2.048-20.48 0-20.48-6.144s6.144-12.288 16.384-14.336zM378.88 180.224c8.192 4.096 12.288 8.192 10.24 12.288-2.048 4.096-8.192 4.096-16.384 2.048-8.192-4.096-12.288-10.24-10.24-12.288s8.192-6.144 16.384-2.048zM233.472 272.384c0-10.24 6.144-18.432 12.288-16.384s8.192 8.192 8.192 18.432-6.144 18.432-12.288 16.384c-6.144 2.048-10.24-8.192-8.192-18.432z" fill="#68A167" p-id="2284"></path><path d="M331.776 337.92c-10.24-8.192-22.528-16.384-32.768-22.528-20.48-10.24-28.672-10.24-38.912-14.336-4.096-4.096-2.048-10.24 4.096-8.192 6.144 2.048 16.384 4.096 20.48 6.144 6.144 2.048 4.096-4.096 0-8.192-4.096-2.048-6.144-2.048-14.336-6.144-8.192-4.096-4.096-10.24 0-12.288 4.096-2.048 10.24 0 14.336 2.048s24.576 20.48 30.72 20.48c6.144 0 6.144 2.048-2.048-12.288-10.24-12.288-16.384-20.48-24.576-28.672-6.144-6.144-10.24-12.288-4.096-18.432 2.048 0 6.144 4.096 14.336 16.384 0 0 6.144 6.144 8.192 6.144 2.048 0 4.096-2.048 4.096-6.144l-8.192-16.384c-2.048-4.096-8.192-12.288-6.144-20.48 2.048-2.048 4.096-4.096 8.192 0s6.144 6.144 8.192 14.336c4.096 6.144 10.24 18.432 12.288 20.48 2.048 4.096 12.288 34.816 20.48 40.96 2.048-2.048 4.096-4.096 4.096-6.144 0-4.096-4.096-24.576-4.096-26.624-2.048-2.048-8.192-24.576-10.24-34.816-2.048-10.24 0-16.384 4.096-18.432 2.048 0 4.096 2.048 4.096 8.192 0 6.144 6.144 20.48 6.144 20.48s4.096-2.048 2.048-12.288c0-8.192 0-16.384 2.048-18.432s4.096-2.048 8.192-2.048 6.144 2.048 4.096 14.336-2.048 28.672 0 30.72 8.192-10.24 10.24-22.528 2.048-18.432 12.288-20.48c2.048 0 6.144-2.048 2.048 20.48-2.048 16.384-6.144 45.056-2.048 65.536 2.048 18.432 10.24 36.864-8.192 43.008-22.528 6.144-30.72 16.384-49.152 6.144z" fill="#84CE25" p-id="2285"></path><path d="M292.864 311.296c2.048 0 4.096 2.048 6.144 2.048 12.288 6.144 22.528 14.336 32.768 22.528 0 0 2.048 0 2.048 2.048l12.288 4.096c8.192 0 14.336-4.096 22.528-8.192-2.048-4.096-6.144-10.24-12.288-16.384-18.432-22.528-45.056-14.336-63.488-6.144z" fill="#A9DD67" p-id="2286"></path><path d="M581.632 393.216l63.488-24.576 40.96 83.968-77.824 28.672-26.624-88.064z" fill="#DCB000" p-id="2287"></path><path d="M583.68 391.168l8.192-4.096c4.096-2.048 8.192 0 10.24 4.096 2.048 4.096 0 8.192-4.096 10.24l-8.192 4.096c-4.096 2.048-8.192 0-10.24-4.096-2.048-2.048 0-8.192 4.096-10.24zM587.776 407.552l10.24-4.096c4.096-2.048 8.192 0 10.24 4.096 2.048 4.096 0 8.192-4.096 10.24l-10.24 4.096c-4.096 2.048-8.192 0-10.24-4.096-2.048-4.096 0-8.192 4.096-10.24z" fill="#FFCF0B" p-id="2288"></path><path d="M591.872 421.888l10.24-4.096c4.096-2.048 8.192 0 10.24 4.096v2.048c2.048 4.096 0 8.192-4.096 10.24l-10.24 4.096c-4.096 2.048-8.192 0-10.24-4.096v-2.048c-2.048-4.096 0-8.192 4.096-10.24z" fill="#FFCF0B" p-id="2289"></path><path d="M595.968 436.224l10.24-4.096c4.096-2.048 8.192 0 10.24 4.096 2.048 4.096 0 8.192-4.096 10.24l-10.24 4.096c-4.096 2.048-8.192 0-10.24-4.096-2.048-4.096 0-8.192 4.096-10.24z" fill="#FFCF0B" p-id="2290"></path><path d="M598.016 452.608l14.336-6.144c4.096-2.048 8.192 0 10.24 4.096 2.048 4.096 0 8.192-4.096 10.24l-14.336 6.144c-4.096 2.048-8.192 0-10.24-4.096-2.048-4.096 0-8.192 4.096-10.24zM602.112 468.992l14.336-6.144c4.096-2.048 8.192 0 10.24 4.096 2.048 4.096 0 8.192-4.096 10.24l-14.336 6.144c-4.096 2.048-8.192 0-10.24-4.096-2.048-4.096 0-10.24 4.096-10.24z" fill="#FFCF0B" p-id="2291"></path><path d="M610.304 382.976l8.192-4.096c4.096-2.048 8.192 0 10.24 4.096 2.048 4.096 0 8.192-4.096 10.24l-8.192 4.096c-4.096 2.048-8.192 0-10.24-4.096-2.048-4.096 0-8.192 4.096-10.24z" fill="#FFCF0B" p-id="2292"></path><path d="M612.352 397.312l10.24-4.096c4.096-2.048 8.192 0 10.24 4.096 2.048 4.096 0 8.192-4.096 10.24l-10.24 4.096c-4.096 2.048-8.192 0-10.24-4.096 0-4.096 0-8.192 4.096-10.24z" fill="#FFCF0B" p-id="2293"></path><path d="M616.448 411.648l10.24-4.096c4.096-2.048 8.192 0 10.24 4.096v2.048c2.048 4.096 0 8.192-4.096 10.24l-10.24 4.096c-4.096 2.048-8.192 0-10.24-4.096v-2.048c-2.048-4.096 0-8.192 4.096-10.24z" fill="#FFCF0B" p-id="2294"></path><path d="M622.592 425.984l10.24-4.096c4.096-2.048 8.192 0 10.24 4.096 2.048 4.096 0 8.192-4.096 10.24l-10.24 4.096c-4.096 2.048-8.192 0-10.24-4.096-2.048-4.096 0-8.192 4.096-10.24zM626.688 442.368l14.336-6.144c4.096-2.048 8.192 0 10.24 4.096 2.048 4.096 0 8.192-4.096 10.24l-14.336 6.144c-4.096 2.048-8.192 0-10.24-4.096-2.048-4.096 0-8.192 4.096-10.24z" fill="#FFCF0B" p-id="2295"></path><path d="M632.832 456.704l14.336-6.144c4.096-2.048 8.192 0 10.24 4.096 2.048 4.096 0 8.192-4.096 10.24l-14.336 6.144c-4.096 2.048-8.192 0-10.24-4.096-2.048-4.096 0-8.192 4.096-10.24z" fill="#FFCF0B" p-id="2296"></path><path d="M634.88 372.736l8.192-4.096c4.096-2.048 8.192 0 10.24 4.096 2.048 4.096 0 8.192-4.096 10.24l-8.192 4.096c-4.096 2.048-8.192 0-10.24-4.096-2.048-2.048 0-8.192 4.096-10.24z" fill="#FFCF0B" p-id="2297"></path><path d="M641.024 387.072l10.24-4.096c4.096-2.048 8.192 0 10.24 4.096 2.048 4.096 0 8.192-4.096 10.24l-10.24 4.096c-4.096 2.048-8.192 0-10.24-4.096-2.048-2.048 0-8.192 4.096-10.24z" fill="#FFCF0B" p-id="2298"></path><path d="M645.12 401.408l10.24-6.144c4.096-2.048 8.192 0 10.24 4.096v2.048c2.048 4.096 0 8.192-4.096 10.24l-10.24 6.144c-4.096 2.048-8.192 0-10.24-4.096v-2.048c-2.048-4.096 0-8.192 4.096-10.24z" fill="#FFCF0B" p-id="2299"></path><path d="M651.264 415.744l10.24-6.144c4.096-2.048 8.192 0 10.24 4.096 2.048 4.096 0 8.192-4.096 10.24l-10.24 6.144c-4.096 2.048-8.192 0-10.24-4.096-2.048-2.048 0-8.192 4.096-10.24zM655.36 432.128l14.336-6.144c4.096-2.048 8.192 0 10.24 4.096 2.048 4.096 0 8.192-4.096 10.24l-14.336 6.144c-4.096 2.048-8.192 0-10.24-4.096-2.048-4.096 0-8.192 4.096-10.24zM663.552 446.464l14.336-6.144c4.096-2.048 8.192 0 10.24 4.096 2.048 4.096 0 8.192-4.096 10.24l-14.336 6.144c-4.096 2.048-8.192 0-10.24-4.096-2.048-2.048 0-8.192 4.096-10.24z" fill="#FFCF0B" p-id="2300"></path><path d="M755.712 673.792l59.392 30.72-32.768 88.064-73.728-36.864 47.104-81.92z" fill="#DCB000" p-id="2301"></path><path d="M759.808 673.792l8.192 4.096c4.096 2.048 6.144 6.144 4.096 10.24-2.048 4.096-6.144 6.144-10.24 4.096l-8.192-4.096c-4.096-2.048-6.144-6.144-4.096-10.24 0-4.096 6.144-6.144 10.24-4.096z" fill="#FFCF0B" p-id="2302"></path><path d="M749.568 686.08l10.24 4.096c4.096 2.048 6.144 6.144 4.096 10.24-2.048 4.096-6.144 6.144-10.24 4.096l-10.24-4.096c-4.096-2.048-6.144-6.144-4.096-10.24 2.048-4.096 6.144-6.144 10.24-4.096z" fill="#FFCF0B" p-id="2303"></path><path d="M743.424 698.368l10.24 6.144c4.096 2.048 6.144 6.144 4.096 10.24v2.048c-2.048 4.096-6.144 6.144-10.24 4.096l-10.24-6.144c-4.096-2.048-6.144-6.144-4.096-10.24v-2.048c0-4.096 6.144-6.144 10.24-4.096z" fill="#FFCF0B" p-id="2304"></path><path d="M733.184 712.704l10.24 6.144c4.096 2.048 6.144 6.144 4.096 10.24-2.048 4.096-6.144 6.144-10.24 4.096l-10.24-6.144c-4.096-2.048-6.144-6.144-4.096-10.24 2.048-6.144 8.192-6.144 10.24-4.096z" fill="#FFCF0B" p-id="2305"></path><path d="M724.992 724.992l14.336 6.144c4.096 2.048 6.144 6.144 4.096 10.24-2.048 4.096-6.144 6.144-10.24 4.096l-16.384-6.144c-4.096-2.048-6.144-6.144-4.096-10.24 2.048-4.096 8.192-6.144 12.288-4.096z" fill="#FFCF0B" p-id="2306"></path><path d="M716.8 737.28l14.336 6.144c4.096 2.048 6.144 6.144 4.096 10.24-2.048 4.096-6.144 6.144-10.24 4.096l-14.336-6.144c-4.096-2.048-6.144-6.144-4.096-10.24 0-4.096 6.144-6.144 10.24-4.096z" fill="#FFCF0B" p-id="2307"></path><path d="M784.384 686.08l8.192 4.096c4.096 2.048 6.144 6.144 4.096 10.24-2.048 4.096-6.144 6.144-10.24 4.096l-8.192-4.096c-4.096-2.048-6.144-6.144-4.096-10.24 2.048-4.096 6.144-6.144 10.24-4.096z" fill="#FFCF0B" p-id="2308"></path><path d="M774.144 698.368l10.24 4.096c4.096 2.048 6.144 6.144 4.096 10.24-2.048 4.096-6.144 6.144-10.24 4.096l-10.24-4.096c-4.096-2.048-6.144-6.144-4.096-10.24 2.048-4.096 8.192-6.144 10.24-4.096z" fill="#FFCF0B" p-id="2309"></path><path d="M768 710.656l10.24 6.144c4.096 2.048 6.144 6.144 4.096 10.24v2.048c-2.048 4.096-6.144 6.144-10.24 4.096l-10.24-6.144c-4.096-2.048-6.144-6.144-4.096-10.24v-2.048c0-4.096 6.144-6.144 10.24-4.096z" fill="#FFCF0B" p-id="2310"></path><path d="M759.808 724.992l10.24 6.144c4.096 2.048 6.144 6.144 4.096 10.24-2.048 4.096-6.144 6.144-10.24 4.096l-10.24-6.144c-4.096-2.048-6.144-6.144-4.096-10.24 2.048-4.096 6.144-6.144 10.24-4.096z" fill="#FFCF0B" p-id="2311"></path><path d="M751.616 737.28l14.336 6.144c4.096 2.048 6.144 6.144 4.096 10.24-2.048 4.096-6.144 6.144-10.24 4.096l-14.336-6.144c-4.096-2.048-6.144-6.144-4.096-10.24 2.048-4.096 6.144-4.096 10.24-4.096zM743.424 751.616l14.336 6.144c4.096 2.048 6.144 6.144 4.096 10.24-2.048 4.096-6.144 6.144-10.24 4.096l-14.336-4.096c-4.096-2.048-6.144-6.144-4.096-10.24 2.048-6.144 6.144-8.192 10.24-6.144z" fill="#FFCF0B" p-id="2312"></path><path d="M806.912 698.368l8.192 4.096c4.096 2.048 6.144 6.144 4.096 10.24 0 4.096-6.144 6.144-10.24 4.096l-8.192-4.096c-4.096-2.048-6.144-6.144-4.096-10.24 2.048-4.096 6.144-6.144 10.24-4.096z" fill="#FFCF0B" p-id="2313"></path><path d="M800.768 712.704l10.24 4.096c4.096 2.048 6.144 6.144 4.096 10.24-2.048 4.096-6.144 6.144-10.24 4.096l-10.24-4.096c-4.096-2.048-6.144-6.144-4.096-10.24 2.048-4.096 6.144-6.144 10.24-4.096z" fill="#FFCF0B" p-id="2314"></path><path d="M792.576 724.992l10.24 4.096c4.096 2.048 6.144 6.144 4.096 10.24v2.048c-2.048 4.096-6.144 6.144-10.24 4.096l-10.24-4.096c-4.096-2.048-6.144-6.144-4.096-10.24v-2.048c2.048-4.096 6.144-6.144 10.24-4.096z" fill="#FFCF0B" p-id="2315"></path><path d="M786.432 739.328l10.24 4.096c4.096 2.048 6.144 6.144 4.096 10.24-2.048 4.096-6.144 6.144-10.24 4.096l-10.24-4.096c-4.096-2.048-6.144-6.144-4.096-10.24 2.048-4.096 6.144-6.144 10.24-4.096z" fill="#FFCF0B" p-id="2316"></path><path d="M778.24 751.616l14.336 6.144c4.096 2.048 6.144 6.144 4.096 10.24-2.048 4.096-6.144 6.144-10.24 4.096l-14.336-6.144c-4.096-2.048-6.144-6.144-4.096-10.24 2.048-2.048 6.144-4.096 10.24-4.096zM772.096 768l14.336 6.144c4.096 2.048 6.144 6.144 4.096 10.24-2.048 4.096-6.144 6.144-10.24 4.096l-14.336-6.144c-4.096-2.048-6.144-6.144-4.096-10.24 2.048-4.096 6.144-6.144 10.24-4.096z" fill="#FFCF0B" p-id="2317"></path><path d="M729.088 301.056s-4.096-6.144-20.48-16.384c-18.432-10.24-32.768-18.432-22.528-36.864 6.144-8.192 16.384-14.336 36.864-14.336 14.336 0 22.528 2.048 22.528 12.288 2.048-2.048 10.24-14.336 36.864-8.192 10.24 4.096 22.528 14.336 26.624 18.432 2.048 6.144 2.048 10.24 0 10.24 0 0 24.576 2.048 32.768 22.528 2.048 6.144 8.192 18.432 0 34.816-6.144 12.288-10.24 16.384-10.24 16.384s12.288 8.192 8.192 28.672c-2.048 8.192-6.144 14.336-16.384 20.48-6.144 2.048-28.672 8.192-47.104-20.48-6.144-8.192-10.24-14.336-14.336-16.384-6.144-2.048-22.528-14.336-22.528-34.816-8.192-14.336-10.24-16.384-10.24-16.384z" fill="#277925" p-id="2318"></path><path d="M776.192 258.048c8.192 6.144 12.288 14.336 10.24 18.432s-12.288 4.096-20.48-2.048c-8.192-6.144-12.288-14.336-10.24-18.432 4.096-4.096 14.336-4.096 20.48 2.048zM819.2 301.056c4.096 8.192 2.048 18.432-2.048 20.48-4.096 2.048-12.288-4.096-16.384-12.288s-2.048-18.432 2.048-20.48c6.144-2.048 14.336 2.048 16.384 12.288zM821.248 362.496c-2.048 6.144-6.144 12.288-10.24 10.24-4.096-2.048-6.144-8.192-4.096-14.336 2.048-6.144 6.144-12.288 10.24-10.24 6.144 0 6.144 8.192 4.096 14.336zM716.8 245.76c8.192 0 16.384 2.048 16.384 8.192s-6.144 10.24-16.384 10.24c-8.192 0-16.384-2.048-16.384-8.192 0-6.144 8.192-10.24 16.384-10.24z" fill="#68A167" p-id="2319"></path><path d="M673.792 344.064c6.144-10.24 12.288-22.528 14.336-32.768 6.144-18.432 6.144-26.624 8.192-36.864 2.048-4.096 8.192-2.048 8.192 2.048s-2.048 14.336-2.048 20.48c0 6.144 4.096 4.096 8.192-2.048 2.048-4.096 0-6.144 2.048-14.336s8.192-4.096 10.24-2.048 2.048 8.192 0 14.336-14.336 24.576-14.336 30.72c0 4.096 0 6.144 10.24-4.096s16.384-18.432 22.528-24.576c6.144-6.144 10.24-10.24 14.336-6.144 0 0-2.048 6.144-12.288 14.336 0 0-4.096 6.144-4.096 8.192 0 2.048 2.048 4.096 6.144 2.048s10.24-8.192 14.336-10.24c4.096-2.048 10.24-8.192 16.384-8.192 2.048 0 4.096 4.096 2.048 8.192s-6.144 6.144-10.24 10.24c-6.144 4.096-14.336 12.288-16.384 14.336-4.096 2.048-30.72 16.384-34.816 24.576 2.048 2.048 4.096 2.048 6.144 2.048 2.048 0 20.48-6.144 22.528-8.192 2.048-2.048 20.48-12.288 28.672-14.336 8.192-2.048 14.336-2.048 16.384 0 0 2.048 0 4.096-6.144 6.144-6.144 2.048-16.384 8.192-16.384 8.192s2.048 2.048 10.24 0 14.336-2.048 16.384-2.048c0 0 2.048 2.048 2.048 6.144 0 4.096-2.048 6.144-12.288 6.144s-26.624 2.048-26.624 4.096c-2.048 2.048 10.24 6.144 20.48 6.144s18.432 0 20.48 8.192c0 2.048 2.048 4.096-18.432 4.096-14.336 0-40.96 2.048-57.344 6.144-16.384 4.096-30.72 14.336-38.912-2.048-4.096-14.336-16.384-22.528-10.24-38.912z" fill="#84CE25" p-id="2320"></path><path d="M692.224 305.152c0 2.048 0 4.096-2.048 6.144-4.096 12.288-8.192 22.528-14.336 32.768v2.048l-2.048 12.288c2.048 6.144 6.144 12.288 10.24 20.48 4.096-2.048 8.192-6.144 12.288-14.336 16.384-22.528 6.144-45.056-4.096-59.392z" fill="#A9DD67" p-id="2321"></path><path d="M776.192 370.688s2.048-8.192-4.096-26.624c-6.144-18.432-12.288-34.816 8.192-43.008 10.24-2.048 20.48 0 36.864 14.336 10.24 10.24 14.336 16.384 8.192 24.576 2.048 0 16.384-4.096 32.768 18.432 4.096 10.24 8.192 26.624 6.144 30.72-2.048 6.144-6.144 8.192-8.192 8.192 0 0 16.384 18.432 10.24 38.912-2.048 6.144-6.144 18.432-22.528 24.576-12.288 4.096-18.432 4.096-18.432 4.096s2.048 14.336-12.288 26.624c-8.192 4.096-14.336 6.144-26.624 2.048-6.144-2.048-26.624-12.288-20.48-47.104 2.048-10.24 4.096-16.384 0-22.528-2.048-6.144-8.192-26.624 6.144-40.96 2.048-10.24 4.096-12.288 4.096-12.288z" fill="#277925" p-id="2322"></path><path d="M839.68 370.688c2.048 10.24 0 18.432-4.096 18.432-6.144 2.048-10.24-6.144-14.336-14.336-2.048-10.24 0-18.432 4.096-18.432s12.288 4.096 14.336 14.336zM843.776 430.08c-4.096 8.192-10.24 14.336-14.336 12.288-4.096-2.048-6.144-10.24-2.048-20.48s10.24-14.336 14.336-12.288c4.096 4.096 4.096 12.288 2.048 20.48zM802.816 477.184c-6.144 4.096-12.288 4.096-14.336 0s2.048-8.192 8.192-12.288 12.288-4.096 14.336 0c0 2.048-2.048 8.192-8.192 12.288zM804.864 321.536c6.144 6.144 10.24 14.336 8.192 16.384-4.096 4.096-12.288 2.048-18.432-4.096s-10.24-14.336-8.192-16.384c2.048-4.096 10.24-2.048 18.432 4.096z" fill="#68A167" p-id="2323"></path><path d="M706.56 364.544c12.288-4.096 22.528-8.192 34.816-14.336 16.384-10.24 22.528-16.384 30.72-22.528 4.096 0 8.192 4.096 4.096 8.192s-12.288 10.24-14.336 12.288c-4.096 4.096 0 6.144 6.144 4.096 4.096-2.048 4.096-4.096 12.288-8.192 8.192-4.096 8.192 2.048 8.192 6.144 0 4.096-4.096 8.192-10.24 10.24s-26.624 8.192-30.72 12.288c-2.048 4.096-4.096 4.096 10.24 4.096s24.576-2.048 32.768-4.096c8.192 0 14.336 0 16.384 6.144 0 2.048-6.144 4.096-18.432 4.096 0 0-8.192 2.048-8.192 4.096-2.048 2.048-2.048 4.096 2.048 6.144 4.096 2.048 12.288 2.048 18.432 2.048 4.096 0 12.288 0 18.432 6.144 2.048 2.048 0 6.144-4.096 6.144s-8.192 2.048-14.336 0c-6.144 0-18.432-2.048-22.528-2.048-4.096 0-32.768-8.192-40.96-6.144 0 2.048 0 4.096 2.048 6.144 2.048 2.048 20.48 10.24 22.528 10.24 2.048 0 22.528 4.096 30.72 8.192 8.192 4.096 12.288 8.192 12.288 12.288-2.048 2.048-4.096 2.048-8.192 0S778.24 430.08 778.24 430.08s0 4.096 8.192 8.192c6.144 4.096 12.288 8.192 12.288 10.24 0 2.048 0 4.096-2.048 8.192s-6.144 4.096-12.288-4.096c-8.192-8.192-20.48-14.336-22.528-16.384-2.048 0 4.096 10.24 12.288 18.432s12.288 12.288 10.24 20.48c-2.048 2.048-2.048 6.144-16.384-8.192-12.288-10.24-30.72-26.624-47.104-34.816-14.336-6.144-32.768-10.24-26.624-26.624-2.048-20.48-6.144-32.768 12.288-40.96z" fill="#84CE25" p-id="2324"></path><path d="M745.472 348.16c-2.048 0-2.048 2.048-4.096 2.048-10.24 6.144-22.528 10.24-34.816 14.336h-2.048l-8.192 10.24c-4.096 6.144-4.096 14.336-6.144 22.528 4.096 0 10.24 0 18.432-2.048 26.624-6.144 34.816-30.72 36.864-47.104z" fill="#A9DD67" p-id="2325"></path><path d="M419.65568 377.91744l11.38688-14.49984 25.76384 20.23424-11.38688 14.49984zM629.9648 380.47744l15.1552-29.04064 16.32256 8.51968-15.1552 29.04064zM439.7056 554.63936l15.1552-29.06112 16.32256 8.54016-15.1552 29.04064zM642.048 560.70144l1.7408-18.35008 32.60416 3.072-1.72032 18.35008zM595.80416 438.39488l10.77248-14.9504 14.9504 10.77248-10.77248 14.9504zM507.14624 475.97568l10.77248-14.9504 14.9504 10.77248-10.77248 14.9504zM660.54144 480.27648l10.77248-14.9504 9.95328 7.168-10.77248 14.97088zM543.21152 340.5824l14.88896-10.8544 7.24992 9.91232-14.88896 10.8544zM637.50144 649.97376l0.34816-18.432 12.288 0.24576-0.34816 18.432zM523.264 566.92736l10.77248-14.9504 9.97376 7.168-10.77248 14.97088z" fill="#00893D" p-id="2326"></path></svg>