<?xml version="1.0" standalone="no"?><!DOCTYPE svg PUBLIC "-//W3C//DTD SVG 1.1//EN" "http://www.w3.org/Graphics/SVG/1.1/DTD/svg11.dtd"><svg t="1761180599783" class="icon" viewBox="0 0 1024 1024" version="1.1" xmlns="http://www.w3.org/2000/svg" p-id="2474" xmlns:xlink="http://www.w3.org/1999/xlink" width="200" height="200"><path d="M182.937 704.525v17.651s177.459 30.738 331.901 34.132c154.44 3.393 341.454-25.89 345.924-31.777 0.198-15.254 0-18.829 0-18.829l-677.825-1.177z" fill="#956532" p-id="2475"></path><path d="M183.181 693.354v17.652s177.551 30.739 332.071 34.132c154.521 3.393 341.627-25.889 346.102-31.777 0.196-15.255 0-18.829 0-18.829l-678.173-1.178z" fill="#623A1B" p-id="2476"></path><path d="M861.223 562.558l-654.778-4.523c-5.714 6.983-13.548 12.17-22.434 14.532a42.988 42.988 0 0 1-2.771 5.575l2 119.501s207.911 35.27 328.473 35.239c125.549-0.028 322.955-25.721 349.512-32.89 0.617-38.263-0.002-137.434-0.002-137.434z" fill="#916331" p-id="2477"></path><path d="M322.62 616.646l-1.746 101.553 27.066 4.02 3.491-96.522-28.811-9.051z" fill="#623A1B" p-id="2478"></path><path d="M181.187 516.764v58.019s141.69 83.084 431.343 60.337c161.555-19.478 234.802-51.519 248.313-56.856 1.469-26.045 0-64.98 0-64.98l-679.656 3.48z" fill="#623A1B" p-id="2479"></path><path d="M180.857 508.62v22.13s83.712 70.93 350.577 66.388c231.759-4.541 299.305-44.242 328.448-69.883 3.536-33.177 1.166-19.799 1.166-19.799l-680.191 1.164z" fill="#916331" p-id="2480"></path><path d="M179.594 486.771l1.164 25.617s67.915 71.129 300.494 74.521c232.576 3.393 346.407-37.94 379.69-75.684 3.481-36.255 3.493-36.098 3.493-36.098s-178.229 101.338-333.103 100.14c-154.872-1.2-351.738-88.496-351.738-88.496z" fill="#DABA80" p-id="2481"></path><path d="M188.054 485.862a333.288 84.172 0 1 0 666.576 0 333.288 84.172 0 1 0-666.576 0Z" fill="#956532" p-id="2482"></path><path d="M759.894 553.355l-14.834-6.752 53.475-117.47 14.834 6.753zM234.601 527.755l-14.857-6.706 48.309-107.033 14.857 6.706zM295.274 554.429l-14.849-6.722 62.21-137.423 14.848 6.722zM369.781 569.905l-14.776-6.874 76.652-164.771 14.776 6.874zM446.522 576.242l-14.893-6.618 82.258-185.097 14.893 6.619zM518.098 578.201l-14.894-6.619 82.26-185.098 14.893 6.619zM592.505 576.748l-14.893-6.618 76.947-173.144 14.892 6.618zM673.917 568.896l-14.86-6.7 71.999-159.693 14.86 6.7z" fill="#A67C52" p-id="2483"></path><path d="M188.704 477.376s46.37-70.09 312.523-72.3c266.151-2.213 339.181 54.864 347.507 69.967 3.282 3.932 4.666 10.495 4.666 10.495s2.326-12.609-2.333-16.325c-4.658-3.715-29.24-36.835-102.617-52.477-71.667-16.13-117.716-21.979-192.417-24.489-74.697-2.508-140.641 4.845-164.423 6.998-23.61 2.137-147.85 16.378-191.246 58.308-11.04 13.179-10.978 17.433-11.66 19.823z" fill="#DABA80" p-id="2484"></path><path d="M521.342 579.931c-85.964 0-167.986-8.953-230.957-25.209-45.37-11.715-101.311-32.486-110.161-64.935l-0.228-0.836 0.052-0.865c0.072-1.157 0.069-2.151-0.01-2.954-0.257-2.637-0.475-4.745-0.7-6.459l-0.086-0.662 0.082-0.662c4.223-33.99 60.114-55.888 106.257-68.274 63.614-17.074 147.336-26.477 235.75-26.477 90.484 0 175.618 9.786 239.72 27.555 31.474 8.725 56.271 18.942 73.701 30.364 19.145 12.548 28.854 26.258 28.854 40.748 0 14.49-9.709 28.201-28.854 40.747-17.43 11.424-42.228 21.638-73.702 30.363-64.1 17.769-149.234 27.556-239.718 27.556z m-330.787-92.138c6.465 20.959 43.699 41.615 102.45 56.781 62.14 16.042 143.232 24.878 228.337 24.878 198.472 0 331.796-45.599 331.796-88.187 0-42.589-133.324-88.188-331.796-88.188-87.521 0-170.281 9.276-233.033 26.119-59.385 15.938-95.198 37.347-98.49 58.828 0.211 1.703 0.414 3.692 0.649 6.089 0.109 1.119 0.138 2.329 0.087 3.68z" fill="#643B1B" p-id="2485"></path><path d="M301.37 324.19s-9.881 23.87-23.851 33.396c-13.967 9.534-53.805 36.159-59.639 42.945-5.834 6.784-27.345 57.335 28.626 76.335 55.981 19.007 150.508 13.053 167.001-23.855 5.806-25.597-7.436-33.902-14.319-42.938-6.882-9.039-45.322-29.738-52.485-42.941-7.163-13.207-9.921-25.708-4.775-35.785-7.406 1.228-11.921 4.771-11.921 4.771v-4.771l-4.774-4.771h-4.767l-14.316-4.77-4.78 2.384z" fill="#FFFDF3" p-id="2486"></path><path d="M317.491 490.202c-0.002 0 0.002 0 0 0-26.046 0-51.575-3.799-71.883-10.692-20.596-6.994-33.301-18.819-37.763-35.15-5.379-19.696 3.366-40.355 7.919-45.65 4.937-5.742 30.414-23.228 53.907-39.165 2.413-1.637 4.544-3.082 6.274-4.264 13.11-8.94 22.75-31.929 22.847-32.159l0.399-0.963 6.743-3.365 14.984 4.994h5.469l6.41 6.405v1.093a33.316 33.316 0 0 1 8.674-2.689l5.459-0.906-2.517 4.93c-4.267 8.352-2.671 19.517 4.741 33.184 3.848 7.092 18.902 17.522 31 25.904 9.715 6.73 18.106 12.542 21.254 16.678 1.098 1.439 2.396 2.895 3.773 4.436 7.213 8.081 16.19 18.135 11.049 40.811l-0.174 0.522c-11.88 26.573-58.706 36.046-98.565 36.046zM303.533 326.23c-2.069 4.715-11.423 24.783-24.441 33.662-1.733 1.183-3.868 2.63-6.286 4.271-15.56 10.558-47.941 32.525-52.808 38.186-2.757 3.206-11.772 22.218-6.767 40.541 3.942 14.43 15.439 24.974 34.172 31.333 19.746 6.704 44.636 10.396 70.088 10.396 47.691 0 84.273-12.748 93.355-32.5 4.375-19.675-3.169-28.124-9.83-35.584-1.45-1.625-2.82-3.161-4.049-4.771-2.613-3.433-11.055-9.28-19.99-15.472-13.239-9.173-28.245-19.568-32.728-27.828-6.941-12.794-9.227-23.883-6.835-33.057-3.575 1.302-5.666 2.891-5.696 2.914l-4.495 3.466-0.009-9.284-3.14-3.137h-4.064l-13.651-4.549-2.826 1.413z" fill="#967557" p-id="2487"></path><path d="M306.147 324.19s-4.923 64.118-38.17 76.34" fill="#FFFFFF" p-id="2488"></path><path d="M268.941 403.15l-1.926-5.241c31.174-11.459 36.3-73.311 36.349-73.935l5.564 0.428c-0.205 2.692-5.455 66.054-39.987 78.748z" fill="#967557" p-id="2489"></path><path d="M318.076 328.96s-0.835 28.461-2.379 42.944c-1.553 14.478-2.717 13.139-4.776 19.083-2.058 5.943-2.426 13.684-2.387 16.697" fill="#FFFFFF" p-id="2490"></path><path d="M305.743 407.721c-0.049-3.689 0.433-11.559 2.539-17.646 0.581-1.678 1.097-2.819 1.551-3.825 1.155-2.557 1.989-4.404 3.087-14.646 1.516-14.208 2.358-42.445 2.367-42.728l5.58 0.163c-0.034 1.167-0.856 28.734-2.393 43.158-1.137 10.595-2.09 13.115-3.551 16.351-0.427 0.94-0.866 1.913-1.363 3.35-1.86 5.37-2.273 12.649-2.232 15.747l-5.585 0.076z" fill="#967557" p-id="2491"></path><path d="M325.23 333.731s3.941 23.904 4.774 35.785c0.837 11.887 0.837 11.887 2.389 26.243 0.729 6.757 14.308 14.314 14.308 14.314" fill="#FFFFFF" p-id="2492"></path><path d="M345.344 412.512c-2.479-1.379-14.883-8.656-15.727-16.453-1.558-14.409-1.558-14.409-2.398-26.347-0.815-11.617-4.707-35.29-4.745-35.528l5.508-0.907c0.162 0.981 3.971 24.17 4.806 36.043 0.833 11.833 0.833 11.833 2.38 26.138 0.395 3.669 7.775 9.329 12.888 12.176l-2.712 4.878z" fill="#967557" p-id="2493"></path><path d="M596.807 301.552s-9.882 23.871-23.852 33.397c-13.969 9.534-53.807 36.159-59.64 42.944-5.834 6.786-27.346 57.335 28.626 76.336 55.979 19.007 150.509 13.051 166.998-23.855 5.807-25.596-7.435-33.902-14.317-42.94-6.884-9.037-45.322-29.737-52.485-42.939-7.164-13.207-9.921-25.708-4.776-35.785-7.406 1.228-11.921 4.771-11.921 4.771v-4.771l-4.774-4.77h-4.768l-14.315-4.771-4.776 2.383z" fill="#FFFDF3" p-id="2494"></path><path d="M612.928 467.564c-0.003 0 0.001 0 0 0-26.047 0-51.576-3.797-71.883-10.692-20.598-6.992-33.303-18.817-37.763-35.148-5.382-19.698 3.364-40.355 7.918-45.65 4.938-5.745 30.421-23.233 53.919-39.175 2.41-1.633 4.534-3.075 6.263-4.255 13.108-8.94 22.751-31.929 22.848-32.159l0.398-0.963 6.742-3.365 14.979 4.994h5.472l6.409 6.406v1.093a33.432 33.432 0 0 1 8.676-2.69l5.459-0.906-2.519 4.93c-4.266 8.352-2.669 19.517 4.743 33.184 3.849 7.092 18.903 17.522 31.001 25.904 9.715 6.729 18.104 12.542 21.251 16.675 1.099 1.441 2.399 2.898 3.774 4.439 7.212 8.08 16.191 18.134 11.046 40.809l-0.173 0.521c-11.876 26.576-58.701 36.048-98.56 36.048z m-13.959-163.971c-2.067 4.716-11.423 24.784-24.441 33.662-1.732 1.183-3.862 2.628-6.274 4.265-15.564 10.559-47.952 32.531-52.82 38.194-2.757 3.206-11.772 22.218-6.766 40.541 3.942 14.43 15.44 24.972 34.172 31.333 19.746 6.704 44.637 10.395 70.087 10.395 47.691 0 84.272-12.746 93.356-32.5 4.377-19.674-3.17-28.122-9.829-35.581-1.45-1.625-2.821-3.161-4.05-4.774-2.614-3.432-11.054-9.278-19.989-15.471-13.24-9.17-28.246-19.569-32.729-27.829-6.94-12.793-9.226-23.882-6.833-33.057-3.575 1.302-5.668 2.891-5.695 2.914l-4.496 3.466-0.011-9.285-3.139-3.136h-4.063l-13.651-4.548-2.829 1.411z" fill="#967557" p-id="2495"></path><path d="M601.583 301.552s-4.924 64.119-38.17 76.34" fill="#FFFFFF" p-id="2496"></path><path d="M564.377 380.512l-1.927-5.239c31.203-11.47 36.304-73.312 36.349-73.935l5.566 0.428c-0.207 2.692-5.456 66.053-39.988 78.746z" fill="#967557" p-id="2497"></path><path d="M613.513 306.323s-0.836 28.462-2.38 42.944c-1.551 14.478-2.717 13.139-4.776 19.083-2.057 5.941-2.424 13.682-2.386 16.695" fill="#FFFFFF" p-id="2498"></path><path d="M601.179 385.084c-0.048-3.691 0.434-11.558 2.541-17.647 0.58-1.676 1.096-2.817 1.548-3.823 1.156-2.557 1.991-4.404 3.09-14.646 1.515-14.207 2.355-42.444 2.363-42.728l5.58 0.164c-0.032 1.167-0.854 28.734-2.395 43.158-1.135 10.594-2.09 13.116-3.551 16.35-0.425 0.94-0.865 1.915-1.363 3.351-1.858 5.372-2.273 12.648-2.232 15.748l-5.581 0.073z" fill="#967557" p-id="2499"></path><path d="M620.666 311.094s3.94 23.904 4.774 35.785c0.838 11.886 0.838 11.886 2.389 26.243 0.73 6.756 14.311 14.313 14.311 14.313" fill="#FFFFFF" p-id="2500"></path><path d="M640.78 389.875c-2.478-1.378-14.884-8.656-15.726-16.453-1.558-14.408-1.558-14.408-2.398-26.347-0.815-11.617-4.706-35.289-4.744-35.527l5.509-0.907c0.159 0.98 3.97 24.169 4.803 36.043 0.834 11.833 0.834 11.833 2.379 26.138 0.396 3.658 7.777 9.321 12.893 12.175l-2.716 4.878z" fill="#967557" p-id="2501"></path><path d="M458.732 379.45s-9.883 23.871-23.851 33.396c-13.967 9.534-53.805 36.16-59.639 42.946-5.835 6.785-27.346 57.335 28.626 76.338 55.98 19.004 150.507 13.051 167-23.856 5.806-25.597-7.436-33.903-14.32-42.938-6.882-9.038-45.32-29.738-52.483-42.94-7.163-13.207-9.923-25.708-4.776-35.786-7.406 1.228-11.921 4.771-11.921 4.771v-4.771l-4.774-4.77h-4.767l-14.318-4.771-4.777 2.381z" fill="#FFFDF3" p-id="2502"></path><path d="M474.854 545.462c-0.002 0 0 0 0 0-26.046 0-51.575-3.797-71.883-10.691-20.596-6.99-33.302-18.817-37.762-35.148-5.381-19.698 3.365-40.356 7.918-45.65 4.938-5.743 30.415-23.229 53.907-39.166 2.414-1.637 4.543-3.082 6.275-4.264 13.11-8.94 22.749-31.929 22.846-32.159l0.399-0.963 6.742-3.365 14.982 4.994h5.47l6.411 6.404v1.093a33.346 33.346 0 0 1 8.673-2.689l5.46-0.907-2.518 4.93c-4.266 8.354-2.672 19.519 4.742 33.186 3.848 7.092 18.904 17.522 31.002 25.902 9.714 6.73 18.103 12.542 21.252 16.676 1.096 1.441 2.397 2.898 3.773 4.438 7.213 8.079 16.19 18.135 11.046 40.81l-0.173 0.521c-11.875 26.575-58.703 36.048-98.562 36.048z m-13.959-163.971c-2.068 4.716-11.422 24.783-24.44 33.663-1.735 1.183-3.868 2.63-6.286 4.272-15.561 10.556-47.942 32.525-52.809 38.185-2.756 3.206-11.773 22.219-6.767 40.541 3.941 14.433 15.439 24.975 34.172 31.333 19.746 6.705 44.637 10.396 70.088 10.396 47.691 0 84.273-12.747 93.354-32.5 4.377-19.673-3.17-28.123-9.828-35.583-1.45-1.625-2.821-3.159-4.049-4.773-2.614-3.432-11.056-9.278-19.992-15.471-13.237-9.172-28.242-19.567-32.727-27.827-6.94-12.794-9.227-23.883-6.834-33.058-3.575 1.303-5.665 2.892-5.696 2.914l-4.495 3.467-0.009-9.286-3.14-3.137h-4.064l-13.651-4.548-2.827 1.412z" fill="#967557" p-id="2503"></path><path d="M463.508 379.45s-4.921 64.119-38.168 76.34" fill="#FFFFFF" p-id="2504"></path><path d="M426.303 458.411l-1.925-5.239c31.173-11.459 36.299-73.312 36.349-73.936l5.563 0.429c-0.204 2.69-5.455 66.052-39.987 78.746z" fill="#967557" p-id="2505"></path><path d="M475.438 384.221s-0.836 28.463-2.38 42.945c-1.552 14.479-2.717 13.139-4.777 19.083-2.057 5.941-2.424 13.682-2.385 16.695" fill="#FFFFFF" p-id="2506"></path><path d="M463.106 462.982c-0.048-3.691 0.433-11.559 2.54-17.647 0.58-1.678 1.097-2.817 1.551-3.825 1.154-2.557 1.988-4.402 3.087-14.644 1.515-14.208 2.356-42.445 2.366-42.729l5.579 0.164c-0.034 1.167-0.855 28.734-2.394 43.157-1.136 10.594-2.089 13.114-3.551 16.35-0.425 0.941-0.865 1.916-1.361 3.352-1.861 5.37-2.273 12.648-2.232 15.746l-5.585 0.076z" fill="#967557" p-id="2507"></path><path d="M482.593 388.991s3.94 23.904 4.773 35.786c0.837 11.886 0.837 11.886 2.39 26.243 0.729 6.756 14.309 14.313 14.309 14.313" fill="#FFFFFF" p-id="2508"></path><path d="M502.706 467.772c-2.477-1.379-14.881-8.655-15.725-16.453-1.559-14.408-1.559-14.408-2.399-26.347-0.814-11.617-4.705-35.29-4.744-35.528l5.508-0.908c0.161 0.981 3.971 24.17 4.806 36.043 0.832 11.834 0.832 11.834 2.38 26.139 0.395 3.669 7.775 9.328 12.889 12.175l-2.715 4.879z" fill="#967557" p-id="2509"></path><path d="M713.102 375.255s-9.883 23.87-23.853 33.397c-13.969 9.533-53.809 36.159-59.639 42.945-5.834 6.784-27.346 57.335 28.626 76.334 55.979 19.008 150.51 13.053 166.999-23.853 5.807-25.597-7.436-33.902-14.319-42.938-6.882-9.039-45.321-29.739-52.484-42.941-7.163-13.207-9.921-25.708-4.776-35.785-7.405 1.228-11.921 4.771-11.921 4.771v-4.771l-4.774-4.771h-4.767l-14.317-4.77-4.775 2.382z" fill="#FFFDF3" p-id="2510"></path><path d="M729.224 541.268c-0.003 0 0 0 0 0-26.048 0-51.577-3.801-71.884-10.693-20.598-6.992-33.302-18.818-37.765-35.146-5.381-19.695 3.362-40.355 7.917-45.653 4.94-5.743 30.423-23.231 53.92-39.172 2.408-1.634 4.534-3.076 6.265-4.255 13.107-8.94 22.751-31.929 22.845-32.159l0.399-0.963 6.742-3.365 14.98 4.994h5.471l6.41 6.406v1.093a33.357 33.357 0 0 1 8.673-2.689l5.46-0.907-2.517 4.93c-4.266 8.352-2.67 19.517 4.741 33.185 3.849 7.091 18.905 17.521 31.003 25.902 9.714 6.73 18.103 12.543 21.251 16.677 1.097 1.44 2.397 2.897 3.774 4.438 7.212 8.08 16.189 18.135 11.046 40.809l-0.173 0.522c-11.875 26.573-58.701 36.046-98.558 36.046z m-13.961-163.973c-2.069 4.716-11.422 24.783-24.44 33.663-1.732 1.182-3.863 2.626-6.274 4.263-15.565 10.56-47.954 32.532-52.824 38.194-2.755 3.206-11.771 22.221-6.765 40.542 3.942 14.431 15.44 24.972 34.172 31.33 19.745 6.705 44.636 10.396 70.09 10.396 47.689 0 84.271-12.746 93.353-32.498 4.379-19.675-3.169-28.123-9.828-35.584-1.45-1.625-2.82-3.159-4.048-4.773-2.614-3.432-11.055-9.28-19.99-15.47-13.24-9.172-28.246-19.57-32.729-27.831-6.939-12.793-9.227-23.882-6.831-33.056-3.577 1.302-5.669 2.891-5.695 2.914l-4.499 3.466-0.01-9.284-3.138-3.136h-4.064l-13.649-4.548-2.831 1.412z" fill="#967557" p-id="2511"></path><path d="M717.876 375.255s-4.922 64.12-38.169 76.34" fill="#FFFFFF" p-id="2512"></path><path d="M680.67 454.215l-1.927-5.239c31.204-11.472 36.303-73.312 36.351-73.936l5.566 0.429c-0.207 2.69-5.458 66.053-39.99 78.746z" fill="#967557" p-id="2513"></path><path d="M729.806 380.025s-0.835 28.462-2.379 42.944c-1.553 14.478-2.718 13.138-4.775 19.084-2.057 5.941-2.427 13.682-2.387 16.696" fill="#FFFFFF" p-id="2514"></path><path d="M717.474 458.787c-0.048-3.69 0.434-11.557 2.54-17.646 0.581-1.678 1.096-2.818 1.549-3.824 1.155-2.558 1.99-4.404 3.088-14.646 1.515-14.207 2.356-42.444 2.365-42.727l5.579 0.162c-0.034 1.167-0.855 28.734-2.395 43.159-1.135 10.594-2.089 13.114-3.55 16.349-0.428 0.94-0.866 1.915-1.365 3.35-1.859 5.373-2.273 12.649-2.232 15.747l-5.579 0.076z" fill="#967557" p-id="2515"></path><path d="M736.96 384.797s3.94 23.904 4.774 35.785c0.839 11.887 0.839 11.887 2.39 26.244 0.73 6.756 14.308 14.313 14.308 14.313" fill="#FFFFFF" p-id="2516"></path><path d="M757.073 463.577c-2.477-1.379-14.882-8.655-15.725-16.453-1.559-14.409-1.559-14.409-2.4-26.347-0.814-11.617-4.703-35.29-4.743-35.528l5.509-0.907c0.16 0.981 3.971 24.169 4.804 36.043 0.832 11.834 0.832 11.834 2.38 26.14 0.396 3.656 7.776 9.321 12.892 12.175l-2.717 4.877zM220.688 410.906c-2.489 19.371-2.691 42.476 17.318 52.516 2.405 1.208 4.528-2.405 2.114-3.616-18.613-9.339-17.53-31.112-15.246-48.899 0.345-2.674-3.846-2.641-4.186-0.001z" fill="#967557" p-id="2517"></path><path d="M328.057 341.046c0.329 14.189 3.863 28.292 5.403 42.393 1.084 9.904 3.541 20.354 12.566 25.891 2.309 1.416 4.411-2.207 2.116-3.616-9.175-5.628-10.093-17.591-10.999-27.295-1.172-12.519-4.606-24.778-4.9-37.375-0.062-2.694-4.249-2.701-4.186 0.002zM303.803 326.331c4.511 26.701-10.925 59.412-32.533 75.092-2.163 1.57-0.078 5.204 2.112 3.616 23.274-16.889 39.312-51.085 34.458-79.82-0.449-2.659-4.483-1.53-4.037 1.112zM316.898 329.96c-0.002 26.094-0.478 52.006-8.202 77.167-0.793 2.587 3.248 3.686 4.039 1.113 7.83-25.512 8.348-51.813 8.351-78.28 0-2.7-4.188-2.7-4.188 0zM223.479 415.093c-1.398 15.877-0.033 32.215 11.778 44.046 1.908 1.913 4.868-1.048 2.959-2.959-11.028-11.049-11.849-26.371-10.552-41.086 0.239-2.692-3.95-2.67-4.185-0.001zM456.21 387.059c1.544 11.042-2.471 22.987-6.786 32.986-4.178 9.679-10.399 20.481-20.163 25.357-2.416 1.208-0.294 4.819 2.113 3.616 11.036-5.513 17.708-17.689 22.396-28.552 4.568-10.583 8.104-22.911 6.479-34.523-0.374-2.663-4.408-1.524-4.039 1.116zM467.613 386.494c-0.15 24.005-4.095 47.635-7.601 71.317-0.39 2.642 3.643 3.776 4.037 1.115 3.562-24.048 7.598-48.056 7.752-72.432 0.015-2.701-4.172-2.699-4.188 0zM486.885 394.236c5.147 21.689-1.338 53.058 16.589 69.866 1.967 1.846 4.934-1.109 2.96-2.958-8.925-8.371-10.433-22.023-11.629-33.544-1.192-11.479-1.207-23.202-3.882-34.478-0.623-2.626-4.661-1.511-4.038 1.114zM391.24 487.326c7.526 17.731 21.058 25.267 39.855 26.159 13.492 0.641 26.576-2.073 39.934 1.234 10.081 2.498 17.911 1.873 27.946-0.609 2.618-0.65 1.506-4.688-1.116-4.04-10.377 2.571-17.814 2.571-28.192 0-10.859-2.69-22.043-0.848-33.041-0.696-8.375 0.116-16.986-0.516-24.697-4.029-8.497-3.872-13.553-11.84-17.072-20.131-1.054-2.48-4.66-0.343-3.617 2.112zM564.369 375.032c22.083-14.157 29.273-40.406 33.758-64.751 0.487-2.639-3.547-3.766-4.037-1.113-4.266 23.147-10.755 48.736-31.835 62.25-2.265 1.451-0.167 5.076 2.114 3.614zM606.218 311.531c3.678 2.185 2.422 9.667 2.099 13.124-0.661 7.056-2.386 14.048-4.054 20.922-2.75 11.322-7.268 22.947-8.153 34.626-0.204 2.694 3.982 2.675 4.187 0 1.046-13.769 6.786-27.604 9.755-41.051 1.676-7.583 7.167-25.951-1.721-31.235-2.327-1.384-4.432 2.237-2.113 3.614zM624.66 313.188c0.07 21.216 1.659 42.485 8.792 62.623 0.896 2.527 4.939 1.439 4.037-1.113-7.013-19.8-8.573-40.646-8.641-61.51-0.008-2.7-4.196-2.701-4.188 0zM567.415 440.996c13.499 15.399 38.622 5.783 55.908 5.499 2.697-0.045 2.702-4.232 0-4.187-15.849 0.259-40.656 9.749-52.948-4.271-1.782-2.034-4.732 0.938-2.96 2.959zM634.489 476.5c2.161 25.492 26.832 30.453 48.235 31.729 5.571 0.331 11.157 0.437 16.734 0.725 9.012 0.463 16.958 3.095 25.219 6.539 7.813 3.258 15.599 5.521 24.052 6.221 10.257 0.848 20.636-0.459 30.903-0.553 2.698-0.025 2.701-4.211 0-4.188-17.157 0.156-33.463 2.309-49.916-3.924-7.495-2.838-14.522-6.157-22.483-7.563-4.722-0.833-9.646-0.828-14.424-1.009-20.599-0.779-51.855-1.105-54.135-27.978-0.225-2.669-4.413-2.691-4.185 0.001zM681.1 447.815c10.857-2.911 17.229-9.792 21.191-20.119 2.603-6.786 3.961-13.956 6.539-20.775 2.593-6.857 5.108-13.703 4.511-21.137-0.215-2.673-4.403-2.693-4.187 0 0.927 11.542-5.837 23.078-8.78 34.03-3.105 11.562-8.141 20.679-20.386 23.963-2.606 0.699-1.5 4.739 1.112 4.038zM759.952 455.641c-10.539-1.503-14.73-18.984-15.284-27.856-0.855-13.699 4.121-27.828-0.915-41.157-0.944-2.5-4.994-1.417-4.037 1.114 5.622 14.885-1.329 31.131 1.641 46.432 1.773 9.134 6.651 23.958 17.482 25.503 2.64 0.377 3.777-3.656 1.113-4.036zM723.808 381.598c-1.393 12.541-2.74 25.082-3.488 37.682-0.671 11.275-7.221 21.292-6.28 32.797 0.218 2.671 4.406 2.692 4.187 0-0.877-10.745 5.033-20.085 6.061-30.564 1.306-13.299 2.234-26.62 3.709-39.914 0.296-2.682-3.894-2.654-4.189-0.001zM280.616 464.722c3.827 4.359 8.235 8.815 14.444 8.554 5.018-0.212 9.674-4.291 13.842-6.639 8.56-4.822 16.847-4.078 25.932-1.551 6.671 1.854 12.483 1.417 18.796-1.433 2.457-1.109 0.327-4.717-2.113-3.616-7.19 3.245-13.081 1.631-20.28-0.284-5.979-1.589-11.853-1.415-17.767 0.338-4.667 1.385-8.796 4.16-12.915 6.653-7.207 4.361-11.88 0.822-16.98-4.983-1.783-2.032-4.734 0.941-2.959 2.961z" fill="#FFFF99" p-id="2518"></path><path d="M283.831 463.653c8.739 6.693 14.584 3.645 22.718-2.061 12.014-8.427 27.405 0.387 40.443 1.647 2.688 0.259 2.663-3.929 0-4.187-11.752-1.137-22.769-6.601-34.75-4.81-10.812 1.615-14.669 14.701-26.298 5.793-2.145-1.638-4.227 2.001-2.113 3.618zM392.636 490.117c9.127 14.865 24.37 18.965 40.896 19.729 10.359 0.481 20.707-0.674 31.053-0.144 10.393 0.532 19.895 5.52 30.344 5.875 2.703 0.094 2.691-4.094 0-4.187-9.437-0.322-18.219-4.22-27.515-5.587-8.574-1.262-17.452 0.017-26.075 0.002-17.276-0.031-35.203-1.705-45.088-17.801-1.411-2.296-5.033-0.195-3.615 2.113zM569.508 439.601c13.068 15.603 35.771 3.75 52.421 4.103 2.7 0.057 2.695-4.129 0-4.187-15.326-0.326-37.615 11.263-49.461-2.875-1.736-2.073-4.681 0.903-2.96 2.959zM636.582 475.802c1.85 23.016 28.833 27.5 47.319 29.606 13.314 1.517 26.215 2.332 39.265 5.82 17.183 4.591 33.554 9.892 51.582 7.837 2.651-0.303 2.679-4.492 0-4.186-16.032 1.826-30.906-2.145-46.182-6.497-11.944-3.402-23.701-5.301-36.03-6.336-17.264-1.451-49.922-3.309-51.768-26.246-0.215-2.67-4.403-2.691-4.186 0.002z" fill="#967557" p-id="2519"></path><path d="M426.519 179.653c-2.614 10.897 3.014 20.265 9.116 28.848 7.831 11.016 16.074 21.084 20.903 33.908 3.484 9.251 3.998 18.75 0.574 28.059-3.119 8.48-8.682 15.957-13.253 23.679-1.395 2.356 4.671 2.041 5.351 1.936 2.69-0.417 5.997-1.436 7.462-3.913 4.445-7.509 9.564-14.711 12.913-22.81 3.558-8.603 3.561-17.827 1.082-26.709-3.465-12.415-11.088-23.09-18.762-33.215-6.798-8.968-15.456-19.743-12.573-31.761 0.907-3.788-11.921-1.74-12.813 1.978zM526.645 186.062c-5.408 9.486-1.587 20.055 2.225 29.379 4.389 10.736 8.625 21.174 9.276 32.91 0.989 17.853-12.278 27.622-24.034 38.604-2.298 2.147 1.971 2.919 3.253 2.876 3.087-0.105 6.313-1.16 8.587-3.284 11.908-11.125 24.261-20.603 25.12-38.154 0.55-11.213-3.353-22.212-7.608-32.384-4.158-9.933-9.921-21.55-4.006-31.924 1.354-2.376-4.641-2.044-5.352-1.935-2.651 0.41-6.043 1.427-7.461 3.912zM619.286 178.869c-8.154 9.076-7.133 21.357-5.565 32.624 1.865 13.408 4.005 26.477 1.452 39.977-1.57 8.299-5.385 15.898-11.852 21.424-6.367 5.442-14.131 9.081-21.274 13.361-1.297 0.778-4.294 3.11-1.379 4.117 2.717 0.938 6.692-0.021 9.078-1.45 15.346-9.199 31.689-16.791 37.23-35.262 3.584-11.94 2.698-25.081 0.916-37.228-1.779-12.136-5.929-27.777 3.231-37.973 2.037-2.266-1.743-2.926-3.25-2.875-2.884 0.098-6.581 1.052-8.587 3.285z" fill="#FFCC00" p-id="2520"></path></svg>