<?xml version="1.0" standalone="no"?><!DOCTYPE svg PUBLIC "-//W3C//DTD SVG 1.1//EN" "http://www.w3.org/Graphics/SVG/1.1/DTD/svg11.dtd"><svg t="1761200219851" class="icon" viewBox="0 0 1024 1024" version="1.1" xmlns="http://www.w3.org/2000/svg" p-id="1957" xmlns:xlink="http://www.w3.org/1999/xlink" width="200" height="200"><path d="M749.25056 380.71296a40.96 40.96 0 0 0-35.27168-20.1472h-125.47072l145.41824-233.98912a40.94464 40.94464 0 0 0 1.00864-41.51808 40.93952 40.93952 0 0 0-35.79904-21.05856h-307.2a40.96 40.96 0 0 0-40.25344 33.3824l-81.92 435.04128a40.94976 40.94976 0 0 0 8.72448 33.72032 40.94976 40.94976 0 0 0 31.52896 14.8224h116.61824l-39.13728 333.30176a40.96 40.96 0 0 0 76.53376 24.58112l285.78816-517.51424a40.9344 40.9344 0 0 0-0.56832-40.62208z" p-id="1958" fill="#f4ea2a"></path></svg>